<?xml version="1.0" encoding="UTF-8" standalone="no"?>
<svg
   xmlns:dc="http://purl.org/dc/elements/1.1/"
   xmlns:cc="http://creativecommons.org/ns#"
   xmlns:rdf="http://www.w3.org/1999/02/22-rdf-syntax-ns#"
   xmlns:svg="http://www.w3.org/2000/svg"
   xmlns="http://www.w3.org/2000/svg"
   xmlns:sodipodi="http://sodipodi.sourceforge.net/DTD/sodipodi-0.dtd"
   xmlns:inkscape="http://www.inkscape.org/namespaces/inkscape"
   width="1366"
   height="768"
   viewBox="0 0 361.42082 203.20001"
   version="1.1"
   id="svg8"
   inkscape:version="1.0.2 (e86c870879, 2021-01-15)"
   sodipodi:docname="drawing.svg"
   inkscape:export-filename="/home/vijay/Documents/wallpaper.png"
   inkscape:export-xdpi="96"
   inkscape:export-ydpi="96">
  <defs
     id="defs2">
    <inkscape:path-effect
       effect="bspline"
       id="path-effect1253"
       is_visible="true"
       lpeversion="1"
       weight="33.333333"
       steps="2"
       helper_size="0"
       apply_no_weight="true"
       apply_with_weight="true"
       only_selected="false" />
    <inkscape:path-effect
       effect="bspline"
       id="path-effect1249"
       is_visible="true"
       lpeversion="1"
       weight="33.333333"
       steps="2"
       helper_size="0"
       apply_no_weight="true"
       apply_with_weight="true"
       only_selected="false" />
    <inkscape:path-effect
       effect="bspline"
       id="path-effect1245"
       is_visible="true"
       lpeversion="1"
       weight="33.333333"
       steps="2"
       helper_size="0"
       apply_no_weight="true"
       apply_with_weight="true"
       only_selected="false" />
    <inkscape:path-effect
       effect="bspline"
       id="path-effect1237"
       is_visible="true"
       lpeversion="1"
       weight="33.333333"
       steps="2"
       helper_size="0"
       apply_no_weight="true"
       apply_with_weight="true"
       only_selected="false" />
    <inkscape:path-effect
       effect="spiro"
       id="path-effect1233"
       is_visible="true"
       lpeversion="1" />
    <inkscape:path-effect
       effect="spiro"
       id="path-effect1229"
       is_visible="true"
       lpeversion="1" />
    <inkscape:path-effect
       effect="spiro"
       id="path-effect1201"
       is_visible="true"
       lpeversion="1" />
    <style
       type="text/css"
       id="style981" />
  </defs>
  <sodipodi:namedview
     id="base"
     pagecolor="#ffffff"
     bordercolor="#666666"
     borderopacity="1.0"
     inkscape:pageopacity="0.0"
     inkscape:pageshadow="2"
     inkscape:zoom="2.8284271"
     inkscape:cx="664.77491"
     inkscape:cy="459.92989"
     inkscape:document-units="px"
     inkscape:current-layer="layer1"
     inkscape:document-rotation="0"
     showgrid="false"
     units="px"
     inkscape:object-nodes="false"
     inkscape:snap-smooth-nodes="false"
     inkscape:snap-intersection-paths="true"
     inkscape:object-paths="true"
     inkscape:snap-object-midpoints="false"
     showguides="true"
     inkscape:guide-bbox="true"
     inkscape:snap-others="true"
     inkscape:snap-center="true"
     inkscape:snap-nodes="true"
     inkscape:snap-global="false"
     inkscape:snap-midpoints="true"
     inkscape:window-width="1366"
     inkscape:window-height="768"
     inkscape:window-x="0"
     inkscape:window-y="0"
     inkscape:window-maximized="1" />
  <metadata
     id="metadata5">
    <rdf:RDF>
      <cc:Work
         rdf:about="">
        <dc:format>image/svg+xml</dc:format>
        <dc:type
           rdf:resource="http://purl.org/dc/dcmitype/StillImage" />
        <dc:title />
      </cc:Work>
    </rdf:RDF>
  </metadata>
  <g
     inkscape:label="Layer 1"
     inkscape:groupmode="layer"
     id="layer1">
    <rect
       style="fill:#282828;fill-opacity:1;stroke:#fabd2f;stroke-width:2.11667;stroke-linecap:round;stroke-linejoin:round;stroke-miterlimit:4;stroke-dasharray:none;stroke-opacity:1"
       id="rect1352"
       width="487.70059"
       height="303.46451"
       x="-76.889687"
       y="-51.050503"
       ry="1.41732e-06"
       sodipodi:insensitive="true" />
    <g
       id="g1282"
       transform="translate(78.378199,73.20626)">
      <path
         style="fill:none;stroke:#ebdbb2;stroke-width:2.38125;stroke-linecap:round;stroke-linejoin:round;stroke-miterlimit:4;stroke-dasharray:none;stroke-opacity:1"
         d="m 131.41056,47.901553 c 28.72975,-0.08338 29.142,0.0011 29.142,0.0011"
         id="path916"
         inkscape:transform-center-x="-20.64303"
         inkscape:transform-center-y="0.1288922" />
      <path
         style="fill:none;stroke:#ebdbb2;stroke-width:2.38125;stroke-linecap:round;stroke-linejoin:round;stroke-miterlimit:4;stroke-dasharray:none;stroke-opacity:1"
         d="m 72.957034,47.878672 c -28.437106,-0.08338 -28.845156,0.0011 -28.845156,0.0011"
         id="path990"
         inkscape:transform-center-x="-20.432761"
         inkscape:transform-center-y="0.1288922" />
      <path
         style="fill:none;stroke:#ebdbb2;stroke-width:2.38125;stroke-linecap:round;stroke-linejoin:round;stroke-miterlimit:4;stroke-dasharray:none;stroke-opacity:1"
         d="m 129.72593,38.818043 c 27.48733,-9.031776 27.88263,-9.005121 27.88263,-9.005121"
         id="path1004"
         inkscape:transform-center-x="-19.558613"
         inkscape:transform-center-y="-6.312468" />
      <path
         style="fill:none;stroke:#ebdbb2;stroke-width:2.38125;stroke-linecap:round;stroke-linejoin:round;stroke-miterlimit:4;stroke-dasharray:none;stroke-opacity:1"
         d="M 118.08189,23.048833 C 133.08601,-1.4262741 132.99146,-1.77783 132.99146,-1.77783"
         id="path1006"
         inkscape:transform-center-x="-10.458522"
         inkscape:transform-center-y="-17.403155" />
      <path
         style="fill:none;stroke:#ebdbb2;stroke-width:2.38125;stroke-linecap:round;stroke-linejoin:round;stroke-miterlimit:4;stroke-dasharray:none;stroke-opacity:1"
         d="M 125.38503,29.670802 C 147.926,12.283908 148.29468,12.084117 148.29468,12.084117"
         id="path1008"
         inkscape:transform-center-x="-16.07026"
         inkscape:transform-center-y="-12.328031" />
      <path
         style="fill:none;stroke:#ebdbb2;stroke-width:2.38125;stroke-linecap:round;stroke-linejoin:round;stroke-miterlimit:4;stroke-dasharray:none;stroke-opacity:1"
         d="m 108.18219,19.057279 c 5.60538,-27.9591239 5.69063,-28.3280198 5.69063,-28.3280198"
         id="path1010"
         inkscape:transform-center-x="-3.9917634"
         inkscape:transform-center-y="-19.857562" />
      <path
         style="fill:none;stroke:#ebdbb2;stroke-width:2.38125;stroke-linecap:round;stroke-linejoin:round;stroke-miterlimit:4;stroke-dasharray:none;stroke-opacity:1"
         d="M 96.950093,18.754404 C 91.799845,-9.2821795 91.779787,-9.7022016 91.779787,-9.7022016"
         id="path1012"
         inkscape:transform-center-x="3.6267794"
         inkscape:transform-center-y="-19.947696" />
      <path
         style="fill:none;stroke:#ebdbb2;stroke-width:2.38125;stroke-linecap:round;stroke-linejoin:round;stroke-miterlimit:4;stroke-dasharray:none;stroke-opacity:1"
         d="M 86.73606,22.94314 C 71.930423,-1.0794381 71.80896,-1.437409 71.80896,-1.437409"
         id="path1014"
         inkscape:transform-center-x="10.47081"
         inkscape:transform-center-y="-17.09044" />
      <path
         style="fill:none;stroke:#ebdbb2;stroke-width:2.38125;stroke-linecap:round;stroke-linejoin:round;stroke-miterlimit:4;stroke-dasharray:none;stroke-opacity:1"
         d="M 79.094068,29.571533 C 57.234922,12.126966 56.969026,11.837215 56.969026,11.837215"
         id="path1016"
         inkscape:transform-center-x="15.519882"
         inkscape:transform-center-y="-12.431519" />
      <path
         style="fill:none;stroke:#ebdbb2;stroke-width:2.38125;stroke-linecap:round;stroke-linejoin:round;stroke-miterlimit:4;stroke-dasharray:none;stroke-opacity:1"
         d="M 74.612687,39.09364 C 47.110584,30.361548 46.736859,30.165758 46.736859,30.165758"
         id="path1018"
         inkscape:transform-center-x="19.553843"
         inkscape:transform-center-y="-6.2583207" />
    </g>
    <g
       id="g1294"
       transform="translate(74.403908,73.941591)">
      <path
         style="fill:none;stroke:#458588;stroke-width:2.11667;stroke-linecap:round;stroke-linejoin:round;stroke-miterlimit:4;stroke-dasharray:none;stroke-opacity:1"
         d="m 85.997811,58.829931 c 1.569067,-1.170807 3.138034,-2.341539 4.75432,-2.179872 1.616286,0.161666 3.279607,1.655452 4.94881,1.655332 1.669203,-1.2e-4 3.344412,-1.493917 5.016599,-1.49379 1.67219,1.27e-4 3.34103,1.493903 4.97563,1.493786 1.6346,-1.17e-4 3.23505,-1.493902 4.85974,-1.493776 1.62468,1.25e-4 3.27325,1.493907 4.90647,1.493783 1.63322,-1.25e-4 3.25122,-1.49391 5.10814,-1.562946 1.85692,-0.06904 3.95241,1.286487 6.04769,2.641876"
         id="path1243"
         inkscape:path-effect="#path-effect1245"
         inkscape:original-d="m 85.997811,58.829931 c 1.569289,-1.17051 3.138256,-2.341242 4.706987,-3.51226 1.66361,1.494064 3.326928,2.987853 4.990071,4.481456 1.675474,-1.493633 3.35069,-2.987422 5.025701,-4.481456 1.66915,1.494064 3.33798,2.987853 5.00667,4.481456 1.60074,-1.493633 3.20119,-2.987422 4.80147,-4.481456 1.64888,1.494064 3.29744,2.987853 4.94582,4.481456 1.61828,-1.493633 3.23627,-2.987422 4.85409,-4.481456 2.09578,1.355806 4.19127,2.711328 6.28659,4.066653"
         sodipodi:nodetypes="ccccccccc" />
      <path
         style="fill:none;stroke:#98971a;stroke-width:2.11667;stroke-linecap:round;stroke-linejoin:round;stroke-miterlimit:4;stroke-dasharray:none;stroke-opacity:1"
         d="m 88.874831,61.990155 c 0.741927,-0.722522 1.483846,-1.445036 2.620638,-1.152825 1.136791,0.292211 2.668207,1.598936 4.271441,1.505275 1.603234,-0.09366 3.278443,-1.587458 4.95063,-1.587331 1.67219,1.27e-4 3.34103,1.493903 4.97563,1.493786 1.6346,-1.17e-4 3.23505,-1.493902 4.85974,-1.493776 1.62468,1.25e-4 3.27325,1.493907 4.81945,1.538253 1.5462,0.04435 2.99037,-1.360702 4.29951,-1.64331 1.30914,-0.282608 2.48355,0.556775 3.6579,1.396118"
         id="path1247"
         inkscape:path-effect="#path-effect1249"
         inkscape:original-d="m 88.874831,61.990155 c 0.742142,-0.722302 1.484061,-1.444815 2.225765,-2.16755 1.531651,1.306952 3.063067,2.613676 4.594273,3.920195 1.675474,-1.493633 3.35069,-2.987422 5.025701,-4.481456 1.66915,1.494064 3.33798,2.987853 5.00667,4.481456 1.60074,-1.493633 3.20119,-2.987422 4.80147,-4.481456 1.64888,1.494064 3.29744,2.987853 4.94582,4.481456 1.44425,-1.40469 2.88841,-2.809744 4.33197,-4.214633 1.17447,0.839502 2.34888,1.678887 3.52327,2.518178"
         sodipodi:nodetypes="ccccccccc" />
      <path
         style="fill:none;stroke:#458588;stroke-width:2.11667;stroke-linecap:round;stroke-linejoin:round;stroke-miterlimit:4;stroke-dasharray:none;stroke-opacity:1"
         d="m 92.830098,65.162859 c 0.954998,0.857655 1.90992,1.715242 3.225108,1.396964 1.315187,-0.318278 2.990148,-1.811853 4.662334,-1.811727 1.67219,1.27e-4 3.34103,1.493903 4.97563,1.493786 1.6346,-1.17e-4 3.23505,-1.493902 4.85974,-1.493776 1.62468,1.25e-4 3.27328,1.493936 4.6069,1.770433 1.33362,0.276498 2.35257,-0.664139 3.37144,-1.604694"
         id="path1251"
         inkscape:path-effect="#path-effect1253"
         inkscape:original-d="m 92.830098,65.162859 c 0.954995,0.857659 1.909912,1.715251 2.864771,2.572764 1.675729,-1.493848 3.35069,-2.987423 5.025701,-4.481457 1.66915,1.494064 3.33798,2.987853 5.00667,4.481457 1.60074,-1.493634 3.20119,-2.987423 4.80147,-4.481457 1.64888,1.494064 3.29747,2.987883 4.94582,4.481457 1.01911,-0.940359 2.03794,-1.881131 3.05672,-2.821778"
         sodipodi:nodetypes="ccccccc" />
    </g>
    <path
       style="fill:#fabd2f;fill-opacity:1;stroke:#fabd2f;stroke-width:2.11666;stroke-linecap:round;stroke-linejoin:round;stroke-miterlimit:4;stroke-dasharray:none;stroke-opacity:1"
       id="path1270"
       sodipodi:type="arc"
       sodipodi:cx="180.71043"
       sodipodi:cy="120.77482"
       sodipodi:rx="22.321869"
       sodipodi:ry="22.587286"
       sodipodi:start="3.1415927"
       sodipodi:end="0"
       sodipodi:arc-type="slice"
       d="M 158.38857,120.77482 A 22.321869,22.587286 0 0 1 180.71043,98.187532 22.321869,22.587286 0 0 1 203.0323,120.77482 H 180.71043 Z" />
    <path
       id="path2119"
       style="font-style:normal;font-variant:normal;font-weight:normal;font-stretch:normal;font-size:13.6619px;line-height:1.25;font-family:'Standard Symbols PS';-inkscape-font-specification:'Standard Symbols PS, Normal';font-variant-ligatures:normal;font-variant-caps:normal;font-variant-numeric:normal;font-variant-east-asian:normal;fill:#282828;fill-opacity:1;stroke:none;stroke-width:0.999999"
       d="M 750.51758 460.69336 L 752.92578 460.69336 L 753.36133 459.87305 C 753.98094 458.73703 755.32348 455.99926 755.83984 454.86328 C 756.71764 452.84951 757.23438 451.14578 757.23438 450.00977 C 757.23438 448.35743 755.89172 446.96289 754.29102 446.96289 C 752.7936 446.96289 751.50195 448.25366 751.50195 449.80273 C 751.50195 450.06091 751.55369 450.37172 751.60547 450.68164 L 751.86328 451.81641 L 751.9668 452.28125 L 752.01953 452.74609 C 752.27767 453.98536 752.38086 454.76014 752.38086 455.32812 C 752.38086 456.56739 751.91601 458.06531 751.08984 459.66602 L 750.72852 460.28516 L 750.51758 460.69336 z "
       transform="scale(0.26458333)" />
    <path
       id="path2182"
       style="font-style:normal;font-variant:normal;font-weight:normal;font-stretch:normal;font-size:13.6619px;line-height:1.25;font-family:'Standard Symbols PS';-inkscape-font-specification:'Standard Symbols PS, Normal';font-variant-ligatures:normal;font-variant-caps:normal;font-variant-numeric:normal;font-variant-east-asian:normal;fill:#fabd2f;fill-opacity:1;stroke:none;stroke-width:0.999999"
       d="M 739.55664 460.69336 L 744.8418 474.12305 L 746.39062 474.12305 L 746.64844 473.45312 C 747.21642 472.05893 747.68227 470.9232 747.99219 470.25195 L 749.38672 467.41016 L 749.84961 466.42969 L 752.89648 460.75 L 752.92578 460.69336 L 750.51758 460.69336 L 747.16602 467.20508 L 744.5918 460.69336 L 739.55664 460.69336 z "
       transform="scale(0.26458333)" />
    <path
       id="path2180"
       style="font-style:normal;font-variant:normal;font-weight:normal;font-stretch:normal;font-size:13.6619px;line-height:1.25;font-family:'Standard Symbols PS';-inkscape-font-specification:'Standard Symbols PS, Normal';font-variant-ligatures:normal;font-variant-caps:normal;font-variant-numeric:normal;font-variant-east-asian:normal;fill:#282828;fill-opacity:1;stroke:none;stroke-width:0.999999"
       d="M 739.55664 460.69336 L 744.5918 460.69336 L 739.16211 446.96289 C 736.68361 447.78906 734.92724 448.09895 732.24219 448.25391 L 732.24219 449.75195 C 735.08216 449.80362 735.34169 449.95742 736.5293 453.00391 L 739.55664 460.69336 z "
       transform="scale(0.26458333)" />
    <path
       id="path2178"
       style="font-style:normal;font-variant:normal;font-weight:normal;font-stretch:normal;font-size:13.6619px;line-height:1.25;font-family:'Standard Symbols PS';-inkscape-font-specification:'Standard Symbols PS, Normal';font-variant-ligatures:normal;font-variant-caps:normal;font-variant-numeric:normal;font-variant-east-asian:normal;fill:#fabd2f;fill-opacity:1;stroke:none;stroke-width:0.999999"
       d="M 702.25391 460.69336 C 702.25356 460.75035 702.24219 460.79616 702.24219 460.85352 C 702.24219 469.11522 706.32256 474.12305 713.03516 474.12305 C 717.57909 474.12305 720.93372 471.80064 723.05078 467.20508 C 723.30896 468.18613 723.67225 469.16702 724.24023 470.40625 C 725.58276 473.29785 726.45899 474.12305 728.11133 474.12305 C 730.79638 474.12305 732.08723 471.7479 732.24219 466.32617 L 732.24219 465.65625 L 730.90039 465.65625 C 730.79713 468.3413 729.81629 470.25195 728.52539 470.25195 C 726.82143 470.25195 725.1177 467.46328 724.49805 463.90039 L 725.64844 460.69336 L 721.0293 460.69336 L 721.08984 461.00781 L 719.90234 464.36523 C 718.09512 469.68371 716.02902 472.16211 713.44727 472.16211 C 711.84656 472.16211 710.24609 471.1799 709.41992 469.63086 C 708.35131 467.59539 707.69687 464.39317 707.67773 460.69336 L 702.25391 460.69336 z "
       transform="scale(0.26458333)" />
    <path
       id="path2176"
       style="font-style:normal;font-variant:normal;font-weight:normal;font-stretch:normal;font-size:13.6619px;line-height:1.25;font-family:'Standard Symbols PS';-inkscape-font-specification:'Standard Symbols PS, Normal';font-variant-ligatures:normal;font-variant-caps:normal;font-variant-numeric:normal;font-variant-east-asian:normal;fill:#282828;fill-opacity:1;stroke:none;stroke-width:0.999999"
       d="M 702.25391 460.69336 L 707.67773 460.69336 C 707.67745 460.6389 707.66406 460.59765 707.66406 460.54297 C 707.66406 456.77357 708.3871 453.67625 709.78125 451.4043 C 710.71071 449.90685 711.84656 449.18359 713.44727 449.18359 C 717.11337 449.18359 719.48877 452.12721 720.52148 458.01367 L 721.0293 460.69336 L 725.64844 460.69336 L 730.33203 447.63477 L 725.73633 447.63477 L 722.58789 456.51562 C 721.24536 450.2161 718.09531 446.96289 713.39648 446.96289 C 711.02124 446.96289 708.49059 447.89259 706.58008 449.54492 C 703.66991 452.04666 702.28486 455.67083 702.25391 460.69336 z "
       transform="scale(0.26458333)" />
    <path
       id="path2174"
       style="font-style:normal;font-variant:normal;font-weight:normal;font-stretch:normal;font-size:13.6619px;line-height:1.25;font-family:'Standard Symbols PS';-inkscape-font-specification:'Standard Symbols PS, Normal';font-variant-ligatures:normal;font-variant-caps:normal;font-variant-numeric:normal;font-variant-east-asian:normal;fill:#fabd2f;fill-opacity:1;stroke:none;stroke-width:0.999999"
       d="M 687.68164 460.69336 L 687.68164 467.46289 C 687.68164 470.19957 687.94031 471.33558 688.71484 472.41992 C 689.54101 473.50427 690.88345 474.12305 692.38086 474.12305 C 694.343 474.12305 696.20192 473.14257 697.33789 471.49023 C 697.90592 470.61244 698.26662 469.68336 698.67969 467.92773 L 697.23438 467.875 L 697.13086 468.23633 C 696.71776 470.40502 695.89073 471.43945 694.70312 471.43945 C 692.99913 471.43945 692.12109 469.83724 692.12109 466.6875 L 692.13672 460.69336 L 687.68164 460.69336 z "
       transform="scale(0.26458333)" />
    <path
       id="path2172"
       style="font-style:normal;font-variant:normal;font-weight:normal;font-stretch:normal;font-size:13.6619px;line-height:1.25;font-family:'Standard Symbols PS';-inkscape-font-specification:'Standard Symbols PS, Normal';font-variant-ligatures:normal;font-variant-caps:normal;font-variant-numeric:normal;font-variant-east-asian:normal;fill:#282828;fill-opacity:1;stroke:none;stroke-width:0.999999"
       d="M 687.68164 460.69336 L 692.13672 460.69336 L 692.17383 446.96289 C 689.79862 447.99561 686.33813 449.02993 683.13672 449.70117 L 683.13672 450.99023 C 684.11781 450.88705 684.73729 450.83594 685.15039 450.83594 C 686.80272 450.83594 687.52573 451.61156 687.62891 453.36719 C 687.62891 453.88355 687.68164 454.65821 687.68164 455.01953 L 687.68164 460.69336 z "
       transform="scale(0.26458333)" />
    <path
       id="path2170"
       style="font-style:normal;font-variant:normal;font-weight:normal;font-stretch:normal;font-size:13.6619px;line-height:1.25;font-family:'Standard Symbols PS';-inkscape-font-specification:'Standard Symbols PS, Normal';font-variant-ligatures:normal;font-variant-caps:normal;font-variant-numeric:normal;font-variant-east-asian:normal;fill:#fabd2f;fill-opacity:1;stroke:none;stroke-width:0.999999"
       d="M 658.86914 460.69336 L 658.86914 477.11914 C 658.86914 477.84205 658.71355 480.52709 658.55859 482.07617 C 658.45534 483.21215 658.30078 484.09 657.93945 485.38086 L 662.17383 485.38086 C 662.74185 484.34814 663 482.74729 663 479.95898 L 663 478.82227 L 663 471.74805 C 665.73668 473.81345 668.00905 474.58789 671.00391 474.58789 C 677.14851 474.58789 681.38281 470.04488 681.38281 463.43555 C 681.38281 462.44535 681.19007 461.57628 681.01953 460.69336 L 675.75 460.69336 C 675.92038 461.70724 676.01172 462.76521 676.01172 463.84766 C 676.01172 466.58434 675.44346 468.75318 674.25586 470.0957 C 673.27477 471.23168 671.51978 472.00586 669.9707 472.00586 C 667.33728 472.00586 664.75563 470.81846 663 468.80469 L 663 460.69336 L 658.86914 460.69336 z "
       transform="scale(0.26458333)" />
    <path
       id="path2168"
       style="font-style:normal;font-variant:normal;font-weight:normal;font-stretch:normal;font-size:13.6619px;line-height:1.25;font-family:'Standard Symbols PS';-inkscape-font-specification:'Standard Symbols PS, Normal';font-variant-ligatures:normal;font-variant-caps:normal;font-variant-numeric:normal;font-variant-east-asian:normal;fill:#282828;fill-opacity:1;stroke:none;stroke-width:0.999999"
       d="M 658.86914 460.69336 L 663 460.69336 L 663 443.76172 C 663 440.14724 665.11669 437.61719 668.21484 437.61719 C 671.46788 437.61719 673.79102 440.56057 673.79102 444.69141 C 673.79102 447.47971 672.39806 450.42383 671.00391 450.42383 C 670.90061 450.42383 670.69307 450.42287 670.48633 450.37109 L 669.86719 450.2168 C 669.76401 450.2168 669.66115 450.16602 669.60938 450.16602 C 669.14464 450.06283 668.73146 450.00977 668.31836 450.00977 C 667.02746 450.00977 666.04688 450.78568 666.04688 451.81836 C 666.04687 452.79945 666.92421 453.41797 668.31836 453.41797 C 668.62817 453.41797 668.88598 453.36685 669.40234 453.26367 C 669.97033 453.16049 670.58985 453.10742 670.95117 453.10742 C 671.62242 453.10742 671.985 453.21061 672.29492 453.46875 C 674.03164 455.08967 675.24579 457.69298 675.75 460.69336 L 681.01953 460.69336 C 680.22074 456.55774 677.64548 453.51596 672.96484 451.55859 C 676.94079 449.44157 678.74805 447.06628 678.74805 444.12305 C 678.74805 439.52748 674.1539 435.70703 668.62891 435.70703 C 663.05229 435.70703 658.86914 439.37392 658.86914 444.2793 L 658.86914 460.69336 z "
       transform="scale(0.26458333)" />
    <path
       id="path2166"
       style="font-style:normal;font-variant:normal;font-weight:normal;font-stretch:normal;font-size:13.6619px;line-height:1.25;font-family:'Standard Symbols PS';-inkscape-font-specification:'Standard Symbols PS, Normal';font-variant-ligatures:normal;font-variant-caps:normal;font-variant-numeric:normal;font-variant-east-asian:normal;fill:#fabd2f;fill-opacity:1;stroke:none;stroke-width:0.999999"
       d="M 637.17578 460.69336 C 636.2287 461.14612 635.46962 461.62077 634.85938 462.29883 C 633.87829 463.38317 633.25781 464.98497 633.25781 466.48242 C 633.25781 470.92306 637.80229 474.12305 644.20508 474.12305 C 649.93662 474.12305 653.1372 472.00679 654.16992 467.46289 L 652.93164 466.99805 C 651.84733 470.25109 649.93564 471.54102 646.26953 471.54102 C 643.7394 471.54102 641.67345 470.92283 640.2793 469.68359 C 639.24658 468.8058 638.7832 467.77147 638.7832 466.11914 C 638.7832 463.07261 640.59034 461.11133 643.27539 461.11133 C 643.79175 461.11133 644.25712 461.16244 644.77344 461.26562 C 645.44472 461.42059 646.11535 461.47266 646.58008 461.47266 C 647.5538 461.47266 648.23148 461.13638 648.69922 460.69336 L 637.17578 460.69336 z "
       transform="scale(0.26458333)" />
    <path
       id="path2164"
       style="font-style:normal;font-variant:normal;font-weight:normal;font-stretch:normal;font-size:13.6619px;line-height:1.25;font-family:'Standard Symbols PS';-inkscape-font-specification:'Standard Symbols PS, Normal';font-variant-ligatures:normal;font-variant-caps:normal;font-variant-numeric:normal;font-variant-east-asian:normal;fill:#282828;fill-opacity:1;stroke:none;stroke-width:0.999999"
       d="M 637.17578 460.69336 L 648.69922 460.69336 C 648.9756 460.43158 649.26562 460.16553 649.26562 459.82031 C 649.26563 458.99415 648.64574 458.58203 647.50977 458.58203 C 647.04503 458.58203 646.47571 458.63377 645.70117 458.68555 L 645.39258 458.73633 L 645.08203 458.73633 L 644.30859 458.83984 C 643.84386 458.89162 643.42906 458.89062 643.11914 458.89062 C 640.53738 458.89063 638.7832 457.08323 638.7832 454.29492 C 638.7832 451.19681 640.95082 448.77148 643.6875 448.77148 C 645.28821 448.77148 646.68374 449.59777 647.14844 450.88867 L 647.25 451.25 L 647.35352 451.55859 L 647.56055 452.07617 C 648.02524 453.4187 649.00576 454.29492 650.19336 454.29492 C 651.53589 454.29492 652.67188 453.16063 652.67188 451.71484 C 652.67187 448.9265 649.21312 446.96289 644.35938 446.96289 C 641.05471 446.96289 638.73057 447.6864 636.7168 449.28711 C 634.85791 450.73285 633.98047 452.28204 633.98047 454.24414 C 633.98047 455.9481 634.75602 457.54905 636.04688 458.47852 C 636.76918 458.94282 637.23456 459.20158 638.83203 459.97461 C 638.12367 460.2226 637.67066 460.45678 637.17578 460.69336 z "
       transform="scale(0.26458333)" />
    <path
       id="path2162"
       style="font-style:normal;font-variant:normal;font-weight:normal;font-stretch:normal;font-size:13.6619px;line-height:1.25;font-family:'Standard Symbols PS';-inkscape-font-specification:'Standard Symbols PS, Normal';font-variant-ligatures:normal;font-variant-caps:normal;font-variant-numeric:normal;font-variant-east-asian:normal;fill:#fabd2f;fill-opacity:1;stroke:none;stroke-width:0.999999"
       d="M 611.99219 460.69336 C 609.87926 462.90293 608.67969 465.73 608.67969 468.72852 C 608.67969 474.87312 613.58535 479.98438 619.52344 479.98438 C 622.62159 479.98438 625.40822 478.74582 627.88672 476.16406 C 630.31359 473.6339 631.45117 470.84517 631.45117 467.33398 C 631.45117 464.92689 630.84064 462.71987 629.73438 460.69336 L 623.82812 460.69336 C 623.93334 460.8471 624.06831 460.97968 624.16992 461.13672 C 625.61574 463.40867 626.39062 466.14551 626.39062 469.03711 C 626.39062 474.14903 623.96412 477.55664 620.34961 477.55664 C 616.73513 477.55664 614.25586 473.52985 614.25586 467.5918 C 614.25586 464.62317 614.96437 462.36065 616.28906 460.69336 L 611.99219 460.69336 z "
       transform="scale(0.26458333)" />
    <path
       id="path2160"
       style="font-style:normal;font-variant:normal;font-weight:normal;font-stretch:normal;font-size:13.6619px;line-height:1.25;font-family:'Standard Symbols PS';-inkscape-font-specification:'Standard Symbols PS, Normal';font-variant-ligatures:normal;font-variant-caps:normal;font-variant-numeric:normal;font-variant-east-asian:normal;fill:#282828;fill-opacity:1;stroke:none;stroke-width:0.999999"
       d="M 611.99219 460.69336 L 616.28906 460.69336 C 617.45285 459.22859 619.07983 458.21149 621.27734 457.72852 L 621.27734 457.73047 C 621.32909 457.73047 621.38148 457.83366 621.69141 458.0918 L 622.25977 458.6582 C 622.85335 459.29414 623.34523 459.98776 623.82812 460.69336 L 629.73438 460.69336 C 628.79977 458.98131 627.5248 457.39337 625.82227 455.97461 C 624.78959 455.09681 623.80762 454.42467 620.91602 452.7207 C 619.05717 451.58473 618.23109 451.06751 617.25 450.29297 C 615.23623 448.74389 614.20508 447.40271 614.20508 446.31836 C 614.20508 444.6144 615.85648 443.27148 617.92188 443.27148 C 619.83239 443.27148 620.91761 443.83949 622.82812 445.75 L 623.34375 446.31836 C 624.89283 447.86744 625.82297 448.38281 626.95898 448.38281 C 628.35314 448.38281 629.38477 447.45408 629.38477 446.21484 C 629.38477 443.37487 624.89328 441.10352 619.41992 441.10352 C 614.61781 441.10352 611.62305 443.06506 611.62305 446.21484 C 611.62305 448.12536 612.44787 449.51881 614.77148 451.6875 L 619.83203 456.38672 C 617.14702 457.21289 615.54628 457.88525 614.04883 458.91797 C 613.27956 459.44247 612.60818 460.04919 611.99219 460.69336 z "
       transform="scale(0.26458333)" />
  </g>
</svg>
