<?xml version="1.0" encoding="UTF-8" standalone="no"?>
<svg
   xmlns:dc="http://purl.org/dc/elements/1.1/"
   xmlns:cc="http://creativecommons.org/ns#"
   xmlns:rdf="http://www.w3.org/1999/02/22-rdf-syntax-ns#"
   xmlns:svg="http://www.w3.org/2000/svg"
   xmlns="http://www.w3.org/2000/svg"
   xmlns:xlink="http://www.w3.org/1999/xlink"
   xmlns:sodipodi="http://sodipodi.sourceforge.net/DTD/sodipodi-0.dtd"
   xmlns:inkscape="http://www.inkscape.org/namespaces/inkscape"
   width="800"
   height="800"
   viewBox="0 0 211.66666 211.66667"
   version="1.1"
   id="svg8"
   inkscape:version="1.0.2 (e86c870879, 2021-01-15)"
   sodipodi:docname="drawing-2.svg">
  <defs
     id="defs2">
    <linearGradient
       inkscape:collect="always"
       id="linearGradient1797">
      <stop
         style="stop-color:#ffeaa4;stop-opacity:1"
         offset="0"
         id="stop1793" />
      <stop
         style="stop-color:#ffb11d;stop-opacity:1"
         offset="1"
         id="stop1795" />
    </linearGradient>
    <inkscape:path-effect
       effect="spiro"
       id="path-effect1142"
       is_visible="true"
       lpeversion="1" />
    <radialGradient
       inkscape:collect="always"
       xlink:href="#linearGradient1797"
       id="radialGradient1799"
       cx="102.0887"
       cy="84.5028"
       fx="102.0887"
       fy="84.5028"
       r="152.95226"
       gradientTransform="matrix(0.53557708,-0.53417464,0.39620206,0.39724226,-25.796161,72.58324)"
       gradientUnits="userSpaceOnUse" />
  </defs>
  <sodipodi:namedview
     id="base"
     pagecolor="#ffffff"
     bordercolor="#666666"
     borderopacity="1.0"
     inkscape:pageopacity="0.0"
     inkscape:pageshadow="2"
     inkscape:zoom="0.5"
     inkscape:cx="159.87962"
     inkscape:cy="295.2481"
     inkscape:document-units="px"
     inkscape:current-layer="layer1"
     inkscape:document-rotation="0"
     showgrid="false"
     units="px"
     inkscape:window-width="1366"
     inkscape:window-height="739"
     inkscape:window-x="0"
     inkscape:window-y="27"
     inkscape:window-maximized="1" />
  <metadata
     id="metadata5">
    <rdf:RDF>
      <cc:Work
         rdf:about="">
        <dc:format>image/svg+xml</dc:format>
        <dc:type
           rdf:resource="http://purl.org/dc/dcmitype/StillImage" />
        <dc:title></dc:title>
      </cc:Work>
    </rdf:RDF>
  </metadata>
  <g
     inkscape:label="Layer 1"
     inkscape:groupmode="layer"
     id="layer1"
     style="display:inline">
    <path
       id="path1786"
       style="opacity:1;fill:#06072d;fill-opacity:1;stroke:none;stroke-width:0.264583;stroke-linecap:round;stroke-linejoin:round"
       inkscape:transform-center-x="-9.3011472"
       inkscape:transform-center-y="3.9268893"
       transform="translate(26.05546,29.285626)"
       d="m 122.90433,121.61649 c -8.43208,8.48419 -12.78906,30.17312 -21.75781,13.06207 C 92.177779,117.56751 53.425377,89.244675 45.327074,99.615814 37.228772,109.98695 97.128188,102.29733 83.843754,98.183534 70.55932,94.069734 75.255594,55.708979 66.026189,52.236447 56.796785,48.763915 130.45354,70.09147 121.84363,73.44238 113.23371,76.79329 57.285583,168.03759 52.853223,164.24255 48.420863,160.44752 80.915524,50.026064 70.666768,57.329673 60.418012,64.633282 57.335859,95.484002 62.400082,107.83088 67.464306,120.17776 145.98551,21.563072 131.26572,33.933142 116.54592,46.303213 104.26901,150.45579 107.00979,154.03184 c 2.74078,3.57605 1.00696,-44.26724 8.26871,-36.64441 7.26174,7.62283 -52.846712,-12.44314 -59.463662,-10.90712 -6.616949,1.53601 82.992002,-67.148889 93.061982,-62.536279 10.06998,4.612609 14.77524,85.603819 15.82153,92.929289 1.0463,7.32548 -122.163325,4.13172 -127.615389,8.062 -5.452064,3.93028 21.391921,-4.55164 8.930229,6.77301 C 33.551499,163.03298 43.436304,41.302642 30.189646,44.922227 16.942989,48.541812 146.4279,65.036601 143.87367,58.733386 c -2.55423,-6.303214 10.588,4.148832 -8.92821,7.083788 -19.51621,2.934956 6.02042,37.599566 23.44995,46.459796 C 175.82494,121.13719 54.354559,24.35278 51.457942,31.08239 48.561326,37.812 87.977464,71.307394 77.1127,72.067812 66.247936,72.82823 132.5407,68.31835 122.46679,69.31364 112.39289,70.30893 98.754567,39.142776 87.229419,49.194915 75.704272,59.247054 67.274411,67.93099 54.828115,75.592898 42.381819,83.254806 82.602258,46.125185 77.221171,44.84893 c -5.381087,-1.276255 32.664849,69.44158 28.362029,76.69096 -4.30283,7.24938 48.66382,-0.24799 46.1559,6.72827 -2.50792,6.97625 -12.04515,-24.79634 -15.64448,-22.78265 C 132.49529,107.4992 83.794912,47.91254 74.112469,50.35055 64.430026,52.788561 38.946913,43.127185 27.956568,43.622276 16.966223,44.117367 109.05802,48.167291 94.760803,58.343136 80.463584,68.518981 66.195743,99.06848 81.188343,109.44227 96.180944,119.81605 87.301857,82.013288 81.533648,72.860584 75.76544,63.707879 80.093952,139.94757 71.198521,136.53481 62.30309,133.12204 104.31777,55.056344 104.52407,62.1991 104.73038,69.341855 56.622161,148.19745 47.709673,145.53204 38.797184,142.86662 157.41911,105.52739 162.44515,115.62483 167.4712,125.72226 142.75959,64.055872 129.11961,64.814181 115.47962,65.57249 86.416012,49.062305 75.095249,62.430813 c -11.320762,13.368508 -3.83849,23.703462 10.410874,29.907205 14.249364,6.203742 57.065687,14.719122 49.979377,1.818567 -7.08631,-12.900556 7.89777,3.841779 4.43263,6.419195 -3.46514,2.57741 -11.2637,17.58908 -27.51137,22.01025 -16.24767,4.42118 9.60166,-54.444124 6.48973,-48.569828 -3.11193,5.874297 21.63753,35.256888 6.64734,37.963338 -14.99019,2.70645 14.06817,17.99609 20.76281,31.51634 6.69464,13.52025 -34.54881,-16.91225 -41.37208,-24.78709 -6.823267,-7.87483 -55.395968,20.66246 -62.987635,19.59909 -7.591666,-1.06336 96.383145,-66.341745 90.933235,-58.881706 -5.4499,7.460039 -18.07934,20.503341 -20.6874,24.987586 -2.60806,4.48425 -31.243397,8.53872 -40.426179,11.02891 -9.182781,2.49019 21.785496,-8.10031 27.466566,1.11877 5.681073,9.21908 -5.297644,42.07651 2.946803,49.18773 8.24445,7.11122 42.66066,-91.051311 33.55083,-79.603025 -9.10984,11.448286 -18.2359,-4.94198 -23.5193,1.667124 -5.2834,6.609104 2.40051,3.240409 3.79976,8.575203 1.39925,5.334788 1.28087,66.151878 4.6526,68.759278 3.37173,2.6074 -55.500765,-100.560375 -51.365999,-80.848816 4.134767,19.711556 -27.689835,79.742746 -35.321881,72.859856 -7.632047,-6.8829 42.616331,-119.197783 38.067813,-113.65561 -4.548519,5.542173 41.945557,70.73453 22.858189,68.48534 -19.087372,-2.24919 31.076498,-44.955863 42.066428,-28.953729 10.98993,16.002133 -3.76142,56.992419 -3.32728,65.766729 0.43413,8.7743 -5.93468,-85.356773 -14.05081,-88.036328 -8.11612,-2.679554 -37.537493,25.01343 -41.085399,40.403348 -3.547907,15.38992 -41.789429,-64.957781 -46.135645,-50.919727 -4.346216,14.038054 38.746778,9.169057 46.430143,25.848671 7.683366,16.679613 32.573441,6.119502 34.336851,13.123249 1.7634,7.003748 -53.655825,85.940447 -54.297019,80.810117 -0.641194,-5.13033 11.966615,-27.95924 3.163611,-16.0277 -8.803004,11.93155 66.924988,-87.450561 75.021408,-79.090181 8.09642,8.36038 -68.465747,30.855021 -70.84933,44.336231 -2.383583,13.4812 15.375616,-3.47164 3.637464,7.26386 -11.738152,10.73551 44.307296,-70.766721 50.122936,-59.912973 5.81565,10.853747 -85.637529,27.181407 -81.251012,33.951813 4.386516,6.7704 8.980906,5.9414 -3.635445,6.59294 -12.616351,0.65154 31.038613,23.85951 21.060986,32.72308 -9.977626,8.86357 95.443011,-44.348024 81.251021,-33.95181 -14.19198,10.39621 -15.63358,15.06814 -27.73957,9.56332 C 97.515314,109.97462 37.343874,158.00858 32.220025,140.31878 27.096176,122.62897 96.926721,82.75716 93.286693,88.984662 89.646666,95.212164 82.953091,48.806729 70.894018,44.267842 58.834946,39.728955 67.695832,73.766193 56.826612,67.158927 45.957393,60.551661 93.137681,135.19864 77.393814,144.14812 61.649946,153.0976 61.531732,78.647071 56.323814,95.96377 51.115897,113.28047 140.80609,158.99532 139.19929,144.49192 137.59248,129.98852 36.298296,134.03221 35.697673,143.2944 35.097051,152.55659 129.46845,44.595899 132.32028,56.511418 135.17212,68.426936 80.215871,190.08352 70.243247,177.70746 60.270622,165.33141 121.75092,38.212954 111.81015,37.056699 c -9.94077,-1.156256 32.95886,104.706881 29.19172,108.313521 -3.76715,3.60663 -68.180916,-11.42277 -63.19811,-6.86088 4.982807,4.56189 67.27784,-31.14693 64.11101,-27.58281 -3.16682,3.56412 -101.853852,32.60583 -104.744309,26.6538 -2.890456,-5.95202 24.77383,-11.26791 16.595236,-13.51268 -8.178595,-2.24476 2.021442,8.21428 11.441595,17.76184 9.420152,9.54755 19.349072,7.16935 18.796931,-6.5267 -0.552142,-13.69604 49.450357,11.72154 45.464267,13.31218 -3.98609,1.59063 -33.988737,-27.60036 -35.479545,-8.21938 -1.490807,19.38099 -18.808829,-95.106086 -18.79491,-104.76285 0.01392,-9.656765 10.007647,55.082301 1.779338,45.950346 -8.228309,-9.131955 43.052417,-0.695409 48.974667,12.455704 5.92226,13.15111 19.6334,19.28888 2.80178,28.2943 C 111.91821,131.3385 59.557909,99.289837 51.546693,97.014893 43.535477,94.73995 97.026472,121.75895 91.597418,124.04623 86.168363,126.33351 83.917835,49.448758 88.662818,57.227144 93.407802,65.00553 45.16746,90.637558 47.555753,99.1853 c 2.388293,8.54774 89.417177,-39.539056 85.093617,-40.888148 -4.32356,-1.349093 -7.73198,70.046248 -17.49789,53.790898 -9.76592,-16.255348 -70.742715,57.19565 -77.161914,40.47276 -6.419199,-16.72289 0.585333,-30.93117 -0.513355,-22.90131 -1.098688,8.02986 12.048386,-62.103898 17.497905,-53.790896 5.449518,8.313002 36.75927,75.967836 23.214919,69.456206 -13.544352,-6.51164 -0.340931,-30.16407 -6.361992,-45.672813 -6.02106,-15.508748 40.999317,-1.512395 40.310577,17.861523 -0.68874,19.37391 -27.054148,-68.913498 -23.339687,-52.553769 3.714461,16.35973 39.915037,25.48565 36.910237,35.502389 -3.00479,10.01674 -43.005335,7.03364 -33.439236,22.99898 9.566096,15.96534 49.544886,-44.741575 40.376496,-58.858995 -9.16839,-14.117421 -30.8418,92.890285 -36.910235,89.643955 -6.068439,-3.24633 51.020315,-4.82089 37.087465,-16.12065 -13.93285,-11.29976 -44.616966,-4.72272 -47.123042,1.09605 -2.506077,5.81878 43.202522,-14.85031 33.793752,-1.09873 C 110.08459,151.87433 84.110699,97.319281 75.659362,96.480463 67.208025,95.641645 132.11074,82.32661 124.95333,88.19372 117.79592,94.060831 58.94021,125.7781 65.739236,134.26692 72.538263,142.75574 15.838034,58.071906 22.5517,66.485894 c 6.713667,8.413987 32.67633,13.82895 26.387441,9.276935 -6.288888,-4.552015 58.538389,70.044851 51.654989,64.341191 -6.883407,-5.70366 -80.677521,2.51902 -75.210245,14.25442 5.467276,11.7354 34.119778,-73.248577 34.968509,-80.355041 0.848731,-7.106464 80.185456,-11.415271 66.616016,-7.768954 -13.56943,3.646318 -9.6539,47.555025 -2.09094,63.717685 C 132.44042,146.11478 22.991712,144.13334 21.229706,149.6991 19.4677,155.26486 77.831351,97.642722 64.367932,85.851882 50.904513,74.061043 106.88068,30.392745 116.05465,45.811986 125.22861,61.231228 61.400671,182.33406 46.694633,174.81264 31.988594,167.29122 87.118823,160.24163 85.726766,150.6443 84.33471,141.04697 107.07222,121.90075 97.814473,113.04294 88.556727,104.18513 38.712455,95.343228 42.028146,109.18863 c 3.31569,13.8454 -11.714002,36.61926 -25.001591,37.611 C 3.7389671,147.79136 141.18447,60.24331 130.08722,73.111442 118.98997,85.979575 65.733028,168.05431 54.627664,178.64996 43.522301,189.24562 84.564074,119.0905 79.62725,127.18216 74.690426,135.27382 36.037753,183.56772 23.407993,181.08084 10.778234,178.59395 48.351814,129.72145 29.032138,128.86841 9.7124622,128.01538 57.579892,89.731193 54.235165,100.16463 50.890438,110.59806 109.25318,53.732885 110.45443,46.265945 111.65568,38.799006 90.740181,119.36094 78.301181,114.77478 65.862181,110.18862 111.19134,56.787975 116.31583,43.200703 121.44031,29.613431 107.83175,74.747431 102.48347,57.049511 97.135195,39.351591 75.315823,37.891924 65.701878,45.313421 56.087932,52.734918 66.693887,173.82797 50.971896,165.48015 35.249906,157.13233 10.54494,57.478011 8.4619484,70.190617 6.3789571,82.903224 74.973225,127.005 68.382773,133.99144 61.79232,140.97788 94.966871,118.79372 83.110749,125.11426 71.254627,131.4348 91.427599,125.252 85.6505,119.8345 79.873401,114.417 29.691299,62.20886 25.858485,66.844848 c -3.832813,4.635988 10.631714,53.554002 8.370223,34.081192 -2.26149,-19.472812 67.459342,20.45487 59.521767,18.93606 -7.93757,-1.51882 -33.818045,0.0362 -48.896268,3.95471 C 29.775984,127.7353 45.959412,30.992893 43.232557,36.209018 40.505701,41.425142 68.216679,173.00566 55.46555,174.85052 42.714421,176.69538 48.005179,34.337165 42.30233,45.949961 36.59948,57.562756 128.01173,173.12028 129.15368,156.79493 130.29563,140.46958 114.05115,67.820595 110.17213,71.68003 106.2931,75.539466 22.488204,65.249935 21.339119,85.441546 20.190034,105.63316 76.39984,98.725355 59.634127,99.742926 42.868413,100.7605 32.491049,89.340364 25.167865,79.565182 17.844682,69.789999 132.87785,50.325053 127.49399,56.183193 122.11012,62.041333 99.473075,175.59308 98.944918,170.60637 98.416762,165.61966 71.12878,82.463007 70.197547,68.482893 69.266314,54.502778 119.03818,144.38193 122.9876,157.8688 126.93702,171.35567 21.487535,84.003199 19.641763,96.972228 c -1.845771,12.969032 7.15191,38.048932 -4.38734,43.206982 -11.5392494,5.15805 4.54854,-28.49443 3.550255,-21.80199 -0.998285,6.69245 63.193825,-39.642997 70.062721,-22.261449 6.868896,17.381549 16.802211,15.771439 11.262701,25.367129 -5.53951,9.59569 22.77687,14.02143 19.61824,17.46551 -3.15864,3.44408 -59.872293,21.20787 -70.191517,11.45028 C 39.237599,140.6411 37.436478,107.74451 25.47136,98.634462 13.506243,89.524418 138.70028,40.687886 124.25494,37.262819 109.8096,33.837752 66.473234,83.904387 56.327216,86.463474 46.181199,89.022561 80.124564,135.67707 80.414699,152.08451 80.704835,168.49194 32.692512,134.32568 24.98736,133.3952 c -7.705153,-0.93047 12.160049,-24.03003 11.712209,-8.54066 -0.44784,15.48938 62.472553,18.56694 58.161077,22.72865 -4.311475,4.16172 30.619204,-57.356866 29.882224,-44.58013 C 124.00588,115.7798 20.620204,65.514639 20.777696,73.118123 c 0.157491,7.603485 0.328888,27.052047 -1.822783,30.998457 -2.151671,3.94642 61.605946,41.91144 52.872919,47.82581 -8.733026,5.91438 39.431448,-101.632295 41.905678,-95.060903 2.47424,6.571392 -49.525306,14.136414 -46.179671,23.555727 3.345636,9.419312 11.900343,18.640281 15.933138,9.736624 C 87.519771,81.270182 20.516872,168.47974 13.801765,163.21159 7.0866587,157.94344 50.453231,89.870194 53.234895,81.892927 56.016559,73.915659 88.875888,105.94032 91.804745,98.501668 94.733601,91.063021 41.763072,100.97584 29.723852,89.801696 17.684632,78.627548 48.80181,71.342165 44.775156,58.889147 40.748502,46.436129 17.48637,16.084116 19.57163,35.705567 21.656889,55.327018 35.630147,116.92791 17.849514,126.32138 0.06888111,135.71485 118.22888,104.93973 121.196,85.614188 c 2.96713,-19.325538 -4.23932,14.981272 -5.00986,21.947312 -0.77055,6.96604 -3.32585,-32.598116 -5.02443,-23.232402 -1.69858,9.365715 -5.62554,28.062022 -8.30501,22.995122 -2.67947,-5.0669 6.70331,-16.714629 5.01188,-8.090505 C 106.17715,107.85784 32.225155,172.64746 27.459032,163.14415 22.69291,153.64083 14.265356,80.646589 11.590655,85.353577 8.9159536,90.060565 48.0551,179.81687 34.347822,169.90278 20.640543,159.9887 8.6608107,82.46213 15.033396,74.874692 21.405982,67.287254 56.937541,143.06636 47.972542,151.27793 39.007543,159.48951 44.017805,131.68046 31.961935,124.49167 19.906065,117.30288 77.434657,74.226325 75.083833,67.599816 72.73301,60.973308 48.183737,150.93709 48.887223,146.39225 c 0.703485,-4.54483 77.951957,-33.52989 66.913277,-35.70396 -11.03869,-2.17407 -40.928699,5.50268 -49.866434,12.98572 -8.937735,7.48304 -22.255282,25.52199 -27.951917,21.62175 -5.696635,-3.90024 58.012399,-97.031259 58.359873,-92.488013 0.347473,4.543246 9.482148,25.20479 2.577648,31.283031 -6.904496,6.078242 -99.32808743,-9.139996 -97.3212132,-18.576117 2.0068741,-9.436122 2.5598784,94.232649 -3.1273715,94.264869 -5.6872499,0.0322 48.2940297,-12.31994 47.0181187,-7.60524 -1.275912,4.7147 45.452132,43.91214 40.887058,25.01616 C 81.811189,158.29448 104.85222,75.43067 89.501629,69.06878 74.151034,62.706891 81.755034,148.89591 69.364556,159.59755 56.974077,170.29919 20.820062,129.04131 28.475492,120.72458 c 7.65543,-8.31673 32.513623,37.61796 23.865213,49.42333 -8.64841,11.80537 48.149405,-79.839875 33.632198,-86.29243 -14.517206,-6.452556 -26.784083,1.708691 -23.8067,-2.49877 2.977383,-4.20746 -28.613628,44.45865 -30.482956,28.77125 -1.869328,-15.687398 52.800184,34.38385 54.047139,47.72909 C 86.977341,171.20228 127.91917,45.37536 109.4103,38.255102 90.901436,31.134844 74.378043,81.571086 66.310632,77.052418 58.243222,72.53375 15.28243,144.41863 12.261489,140.61288 9.2405483,136.80713 7.8963095,142.46149 -1.6854052,153.97434 -11.26712,165.48719 100.10498,111.83223 103.47176,101.11971 c 3.36677,-10.712514 -35.76672,37.36323 -34.52157,50.86673 1.24515,13.5035 20.742681,-12.46746 14.073691,-16.40709 -6.66899,-3.93963 22.361749,19.65903 20.451489,36.97795 -1.91027,17.31892 -19.85505,-87.553712 -34.282463,-94.572345 -14.427413,-7.018634 1.172831,35.752115 6.865217,29.151975 5.692386,-6.60013 -8.037121,51.41315 -13.829705,37.68743 -5.792584,-13.72571 -37.329664,-6.57445 -43.078076,-19.74041 -5.748412,-13.16596 2.686506,-34.612202 -6.738421,-32.197606 -9.4249272,2.414595 27.100926,44.436836 19.783246,35.773186 -7.317679,-8.66364 8.061607,7.27133 -6.515663,9.91944 C 11.102234,141.22708 11.510564,46.732083 9.133835,57.361253 6.7571059,67.990423 63.534014,62.21855 45.560081,64.504005 27.586148,66.789459 56.356615,60.93346 69.258712,51.738318 82.160809,42.543175 68.41006,150.98892 72.311284,142.57651 76.212508,134.1641 101.79318,183.5674 105.32957,169.27784 108.86596,154.98827 50.98703,113.41944 56.210593,101.87165 61.434157,90.323856 12.240875,129.44048 17.812577,118.1154 23.384278,106.79033 105.54267,97.081609 109.94065,91.414077 114.33863,85.746545 8.5224184,124.18818 6.8682397,113.39025 5.2140611,102.59231 47.159246,107.95876 45.266263,97.146498 43.373281,86.334238 81.700715,145.36038 84.960351,131.22411 88.219988,117.08785 69.872245,139.19424 62.88843,123.10475 55.904615,107.01526 75.263056,147.5269 58.267383,138.72258 41.27171,129.91826 30.404507,25.598932 25.319854,37.261558 20.235202,48.924185 67.432611,156.07745 58.422676,158.16946 49.412742,160.26148 60.640451,98.901498 56.425979,95.599878 52.211508,92.298259 72.24169,175.10363 65.317443,166.09031 58.393196,157.077 42.690449,91.590321 38.96118,102.94535 35.231911,114.30038 -20.278967,83.146799 -17.018774,76.741468 -13.75858,70.336137 114.30402,61.215872 97.044477,58.896978 79.784938,56.578084 49.898242,150.9705 43.832404,144.03847 37.766567,137.10644 97.113387,58.80864 99.812365,45.09601 102.51134,31.383379 12.394268,141.05142 6.6453287,133.61683 0.89638951,126.18224 53.602239,120.04936 53.110856,115.85875 52.619474,111.66815 -7.4907022,63.472968 -10.439767,77.380844 -13.388831,91.28872 70.865436,131.26128 82.856078,124.81755 94.84672,118.37381 -7.4790686,160.40768 -7.1612006,149.81285 -6.8433327,139.21802 82.163421,110.7164 63.007179,110.09618 43.850938,109.47596 42.859079,118.45437 23.094806,119.85834 3.3305317,121.2623 124.99971,102.66263 113.1141,108.71985 101.22849,114.77706 84.440535,135.18955 80.332329,140.37731 76.224123,145.56507 7.1867905,126.38757 -4.9036517,116.75835 -16.994094,107.12913 112.48343,48.178629 101.46054,58.309336 90.437662,68.440042 -0.70053538,93.35945 15.842529,84.414815 32.385593,75.470181 90.82197,144.27137 87.510885,152.06177 84.199799,159.85218 47.414643,136.65572 49.950731,129.07007 52.486818,121.48442 48.45781,141.96398 37.450007,129.37054 26.442203,116.7771 16.433999,94.216686 15.37943,99.258175 14.324861,104.29966 61.061378,130.73295 70.713163,113.44731 80.364949,96.161673 90.189757,57.933796 76.467342,55.383912 62.744926,52.834027 74.352499,82.33072 74.61578,66.557038 74.879062,50.783357 19.562613,100.50968 26.026593,96.274038 32.490572,92.038398 41.089624,112.2422 36.816935,106.96515 32.544245,101.68811 94.370807,53.789834 107.47656,42.064922 120.58232,30.34001 107.54016,137.24468 94.681233,147.16555 81.822305,157.08642 14.313808,127.9869 8.3362832,132.43861 2.358759,136.89032 54.468337,90.964431 54.377078,84.979784 54.28582,78.995136 1.3915881,53.610469 -1.6316218,61.319884 -4.6548316,69.029299 100.98252,140.41021 97.521981,137.80614 94.061438,135.20208 -15.942666,121.20274 -4.8591077,117.68106 6.2244509,114.15938 -20.926669,169.16615 -13.839761,159.66566 -6.752852,150.16518 26.824737,89.050087 12.152991,83.17941 -2.5187541,77.308733 48.68271,157.2608 33.544661,153.80453 18.406612,150.34826 52.58901,120.69258 42.654122,122.6311 32.719234,124.56962 -21.903867,90.33173 -17.106353,84.082185 -12.308839,77.832639 103.24607,118.77701 86.646319,124.74662 70.046565,130.71623 70.706905,65.369535 84.369127,50.977052 98.031348,36.584568 25.040715,87.81144 18.854457,78.714801 12.668199,69.618162 103.89179,64.174264 87.678449,54.489172 71.465105,44.80408 88.693279,143.62969 89.828858,131.30437 90.964436,118.97906 -1.5853527,96.097391 6.1879736,88.043751 13.9613,79.99011 60.297594,137.28415 62.639138,123.08056 64.980681,108.87697 20.762343,73.255729 13.868091,57.536798 6.9738387,41.817868 51.971697,96.754439 35.447471,87.141128 18.923245,77.527817 -11.636189,66.323236 -13.404174,60.802109 -15.172158,55.280982 103.83905,66.357668 104.04614,61.807592 104.25323,57.257515 -4.5282299,60.783171 -7.0722803,64.060692 -9.6163308,67.338213 116.36497,135.09191 110.71221,144.91652 c -5.65276,9.8246 -12.452402,6.41529 -15.668147,2.72586 C 91.828318,143.95296 25.534599,123.74481 12.340903,112.49484 -0.85279191,101.24486 48.539678,52.995436 36.939041,45.463029 25.338404,37.930622 65.955728,30.810888 52.60518,28.88036 39.254631,26.949833 81.937841,108.00203 81.36712,95.226624 80.796399,82.451221 63.432574,52.376368 56.771,50.968896 50.109425,49.561424 102.88563,86.653371 90.849068,95.18679 78.812502,103.72021 10.434703,149.10419 -1.1285203,142.9752 -12.691743,136.84621 81.495572,63.657878 70.842497,53.369543 60.189421,43.081208 95.57107,93.861546 93.104733,76.735572 90.638395,59.609598 103.37871,55.835584 91.440466,63.217529 79.502225,70.599475 27.840153,18.646478 19.469454,27.676846 11.098756,36.707214 12.59831,67.723973 7.0014207,68.822794 1.4045315,69.921615 21.507362,145.55947 15.539034,137.05815 9.5707047,128.55682 -35.757463,63.417736 -30.088464,44.853175 -24.419466,26.288614 96.525015,81.376173 100.65258,74.136277 104.78015,66.896382 91.140475,75.448933 84.823964,74.403874 78.507453,73.358814 -0.88397827,57.908852 5.4339194,52.273677 11.751817,46.638503 -4.8348761,61.46098 8.7221923,52.882601 22.279261,44.304222 5.7950001,85.673572 -0.86953731,97.58948 -7.5340747,109.50539 62.720567,92.102882 66.077812,73.28398 c 3.357246,-18.818902 -3.436229,34.4781 3.32747,32.48604 6.763699,-1.99206 -23.047548,21.85283 -30.642226,28.7697 -7.594679,6.91688 48.890324,-26.19954 51.452451,-33.45743 2.562127,-7.25788 -48.909299,2.37523 -51.786316,6.18492 C 35.552173,111.07689 17.405845,38.341362 12.735147,38.627205 8.0644494,38.913048 33.643984,67.102555 22.106294,70.167682 10.568605,73.232809 11.976406,71.5844 11.959907,61.137649 11.943409,50.690898 -44.262572,97.204195 -29.164321,94.554835 -14.06607,91.905474 90.837181,56.138968 86.610885,63.014364 82.384588,69.88976 40.291259,90.38162 28.84924,106.06946 c -11.442019,15.68783 42.59831,18.60512 34.377681,33.96623 -8.220629,15.36111 -14.827939,-24.19528 -18.058322,-18.72777 -3.230383,5.46752 -11.310572,-62.30141 8.0391,-63.687234 19.349672,-1.385823 -2.000774,67.432404 -7.708633,69.098914 -5.70786,1.66651 22.293818,14.18797 18.056313,4.87096 -4.237505,-9.317 16.300348,-24.23215 16.001806,-30.22429 -0.298543,-5.99213 -58.677871,8.98732 -61.0954,12.34182 -2.417528,3.3545 6.554211,-45.149383 12.548271,-46.440653 5.99406,-1.29127 22.295578,18.859503 31.533131,6.069656 C 71.780741,60.547246 9.687786,110.81567 14.133842,107.43124 18.579898,104.04682 -1.2330059,53.915854 1.7143769,39.536728 4.6617598,25.157602 41.20755,71.550929 37.862742,74.114781 34.517935,76.678633 86.1237,153.30235 86.141278,140.49901 86.158856,127.69566 -38.507031,49.986469 -29.949691,40.792785 -21.392351,31.599101 64.766238,134.95596 59.048296,131.36109 53.330354,127.76622 58.843551,75.121088 67.86261,62.182617 76.881669,49.244147 7.1094865,113.39143 2.5977484,118.97291 -1.9139896,124.55439 81.768039,82.440581 74.389227,91.332569 67.010416,100.22456 17.012651,74.972989 22.596908,58.638678 28.181164,42.304367 -9.2970095,44.259579 -3.880861,39.236941 1.5352875,34.214303 35.361482,80.010692 49.474012,66.877288 63.586542,53.743884 25.680104,125.14594 27.262374,110.22692 28.844643,95.30789 111.94376,37.152568 103.33591,28.160098 94.728056,19.167628 42.915835,109.14042 23.202706,109.79241 3.4895774,110.44439 63.174994,70.681319 45.543149,77.253959 27.911305,83.826599 -2.7820243,73.867688 10.160645,67.627471 23.103313,61.387254 75.042152,29.016628 83.416481,28.7106 91.790811,28.404572 22.74974,93.769843 23.97523,78.984008 25.20072,64.198173 56.554845,133.65409 66.102278,132.51663 75.649711,131.37918 6.557781,92.540066 9.5891349,84.444712 12.620489,76.349358 27.21144,47.236318 19.438654,38.207139 11.665868,29.177961 -3.3700472,28.411642 -13.908079,37.363993 -24.44611,46.316344 55.579164,108.5021 61.278867,107.84486 66.97857,107.18763 -20.417248,111.56052 -3.6732164,112.37904 13.070815,113.19755 88.581971,80.063517 104.68762,78.068699 120.79327,76.073881 55.17008,113.91074 46.913509,120.00577 38.656938,126.1008 -20.46616,133.56771 -13.151952,126.28278 -5.837744,118.99786 -0.29651304,91.681633 12.963374,81.866611 26.223262,72.051589 26.823256,37.266452 21.14374,30.108566 15.464224,22.95068 -32.404926,57.928892 -36.84635,44.712869 -41.287774,31.496845 4.1864696,46.218554 -6.6213739,31.566616 -17.429218,16.914677 20.610093,142.87445 10.162944,129.85563 c -10.44714871,-13.01881 50.453742,-11.6418 53.304367,-24.5348 2.850626,-12.893008 -83.228088,8.54169 -97.705209,9.19455 -14.47712,0.65285 66.988885,-71.307702 60.700311,-71.08874 -6.288574,0.218963 0.861635,99.82932 10.930209,100.64021 C 47.461196,144.87774 80.512311,84.549903 66.164995,80.355511 51.817679,76.161119 88.689336,75.626329 80.699897,73.335931 72.710459,71.045533 57.181468,90.091568 69.767678,83.98527 82.353889,77.878972 -23.782252,117.35375 -17.000677,114.88028 -10.219102,112.40681 80.657125,81.747897 86.866232,77.993733 93.075339,74.239569 -13.689136,127.43739 -24.624662,123.52576 -35.560188,119.61413 7.6310343,81.62849 12.549948,82.809783 17.468863,83.991076 72.987512,76.998995 83.786815,79.630487 94.586117,82.26198 54.326705,24.001758 70.129349,20.241661 85.931994,16.481563 -39.494503,47.291174 -24.360094,46.542101 -9.2256864,45.793028 20.460874,50.100416 29.54939,49.721404 38.637906,49.342393 46.743314,156.36943 39.866778,139.78654 32.990241,123.20365 23.184756,123.66198 9.3386762,124.29728 -4.5074036,124.93259 13.30784,51.665687 19.428197,51.30823 c 6.120357,-0.357457 -8.4313,-19.237018 -3.442032,-21.491016 4.989268,-2.253998 22.325101,38.748913 23.488387,29.296331 1.163285,-9.452582 0.373283,59.492725 -10.091532,59.132255 -10.464815,-0.36047 3.587838,9.01169 21.025064,7.42216 17.437226,-1.58954 41.305697,-13.88217 26.107375,-5.61854 C 61.317136,128.31305 24.33379,99.967897 33.018518,91.940528 41.703246,83.91316 11.407158,31.333823 5.2469037,26.75544 -0.91335059,22.177057 55.423251,131.92489 42.616798,136.40377 29.810346,140.88266 108.42592,92.813356 92.860293,97.12926 77.294671,101.44516 68.464033,73.940937 49.979661,71.754523 31.49529,69.568109 18.943711,95.693129 12.482979,90.298179 6.0222463,84.903229 -33.382427,146.32724 -25.3868,140.41046 -17.391174,134.49369 30.828717,93.762761 15.430994,104.09598 0.03327051,114.42919 -11.290498,105.25602 0.75374861,104.85852 12.797995,104.46103 20.675099,129.49891 31.876977,122.12966 43.078854,114.7604 -10.55352,23.995189 4.2904532,26.386989 19.134427,28.778789 23.837086,23.638733 18.9677,25.624448 14.098313,27.610163 64.943922,47.545646 48.312187,44.199581 31.680452,40.853516 88.02056,56.91052 82.643251,58.702041 77.265943,60.493563 23.019182,14.18314 7.797387,16.247578 -7.4244076,18.312015 -9.4296637,74.600704 -14.798535,69.292197 -20.167406,63.983689 9.0328587,63.639968 21.131935,64.148183 33.231012,64.656398 73.003127,58.593397 89.36005,59.65089 105.71697,60.708383 65.259524,156.67501 68.202972,136.71336 71.14642,116.75172 41.073004,94.131231 25.52595,84.094447 9.978896,74.057662 30.887027,67.448937 30.739508,52.224595 30.591989,37.000253 -16.906331,39.760613 -4.5705015,35.770195 7.7653283,31.779778 -27.316388,56.497687 -15.961439,43.388122 -4.6064902,30.278557 53.735545,74.066515 41.911855,75.458487 30.088166,76.85046 45.410704,67.648802 34.162983,73.273727 22.915261,78.898653 45.907159,69.47977 45.551909,51.799002 45.196658,34.118234 81.835039,71.527689 75.178732,64.47658 68.522425,57.425471 67.232016,141.90914 76.181052,134.04476 85.130089,126.18038 88.10396,35.54632 81.253747,33.593068 74.403534,31.639816 -3.0273949,82.835544 -4.7133758,78.47793 -6.3993566,74.120316 75.730394,68.729232 78.089281,64.505299 80.448169,60.281367 68.703359,50.435339 73.145389,50.621823 77.587419,50.808307 5.0576388,76.394972 -9.7364502,66.555949 -24.530539,56.716925 41.207505,31.890376 39.355807,27.001983 37.504109,22.11359 66.527411,79.291407 68.200066,64.41306 69.87272,49.534712 35.43736,94.692801 32.551294,81.5739 29.665229,68.454998 55.445785,75.881804 68.093069,80.360481 80.740353,84.839159 51.889575,32.741962 39.246797,29.092606 26.60402,25.44325 -6.4048976,48.506496 -16.679216,39.7329 -26.953535,30.959304 72.183465,23.223796 66.18283,10.897001 60.182195,-1.4297936 59.681762,8.2241356 64.312758,8.7687787 68.943755,9.3134217 -8.0803399,67.952865 -11.656142,51.655097 -15.231944,35.35733 45.737627,56.610121 60.514666,63.278571 75.291705,69.947021 52.386855,130.70112 69.260091,133.98091 86.133328,137.2607 51.371001,70.666792 47.605895,65.24938 43.840789,59.831968 43.643871,68.077141 38.523951,67.683227 33.404031,67.289313 12.202875,136.18057 6.5069672,130.61095 0.81105978,125.04134 29.771036,66.396402 28.030349,49.528164 26.289662,32.659927 77.626388,111.89256 74.572374,102.57317 71.518361,93.253785 112.47037,43.396921 106.58936,39.645453 100.70835,35.893985 2.3115308,62.854388 -4.0829934,45.874889 -10.477518,28.89539 -5.6130153,122.69602 11.434478,117.77573 28.481971,112.85545 30.442274,35.625444 26.554766,31.734903 22.667259,27.844363 70.320529,93.36245 68.419055,79.232586 66.517581,65.102723 -8.611331,128.72359 -27.339961,124.69156 -46.068592,120.65953 86.460965,103.64165 82.688111,99.442858 78.915256,95.244063 95.360264,68.150612 84.269924,66.68669 73.179585,65.222769 71.519993,37.451262 55.011393,32.038896 38.502792,26.62653 -3.7048492,31.766571 -7.1833008,23.7272 -10.661752,15.687829 0.36067429,74.435308 -8.7631031,70.340181 -17.88688,66.245054 43.019104,82.772708 60.256359,74.717658 77.493615,66.662608 -4.7156538,142.62284 4.049243,126.93549 12.81414,111.24815 63.211707,27.898191 49.908043,26.418449 36.604378,24.938708 111.47005,80.330729 99.159574,78.613218 86.849099,76.895706 68.831186,92.453703 79.917958,77.450662 91.004729,62.44762 115.48787,112.51058 102.86521,110.3838 90.242547,108.25702 -38.894948,111.02416 -24.325199,103.6582 -9.7554492,96.292254 55.120104,49.076097 51.256715,47.258337 47.393326,45.440577 -38.653697,113.57818 -29.680216,105.13212 -20.706735,96.686054 83.093562,120.78565 88.700796,117.55189 94.30803,114.31814 67.162077,106.24346 72.32378,98.286834 77.485484,90.33021 11.353691,68.73585 27.989585,57.315503 44.625478,45.895155 -4.4888316,114.23323 13.993052,117.01828 32.474936,119.80332 -18.100094,75.230458 -12.350339,56.033321 -6.6005845,36.836184 71.991809,89.938312 71.697878,83.211688 71.403947,76.485063 78.109054,54.253278 85.825223,48.176902 93.541393,42.100526 40.783038,116.66933 51.493897,119.87827 62.204756,123.08722 82.997869,24.334625 85.843461,21.080171 88.689054,17.825718 74.110933,61.678462 65.026288,56.064997 55.941642,50.451533 88.10874,134.88603 99.359625,123.36679 110.61051,111.84755 2.3686423,36.921342 -6.094697,18.818888 -14.558036,0.71643418 21.495671,96.094806 14.720462,95.123612 7.9452529,94.152418 -14.192631,22.861063 -29.98221,24.332528 -45.771788,25.803994 80.591664,14.56161 75.47211,3.734087 70.352557,-7.0934355 -23.840779,80.535688 -20.129372,82.226453 -16.417964,83.917217 38.128253,113.11504 31.321863,99.49094 24.515473,85.866838 -17.350467,62.967057 -12.634829,61.769729 -7.9191908,60.5724 -11.242637,64.912636 0.6674968,60.48176 12.577631,56.050885 89.252886,101.0808 78.193778,103.51439 67.13467,105.94798 -6.2118599,20.450287 -2.995881,16.089261 0.220098,11.728235 -36.593439,87.567155 -34.034897,76.729507 -31.476355,65.891859 23.784712,40.956846 13.585168,33.696884 3.3856251,26.436922 65.586724,47.191637 81.431119,48.598043 97.275513,50.004449 -11.294619,50.674584 -5.9296644,45.720743 -0.5647095,40.766901 53.009598,115.85071 43.435574,100.76129 33.86155,85.671868 40.62017,63.802395 51.14021,62.182352 61.66025,60.562309 -0.96009526,14.887143 -3.6669259,2.9544483 -6.3737566,-8.9782461 -15.093441,73.448793 -3.4384194,82.881237 8.2166021,92.313681 -27.893196,104.18797 -17.025181,110.38828 -6.1571666,116.58859 28.630533,46.996389 37.65315,33.658671 46.675767,20.320953 19.100669,3.3470731 16.721064,-0.5214555 14.341458,-4.3899841 20.580387,101.17969 30.309835,110.97466 c 9.729449,9.79497 -71.050227,-65.402307 -64.369321,-73.737296 6.680906,-8.334988 18.718745,80.954356 22.99291,82.012566 4.2741658,1.0582 70.656309,-96.426901 85.115054,-103.162395 C 88.507224,9.3520407 -23.145814,59.294776 -10.088078,57.485387 2.9696588,55.675999 -20.483975,9.7148568 -27.647561,-6.207947 -34.811147,-22.130751 104.74454,88.601515 105.36317,84.165982 105.98181,79.730449 38.423824,109.21228 36.164628,98.54296 33.905432,87.873642 -7.6260009,110.6161 -2.4873891,105.46356 2.6512227,100.31101 81.627049,87.340294 77.507412,87.612653 73.387776,87.885011 85.984894,16.615991 77.899906,15.67325 69.814919,14.730509 -28.38354,112.52715 -27.991807,92.639816 -27.600075,72.752477 2.2587571,15.720236 10.40916,25.014178 18.559562,34.308121 -25.517149,81.210468 -30.81816,79.418617 -36.119172,77.626766 69.822224,8.2340322 74.946761,5.4976913 80.071298,2.7613504 43.455996,96.288742 56.441825,102.58665 69.427654,108.88456 44.791956,45.516089 48.075394,38.361241 51.358833,31.206393 6.941343,61.988674 2.5769112,60.071102 -1.7875206,58.153529 89.589421,112.94276 84.297497,99.140177 79.005573,85.337593 42.159671,105.71838 45.54282,97.851033 c 3.383149,-7.867346 35.933291,7.924737 45.500492,-7.853047 9.567198,-15.77779 -10.88706,-6.69556 -18.2576,-12.284951 -7.37054,-5.589392 29.021348,-1.353131 38.627888,4.334784 C 121.02013,87.735735 15.835949,24.481053 8.499379,15.569409 1.1628094,6.6577661 45.139423,11.516386 26.881751,10.951928 8.6240801,10.38747 -9.3531826,28.464373 -21.918295,16.61849 -34.483408,4.7726073 68.284571,86.005207 80.869129,86.14254 93.453688,86.279873 -22.465024,41.008648 -11.970342,47.281801 -1.4756593,53.554954 46.192329,109.28926 30.083148,108.99866 13.973968,108.70806 28.260611,90.787566 38.467984,90.656958 48.675357,90.52635 -2.9585171,9.7090828 6.1611028,4.3713554 15.280723,-0.96637202 80.654889,72.197656 73.054339,65.303294 65.453788,58.408932 -5.0363535,36.377548 -4.13655,26.082568 -3.2367465,15.787588 68.257223,17.77881 65.831848,4.7196289 63.406474,-8.3395523 79.250199,80.285678 74.620011,69.92424 69.989823,59.562802 -33.613134,20.826077 -23.981864,32.394015 -14.350595,43.961954 95.574054,62.131258 97.939292,49.63016 100.30453,37.129062 -30.024482,78.405515 -20.05523,78.27414 -10.085978,78.142764 2.7351197,117.3498 16.487144,116.00488 30.239169,114.65996 -50.173565,85.809588 -30.949321,83.540287 -11.725076,81.270987 67.478211,54.615503 73.552092,64.516787 79.625974,74.41807 33.835387,-17.267151 47.213153,-14.207773 60.59092,-11.148394 86.733117,16.18526 94.649614,18.256824 102.56611,20.328388 23.087053,42.801819 40.721428,39.75955 58.355802,36.71728 54.359502,109.10673 67.060362,118.48412 79.761223,127.86151 -13.151634,7.8807667 -0.83078604,4.9705902 11.490062,2.0604136 60.935551,99.425203 52.968594,97.803046 45.001636,96.180889 73.553138,-3.5890864 60.166561,-17.306542 46.779984,-31.023998 2.2748148,102.19831 2.9113559,96.20699 3.547897,90.215669 19.521105,79.899937 4.2118795,74.675417 -11.097346,69.450897 11.782666,90.41031 29.309614,88.238305 46.836561,86.066301 9.1668941,31.084176 14.298353,33.916975 19.429812,36.749774 -13.915213,112.71407 6.1224708,112.02079 26.160155,111.32752 33.525678,44.55118 51.385698,43.205108 69.245717,41.859035 56.046551,106.10093 66.396953,97.526444 76.747355,88.951955 -0.86387471,4.8581419 -3.0587493,-3.3683318 -5.2536239,-11.594805 64.978044,6.6541108 83.699722,8.8751216 102.4214,11.096132 -30.242198,54.361028 -23.629063,54.822209 c 6.613136,0.46118 14.1093671,28.698313 12.986597,22.499692 C -11.765237,71.12328 46.909894,52.492169 64.967703,47.330299 83.025512,42.168429 81.47381,35.633435 96.745894,25.061003 112.01798,14.488571 -32.057493,-10.847158 -20.004968,-14.629033 -7.9524429,-18.410908 20.337772,4.4026726 29.529194,1.505769 38.720615,-1.3911346 -6.7022362,-5.0154327 4.1913708,-3.2675616 15.084978,-1.5196905 99.676842,113.63415 114.32448,114.61706 128.97211,115.59998 -5.5833192,4.2321852 -13.419724,-13.278456 -21.256128,-30.789097 5.6128025,42.06848 18.664646,49.257818 31.71649,56.447157 61.700689,-5.9215756 71.520357,3.0797846 81.340025,12.081145 27.538623,11.349518 12.058706,6.0294687 -3.4212114,0.70941933 -2.4297697,74.337107 -3.744865,69.6855 -5.0599603,65.033892 16.134424,59.876939 12.205468,48.279623 8.2765122,36.682306 31.008743,-9.6029293 16.79445,-20.248842 2.5801566,-30.894754 35.255387,121.46014 25.851463,108.62489 16.447539,95.789644 80.58441,-11.02221 71.078761,-16.22999 61.573112,-21.437769 68.840119,57.076186 66.489773,52.29848 64.139428,47.520774 78.58573,104.29634 83.555422,91.563081 88.525114,78.829817 115.23128,86.69507 113.88072,81.450641 112.53016,76.206213 62.225992,85.544912 73.43669,100.57917 84.647387,115.61343 63.652119,91.562235 56.375061,89.02819 49.098002,86.494144 83.101415,-29.674455 97.066844,-19.030491 111.03227,-8.3865274 14.460957,90.650778 12.36452,86.987333 c -2.096438,-3.663445 -9.275809,16.619497 3.43784,3.09271 12.71365,-13.526786 89.52091,12.079547 91.0703,16.007297 1.54939,3.92775 -6.8645,-50.617609 -13.570455,-60.190408 C 86.596246,36.324133 75.91861,102.86282 83.115794,96.330832 90.312977,89.798846 11.311343,105.72604 16.44036,92.421145 21.569378,79.116252 87.437322,58.335774 79.606567,51.142994 71.775813,43.950214 34.126595,79.450647 29.667515,77.903697 25.208435,76.356748 107.67407,93.737687 96.342942,81.813389 85.011812,69.889092 45.351034,37.523342 63.01739,31.002749 80.683747,24.482157 4.9346475,85.968864 -5.3145582,72.816163 -15.563764,59.663461 -4.9377216,-16.235562 4.9695206,-19.377343 14.876763,-22.519124 25.884396,108.12833 31.548514,98.816712 37.212632,89.505093 48.738908,30.715871 42.852467,20.950058 36.966025,11.184244 19.443587,119.36066 32.441592,116.1892 45.439598,113.01774 30.431795,56.864784 38.802515,56.808202 47.173235,56.751619 95.596066,60.113429 96.302593,53.234138 97.00912,46.354847 1.4135822,41.52946 -1.3323849,31.22388 -4.078352,20.918301 34.764402,32.637583 48.644973,19.185647 62.525545,5.7337103 28.842853,104.72203 41.868831,95.557486 54.894808,86.392937 12.803483,3.4152258 14.488268,17.08938 16.173053,30.763533 48.892151,33.77775 55.73155,31.065293 62.570948,28.352837 53.186287,85.214964 62.507686,79.839808 71.829085,74.464653 92.628354,56.387872 103.33855,60.526934 114.04874,64.665995 69.406792,62.891956 62.095259,46.551025 54.783727,30.210094 99.802387,-7.7687544 95.648093,-19.195189 91.493798,-30.621623 53.108646,56.618995 61.563777,57.880629 c 8.45513,1.261633 -7.969263,-14.727674 3.797737,-5.2816 11.766999,9.446073 -42.657496,-8.258778 -40.426181,11.028913 2.231314,19.287691 19.863653,7.481338 23.648094,9.144049 3.784441,1.662711 16.628879,-0.175317 9.69536,-4.338869 C 51.345269,64.26957 76.393607,14.737021 72.171186,11.271614 67.948765,7.8062066 30.615731,63.512376 41.903322,66.465347 53.190914,69.418319 -12.282029,12.11863 -15.75424,6.3939631 -19.226452,0.66929594 87.904883,36.915212 95.368889,38.887496 102.83289,40.85978 25.248847,-2.3685717 41.719554,-6.1987045 58.190261,-10.028837 98.037154,5.3439427 106.12567,0.34607985 114.2142,-4.651783 -18.425169,46.382428 0.92159382,48.159023 20.268357,49.935619 50.17176,106.30554 54.699723,104.0564 59.227687,101.80726 99.906099,86.467936 105.52073,80.944997 111.13537,75.422057 61.944302,103.28105 78.831907,100.51547 95.719513,97.749891 -3.1227989,58.605428 -13.04476,49.443819 -22.96672,40.282209 51.29787,26.568683 54.40723,17.837922 57.516591,9.1071612 14.144398,55.346761 15.722788,61.105819 c 1.57839,5.759057 80.803843,9.80402 89.815832,3.239227 C 114.55061,57.780252 3.8823635,83.907184 6.3438204,88.639781 8.8052772,93.372378 36.914274,94.363985 38.279691,98.898493 39.645108,103.433 58.574817,0.0196944 66.811144,-6.8664441 75.047471,-13.752583 35.903602,19.549147 47.606141,26.601762 59.30868,33.654378 32.559719,77.699251 29.131159,72.821831 25.702599,67.944411 -15.315351,56.628961 0.59969894,53.440423 16.514749,50.251885 101.28273,39.553259 104.68707,34.574145 108.09141,29.595032 87.376706,6.8016356 92.242102,0.94204335 97.107497,-4.9175489 63.374282,-12.988999 57.79337,-19.23195 52.212458,-25.474901 2.6247406,30.683072 3.4285371,20.266484 4.2323336,9.8498957 64.152457,17.729972 74.127981,7.2628206 84.103505,-3.2043311 106.55137,91.524554 115.32326,85.199755 124.09514,78.874957 54.622163,1.381934 61.121104,16.221944 c 6.49894,14.840009 44.951296,72.984841 47.573556,83.43271 2.62226,10.447866 -5.41332,-123.717685 2.39419,-113.227748 7.80751,10.4899377 -13.475822,54.124316 4.60638,45.30003 C 133.77744,22.90265 -9.8569999,72.888883 6.6974409,75.053799 23.251882,77.218714 52.628898,2.5668399 60.643546,5.5727691 68.658194,8.5786984 39.799792,29.918211 47.57768,33.865388 55.355568,37.812566 83.749377,85.835271 87.898218,68.933619 92.047059,52.031967 17.199875,89.660548 26.412806,76.023613 35.625736,62.386678 125.54364,54.022477 115.03127,37.910018 104.51889,21.797559 97.528759,70.973173 94.43475,53.694559 91.340742,36.415945 13.822736,101.04005 23.898453,103.17681 33.97417,105.31356 56.0889,33.624404 57.435467,26.696627 58.782033,19.76885 79.750163,19.484115 78.031974,10.912089 76.313786,2.3400632 81.010785,14.233157 90.283793,15.661993 99.556801,17.090829 12.272664,38.693652 0.40647208,24.558258 -11.45972,10.422864 82.062531,14.141653 80.301082,24.426002 78.539634,34.710351 66.52377,4.3677876 68.045232,-8.0375119 69.566693,-20.442811 72.385412,90.996178 83.821538,79.002174 95.257663,67.00817 2.8772846,16.199837 10.675485,25.607828 c 7.7982,9.407992 81.255367,-16.8770894 96.793405,-7.98781 15.53803,8.88928 -96.879815,59.232918 -91.200117,58.738818 5.679698,-0.4941 -13.408535,-114.965478 -3.41158,-107.403725 9.996956,7.561752 72.776451,73.170266 84.56645,78.617362 11.789997,5.447097 -44.921599,25.385155 -33.77622,17.863315 11.14538,-7.52184 1.750865,-11.342031 3.411572,-17.742621 C 68.719702,41.292576 53.327538,-34.789483 52.263199,-15.840567 51.198859,3.1083481 42.135901,86.274662 36.572453,78.575858 31.009004,70.877053 -1.8131492,26.435502 -1.8276492,30.925756 -1.8421491,35.41601 13.640086,101.51549 12.841351,97.505125 12.042616,93.494764 83.365671,33.400089 82.607889,29.117261 81.850106,24.834434 118.57911,85.804331 121.00798,76.767365 123.43686,67.7304 49.527872,-27.297105 55.403843,-24.311666 c 5.87597,2.985439 65.657707,66.552522 55.377787,54.53106 C 100.50172,18.197931 35.620792,56.601478 34.957934,49.311944 34.295077,42.022411 87.561559,49.848618 100.56408,39.101435 113.5666,28.354253 89.369028,89.652959 103.57328,75.350983 117.77753,61.049007 79.079485,116.13202 78.424019,111.05388 77.768552,105.97574 86.268161,10.169725 103.39605,1.8276796 120.52395,-6.5143657 78.830976,60.261263 81.713044,68.315541 84.595112,76.369819 106.19172,18.243536 116.72735,15.687163 127.26298,13.130791 69.343274,70.720781 85.00876,67.15043 100.67425,63.580078 16.267715,103.55628 18.416748,89.215836 20.565782,74.875396 45.035897,11.854351 45.461927,16.49736 c 0.42603,4.64301 -3.551509,-30.369876 -0.196149,-20.8990668 3.355361,9.470809 14.049526,79.0039448 16.998257,93.2599648 2.94873,14.256022 30.124331,-112.954732 23.228301,-124.162659 -6.89603,-11.207927 -8.904912,47.19765 0.326955,45.567049 C 95.051158,8.6320464 17.787053,12.051119 14.209625,31.986919 10.632197,51.92272 121.28855,29.337877 115.99886,20.192058 110.70918,11.046239 5.1342955,-31.841957 11.615247,-34.973487 c 6.480952,-3.131529 3.397027,39.1288119 2.803609,45.859647 -0.593418,6.730835 39.60243,9.215397 57.834728,9.05177 C 90.485881,19.774303 49.148089,39.702692 51.486817,47.389863 53.825545,55.077034 10.436003,49.748212 14.374282,65.944496 18.31256,82.14078 79.761259,0.65373895 88.43446,3.3661231 97.107661,6.0785073 78.355753,20.616702 88.402802,16.42466 98.449851,12.232617 115.21602,61.537836 118.76878,65.253438 122.32154,68.969041 50.911353,-49.824744 44.042359,-31.188835 37.173364,-12.552926 43.946837,98.960964 44.074009,80.898978 44.20118,62.836992 47.16198,20.335873 49.826947,39.497727 52.491913,58.659581 24.671869,48.267708 31.575926,37.438928 38.479983,26.610149 9.5080292,-0.73601063 12.242581,-6.6387726 14.977133,-12.541535 75.887738,74.239831 75.293672,78.468104 c -0.594066,4.228274 23.32956,-7.000832 31.268088,-4.190663 7.93852,2.810168 6.27761,-87.950122 19.33334,-81.0686475 C 138.95082,0.0902676 28.598616,52.655854 32.773193,39.035136 36.947771,25.414418 51.435034,38.547527 51.225635,50.001146 51.016236,61.454766 11.309255,-18.366496 8.7176919,-31.431579 6.1261286,-44.496661 92.958818,54.694271 101.7128,50.934061 110.46677,47.173851 98.835379,-6.1901527 109.82301,-4.8948894 120.81065,-3.599626 34.197982,76.032322 27.186614,90.394643 20.175245,104.75696 82.64227,40.616555 92.414151,40.450624 102.18603,40.284693 84.599827,126.41415 84.432726,107.09075 84.265625,87.76735 12.721465,21.720379 25.421862,20.118607 38.12226,18.516836 76.845025,79.620289 85.342678,83.919433 93.840331,88.218577 11.002184,-2.0164788 8.166406,-7.7241915 5.3306284,-13.431904 -1.3627541,-0.85163977 10.706148,-13.003947 22.775051,-25.156255 125.91152,0.11767897 122.68927,-16.758159 119.46702,-33.633997 60.723952,-16.969776 67.968607,-10.591085 75.213262,-4.2123946 37.751554,62.210944 48.991074,57.153977 60.230594,52.097011 114.42649,39.963823 125.23913,47.251889 136.05177,54.539955 24.741634,66.326659 38.389797,75.410075 52.037961,84.493491 53.126819,45.546578 57.371347,35.378626 61.615875,25.210673 9.1404849,69.750547 27.802548,65.523241 46.46461,61.295935 115.24576,57.487012 114.65389,51.221861 114.06201,44.95671 73.807596,-7.43496 79.157944,2.624988 84.508292,12.684936 120.77533,30.809056 115.60209,41.054484 110.42885,51.299911 68.828308,-8.7193567 61.852005,3.8356969 54.875702,16.390751 44.35867,99.759205 41.003617,82.281388 37.648563,64.803572 42.419184,-8.5712341 51.300415,-6.9040129 60.181647,-5.2367916 95.608303,96.767753 98.177151,100.74382 100.746,104.71988 77.150939,6.8239973 95.94674,10.585068 114.74254,14.346139 18.803375,47.697244 16.843884,42.208037 14.884394,36.71883 73.059078,73.249162 71.800723,67.515122 70.542368,61.781081 84.768254,27.826744 74.159927,43.338695 63.551601,58.850647 43.313587,77.102342 47.793126,79.399787 52.272664,81.697233 120.82939,3.3095861 124.60239,-10.245076 128.37539,-23.799738 10.860325,3.6715767 16.923754,-5.4326129 22.987183,-14.536802 53.594413,55.143253 43.288535,69.795837 32.982657,84.44842 46.475463,-1.2510294 48.127395,6.5378695 49.779326,14.326768 25.20581,-7.9349942 30.659675,1.7254058 36.113539,11.385806 120.42395,23.204788 135.68076,30.235689 c 15.25682,7.030901 -68.001414,9.654055 -61.177153,9.530856 6.824262,-0.123199 11.599905,-62.15964 16.85101,-71.738949 5.251104,-9.579309 12.501493,70.202915 20.123243,82.779258 7.62174,12.576344 -68.403742,-74.438058 -64.438077,-61.84079 3.965666,12.5972672 -27.082579,-3.758991 -23.599582,0.119202 3.482998,3.8781935 37.371334,27.22149 34.608942,46.002372 C 55.286752,53.86852 48.687636,96.38793 60.427713,97.128933 72.16779,97.869937 124.40271,-13.189953 125.28119,-29.1642 126.15967,-45.138447 90.986455,-11.616924 84.054486,3.0280111 77.122517,17.672946 46.620387,33.818451 54.015713,24.018945 61.41104,14.21944 104.74178,81.734032 107.56002,78.692334 c 2.81823,-3.041699 3.8871,-82.8178891 0.21681,-68.158051 C 104.10655,25.194121 6.6739349,10.833849 12.671262,3.4001538 18.66859,-4.033541 134.82182,37.744366 141.44011,56.721644 148.0584,75.698922 14.200707,-5.2754924 29.443248,-6.8414953 44.685789,-8.4074983 116.88685,37.909266 125.39176,40.277001 133.89668,42.644735 26.591716,57.507968 39.470107,64.159898 52.348498,70.811829 118.26969,42.409086 120.03458,46.248413 121.79947,50.087739 57.793733,66.749148 49.506411,79.301795 41.219089,91.854441 127.98104,51.552668 133.49081,43.440061 c 5.50978,-8.112607 -13.79887,-5.45478 -5.13867,11.136138 8.6602,16.590918 11.83407,8.626798 11.7323,14.48466 -0.10176,5.857863 -9.49371,-53.976514 -15.18037,-45.578991 -5.68665,8.397522 1.0651,30.431164 8.28957,24.963548 7.22447,-5.467616 -14.11512,-9.364868 -11.73231,-14.484663 2.38281,-5.119795 2.15904,3.761773 -2.02121,22.298338 -4.18025,18.536566 -13.64715,-33.995218 -8.16279,-28.009182 5.48436,5.986035 -18.287228,15.02439 -18.946489,0.397757 -0.659262,-14.626633 3.813798,-0.573434 2.023215,-8.441534 -1.790583,-7.868099 -57.175061,-35.498716 -42.613089,-37.69257 14.561973,-2.193854 9.027827,2.226789 18.948495,13.4590467 C 80.610131,7.204866 105.85471,13.001342 122.68597,18.33513 139.51724,23.668918 30.988353,65.142408 40.279494,52.982065 49.570635,40.821722 53.480662,84.597345 61.877253,90.351288 70.273843,96.105232 129.81384,46.333962 134.89627,43.320784 139.9787,40.307607 109.22031,-34.474835 112.60128,-19.826423 115.98225,-5.1780121 25.76108,20.967206 22.199474,24.245074 18.637867,27.522943 141.32113,60.259308 143.22671,54.814044 145.13229,49.36878 108.68184,35.083107 96.713634,46.542011 84.745429,58.000914 50.372697,82.034769 48.585173,62.786477 46.797648,43.538186 48.285281,-23.260347 45.959737,-11.688627 43.634194,-0.11690648 118.60934,-19.531206 108.45421,-9.5626513 98.299069,0.40590322 102.30198,104.88224 106.99092,103.37506 111.67987,101.86787 90.507349,99.956594 98.501918,82.274183 106.49649,64.591772 26.185078,69.032883 36.00543,66.291398 45.825782,63.549914 67.531245,16.229913 75.064525,2.728215 c 7.53328,-13.501698 -8.361839,24.791101 8.488999,21.10087 16.850836,-3.690231 -49.081823,-16.292801 -45.409545,-7.88016 3.672277,8.412642 93.744911,44.888799 86.087251,63.563181 -7.65767,18.674381 -84.707239,-25.148565 -80.15071,-15.138247 4.556528,10.010317 -21.797605,-3.076587 -17.677314,7.67965 4.12029,10.756237 66.431652,-55.330236 65.443527,-49.59788 -0.988124,5.732356 18.061477,76.478102 11.344647,82.722161 -6.716829,6.24406 29.24224,-134.000001 29.55397,-123.925176 0.31174,10.0748244 -22.71013,140.774496 -9.10122,131.038596 13.60891,-9.7359 -54.316116,-45.860612 -38.907343,-58.842881 15.408773,-12.982269 42.363343,-6.377532 45.998623,-11.042154 3.63528,-4.664623 -61.220709,-74.830443 -45.557931,-71.443148 15.662781,3.387295 41.403851,93.93043 45.778671,99.703379 4.37481,5.772949 -15.09063,-50.779329 -2.35641,-38.740679 C 141.33396,43.964377 79.915772,76.757133 92.268211,69.94825 104.62065,63.139367 97.405974,35.332259 95.322789,49.496896 93.239603,63.661534 121.21826,104.74857 128.60114,89.506416 135.98403,74.264259 98.840205,38.720282 98.155962,44.509165 97.471718,50.298047 82.004816,1.5406058 88.354825,7.197577 94.704834,12.854548 85.714853,55.203934 80.756892,60.668129 75.798931,66.132323 41.627831,96.663343 48.115216,105.46487 54.602602,114.2664 122.03589,32.744841 111.93358,44.246648 101.83128,55.748454 51.582088,-4.0387095 57.472014,-9.0234015 c 5.889926,-4.9846915 2.742762,49.9301425 3.346411,58.1957105 0.603649,8.265567 53.438245,-3.248559 54.581425,3.45528 1.14317,6.703838 -18.437212,-3.843647 -7.52518,-7.43234 C 118.78671,41.606556 41.771958,38.329963 48.185944,30.70516 54.599931,23.080357 131.12652,-25.819997 132.63361,-13.181278 134.14069,-0.54255902 14.511345,109.14415 23.821812,113.70323 c 9.310467,4.55908 54.912796,-39.321396 59.062753,-31.006023 4.149957,8.315374 -31.311747,2.986165 -28.107368,-13.675997 3.204378,-16.662163 11.771258,10.850295 7.592708,18.421254 -4.17855,7.570958 69.972375,-110.697313 66.210375,-97.1859645 -3.76199,13.5113488 15.06694,-34.1888745 18.31346,-18.9710935 3.24651,15.217781 -19.01608,111.828003 -7.59071,120.581897 11.42538,8.753897 -41.857851,-70.027095 -53.260471,-62.732552 -11.40262,7.294543 -35.56915,9.556106 -18.442263,8.159915 17.126888,-1.39619 45.393324,-48.280604 62.377904,-51.26488 16.98458,-2.984277 -81.808171,8.4612223 -78.632432,4.9696093 C 54.521507,-12.492218 117.68665,67.831986 121.51213,62.572264 125.33761,57.312541 92.223144,83.729282 84.685385,93.530651 77.147626,103.33202 25.570988,4.7366474 42.809763,10.772412 c 17.238774,6.035764 10.921275,2.184896 5.255419,19.084516 -5.665855,16.89962 93.652018,2.759956 89.634928,10.869994 -4.0171,8.110038 -87.929357,57.153704 -83.27275,68.901428 4.656607,11.74773 24.168307,-88.186253 26.037234,-75.563594 1.868928,12.622659 -39.261177,-9.052085 -26.548077,-10.669492 12.713099,-1.617407 73.139633,14.973832 74.225913,25.15355 1.08628,10.179718 -29.272537,-59.165569 -26.03724,-49.582759 3.23529,9.58281 -29.163784,77.41924 -22.072599,81.177175 7.091185,3.757935 -16.389342,-2.615899 -12.164408,-11.497255 4.224934,-8.881356 -9.083832,-49.111096 5.882974,-47.252231 14.966805,1.858865 66.334933,45.131024 71.664323,39.933341 5.32939,-5.197682 -49.761283,-80.624316 -48.585168,-67.7157403 1.176116,12.9085754 -13.37587,45.4130283 -5.88298,47.2522263 7.492891,1.839198 64.083308,56.10105 70.657608,46.389305 6.5743,-9.711746 -70.431106,20.134404 -69.683817,25.000304 0.747289,4.8659 19.621707,-125.560303 38.803407,-126.016484 19.1817,-0.456182 -4.85749,136.364784 -1.85358,122.462664 3.00391,-13.902122 6.92603,-92.823304 12.79734,-91.243822 C 147.5396,19.03502 39.565804,19.386504 27.18549,31.192281 14.805175,42.998058 60.139863,71.157902 56.699309,82.686937 53.258754,94.215972 45.762231,21.666086 43.899947,34.927598 42.037663,48.18911 65.291819,105.60067 70.021495,94.398862 74.751171,83.197055 26.694362,53.211176 40.50767,42.9042 54.320978,32.597225 32.476921,1.0505775 49.488323,0.91959708 66.499724,0.78861664 26.899989,64.795525 23.495571,77.40585 20.091152,90.016176 128.08556,65.51531 133.87001,67.589305 c 5.78446,2.073995 -15.10422,43.732015 -8.98066,41.984595 6.12357,-1.74742 -65.891115,-95.194205 -65.38587,-86.597429 0.505244,8.596776 19.61425,62.480273 21.391664,70.625111 1.777413,8.144838 0.462002,-50.306883 2.279205,-37.519978 1.817203,12.786905 50.204951,18.217814 58.639311,28.834488 8.43437,10.616674 -66.875944,-113.777419 -68.697198,-103.966353 -1.821254,9.8110669 -14.131779,48.569055 -2.277198,51.376779 11.854581,2.807725 -30.280304,26.39473 -28.01236,33.640152 2.267943,7.245421 70.042916,-39.214694 68.695186,-35.036809 -1.34773,4.177886 -24.188747,68.413232 -14.315807,65.343255 9.872937,-3.069978 27.157597,-25.158397 28.014367,-19.783351 0.85677,5.375046 -10.35322,13.219312 -0.61531,13.472407 9.73791,0.253095 26.46632,-81.3064601 14.3158,-65.34326 C 126.77062,40.582111 39.17608,36.189626 49.469407,42.997964 59.762735,49.806301 128.64523,2.9131732 125.6353,5.8477656 122.62538,8.782358 136.65107,57.136577 134.5569,70.505308 132.46272,83.874038 22.314265,102.01777 30.054211,105.85336 c 7.739946,3.83559 97.946509,-130.327701 93.801659,-115.877478 -4.14485,14.4502238 -15.19009,63.546443 -8.91959,74.345607 6.2705,10.799164 34.98453,-25.809139 39.91531,-19.595005 4.93079,6.214134 -82.438699,-4.218609 -93.672861,1.542297 C 49.944567,52.029687 73.688324,81.186095 83.44096,69.634804 93.193595,58.083513 43.258562,3.2254978 36.777082,17.610058 30.295602,31.994619 89.72509,42.417263 96.572177,42.877939 103.41926,43.338616 65.454379,-5.0043838 74.307929,5.6551037 83.161478,16.314591 147.56893,37.546205 151.65561,34.020147 155.74229,30.49409 104.37813,-16.895154 91.731709,-2.0589134 79.08529,12.777327 104.0625,22.176027 97.326401,27.224182 c -6.736098,5.048156 39.017129,8.992068 47.931489,10.159737 8.91436,1.167669 -15.47891,73.131011 -3.96826,68.527191 11.51065,-4.60383 -18.07728,-85.42644 -12.46804,-84.000411 5.60924,1.426029 20.27748,-6.575727 15.82862,-0.267596 -4.44887,6.30813 -118.498459,85.932137 -114.435567,86.668477 4.062892,0.73634 78.687667,-61.929652 97.684677,-55.404369 18.99702,6.525283 -19.41603,6.234286 -15.82661,14.124397 3.58942,7.89011 -30.39509,-15.805947 -41.524982,-6.812163 -11.129891,8.993784 38.265502,-28.671257 34.206202,-25.835852 -4.0593,2.835405 35.12098,22.429068 49.44885,32.164024 14.32788,9.734955 -92.478157,14.427882 -83.621364,6.812156 C 79.438209,65.744047 139.10487,-0.14632627 147.78607,8.3435846 156.46727,16.833496 99.213476,51.845179 91.592675,57.419771 83.971874,62.994364 133.42527,32.914211 114.38843,38.667763 95.351591,44.421316 33.399482,84.630539 37.183772,103.68394 40.968062,122.73735 87.669888,87.288431 96.852999,81.864527 106.03611,76.440624 95.239811,19.422221 80.930578,30.187485 66.621346,40.952749 120.90862,53.588099 114.39204,60.528928 107.87546,67.469757 36.462023,81.492127 54.722807,82.348338 72.983592,83.204549 135.12809,-14.449922 141.04666,-5.6971319 146.96524,3.055658 63.929651,90.811398 57.866675,96.189228 51.8037,101.56706 148.39919,-3.4823233 145.40394,12.678509 142.40868,28.839341 39.780382,88.582574 54.392337,76.936654 c 14.611954,-11.645919 1.163707,-10.6202 0.611167,4.800805 -0.55254,15.421006 85.286006,18.467311 93.947376,12.091474 8.66137,-6.375838 -56.791803,-58.046181 -43.33942,-55.306558 13.45238,2.739623 -3.8104,66.679955 -7.355712,76.439405 C 94.710433,124.72123 112.70991,-1.0898236 122.36088,1.4042027 132.01186,3.898229 27.322817,108.4969 33.934185,121.04853 40.545553,133.60016 116.30348,82.642895 105.50533,89.437969 94.707169,96.233044 78.053596,5.7696213 74.524831,9.2750795 70.996067,12.780538 154.81375,86.602542 166.57322,78.853833 178.33269,71.105124 93.733958,33.328041 101.74863,43.080978 c 8.01467,9.752937 29.85095,38.737982 23.22177,57.298962 -6.62917,18.56098 -20.63695,-69.261011 -16.36497,-54.731762 4.27198,14.52925 -7.63582,-2.074243 3.22262,-7.51315 C 122.68649,32.696121 101.17951,23.47405 95.224019,27.787825 89.26853,32.1016 53.711076,6.8092597 71.569538,12.036072 89.428001,17.262885 112.82064,30.489318 118.06745,26.324561 123.31426,22.159805 156.97505,-9.2202 140.2811,-3.1682614 123.58715,2.8836772 46.61173,89.044662 64.20757,78.898558 81.80341,68.752453 123.22752,41.558551 137.4634,39.98168 c 14.23588,-1.576872 -16.57786,41.3465 -22.20963,57.206428 -5.63177,15.859932 52.7605,-21.657857 48.8736,-13.850792 -3.8869,7.807066 5.51302,32.692304 -11.32313,41.761994 C 135.9681,134.16901 74.166175,2.7916449 80.352592,17.062968 86.539009,31.334292 96.10494,75.873845 101.31038,75.02039 c 5.20545,-0.853455 37.93105,-6.472996 49.76861,4.165791 C 162.91654,89.824968 87.290654,54.409857 98.382272,48.219364 109.47389,42.028871 66.371263,49.037131 56.303193,55.837856 46.235124,62.638582 123.62917,-3.3364538 124.9364,7.7659264 126.24362,18.868307 152.40274,49.126787 164.46813,48.206224 176.53351,47.285662 78.225241,96.36992 79.466817,114.85601 80.708393,133.34211 107.66167,25.366932 113.7526,29.768314 119.84353,34.169696 76.872204,59.975407 72.160039,66.641931 67.447875,73.308454 146.72469,16.64472 154.57809,11.335239 162.43149,6.0257575 104.08237,101.31121 120.16551,99.468564 136.24866,97.625921 141.12201,-0.52487468 148.04953,-5.2381296 154.97704,-9.9513846 51.466444,44.773229 65.629462,36.211748 79.792479,27.650267 96.071568,6.6321731 101.03822,20.908648 106.00487,35.185122 74.212357,119.04428 73.154204,125.61533 72.096052,132.18638 71.051634,55.181315 69.888472,59.926691 68.725311,64.672067 119.29256,65.645805 110.03231,65.408805 100.77207,65.171805 79.245659,6.744077 73.808542,6.6974303 68.371425,6.6507835 136.6278,91.282109 126.67003,96.063851 116.71227,100.84559 89.846438,2.4575675 86.841566,19.865918 c -3.004873,17.408351 52.027064,6.252966 42.972334,5.184763 -9.05473,-1.068203 9.05075,64.831317 5.13449,68.596261 C 131.03214,97.411887 99.772667,35.334729 99.222242,40.662691 98.671817,45.990652 69.180416,80.622903 67.019776,94.822437 64.859136,109.02197 137.84124,81.184253 130.69133,83.7886 123.54142,86.392947 98.199179,10.074609 83.754648,13.571362 69.310118,17.068116 51.652175,83.46537 66.365377,88.593784 c 14.713202,5.128415 -19.584691,21.840046 -6.35672,25.449376 13.22797,3.60933 40.565873,-55.994355 46.936683,-54.929119 6.3708,1.065235 0.96321,-36.439914 13.98481,-24.458514 13.02159,11.9814 0.96323,74.619063 6.35269,71.983353 5.38946,-2.6357 7.94717,0.60683 14.08387,2.63815 6.13671,2.03132 -25.13263,-97.872364 -13.98481,-100.6878428 11.14782,-2.8154791 -15.54925,104.0855828 -6.05953,106.7393328 9.48972,2.65375 -3.9578,-1.39208 -14.08186,11.21865 C 97.11645,139.1579 49.638264,34.041547 60.79308,25.096326 c 11.154816,-8.945222 59.14587,83.270134 62.40184,99.847734 3.25597,16.5776 22.91118,-67.751652 17.94779,-62.874168 -4.9634,4.877484 -94.559802,26.586734 -85.3207,26.785459 9.239103,0.198725 58.95752,-78.137341 62.2273,-75.485038 3.26978,2.652303 -31.480584,66.993114 -17.94779,62.874156 13.5328,-4.118959 20.0332,-32.046195 8.6529,-35.246159 -11.380296,-3.199963 17.27732,-29.777263 15.38613,-11.64987 -1.89119,18.127392 23.62113,-10.45947 12.44943,-5.137817 -11.17171,5.321654 -95.932144,44.25053 -84.205507,45.06713 11.726637,0.8166 107.408467,-20.660512 121.151807,-9.314684 13.74334,11.345828 -13.19343,47.503541 -19.32478,61.710041 -6.13136,14.20651 15.64522,-14.06896 15.65927,5.95032 0.0141,20.01928 -60.66411,-76.219225 -52.34576,-58.269239 8.31836,17.949985 2.40144,-21.94126 1.57748,-17.30629 -0.82397,4.63497 -12.38607,67.762149 -8.91072,65.669419 3.47536,-2.09273 56.33213,-99.789226 42.80777,-84.66918 C 139.47517,48.168186 36.174631,85.381754 33.020254,94.260554 29.865877,103.13935 148.04432,38.845641 146.41154,42.910473 144.77876,46.975305 107.95558,128.3575 103.60378,127.57965 99.251978,126.80179 82.212761,79.521095 99.211702,84.680468 116.21064,89.839842 21.463593,27.357626 35.542964,31.516344 49.622335,35.675063 137.29629,96.801971 130.0554,108.36066 c -7.24088,11.5587 -4.99726,-95.894212 4.39208,-82.247175 9.38933,13.647037 -20.83942,76.213145 -7.28488,81.262675 C 140.71715,112.42569 40.094354,25.322008 32.523374,33.577464 24.952395,41.83292 146.53674,17.387807 133.37848,19.928122 120.22022,22.468436 164.59414,114.88429 147.2811,110.76355 129.96807,106.64281 153.20917,18.782215 167.78854,21.949924 182.36792,25.117632 50.03621,32.624782 67.060226,32.553625 84.084243,32.482467 79.727512,66.78142 86.289729,73.465588 92.851945,80.149756 116.53948,95.669131 134.58834,94.695293 152.6372,93.721455 113.73735,91.511161 96.198734,86.459488 78.66012,81.407815 58.30857,116.80035 70.222679,112.93093 82.136788,109.06151 190.47177,14.47097 177.14911,15.834727 163.82645,17.198484 96.763307,87.523475 97.267722,92.644635 c 0.504414,5.12116 64.023358,10.203985 70.881738,7.563395 6.85837,-2.64059 -57.55306,-38.037523 -57.33269,-18.22918 0.22038,19.80834 44.43702,7.365705 57.4417,16.138563 C 181.26315,106.89027 113.86248,0.04708442 103.99448,12.359428 94.126483,24.671772 76.381947,39.928214 58.945529,42.657776 41.509111,45.387338 86.536846,89.881155 70.311896,97.938444 54.086946,105.99573 107.74515,86.68023 103.2287,84.433071 c -4.516444,-2.24716 32.25685,37.532489 38.30241,37.085059 6.04555,-0.44744 -29.79178,-93.601204 -34.5023,-77.738045 C 102.31829,59.643243 78.983481,39.027971 74.109989,43.428643 69.236497,47.829316 77.388611,72.326958 63.466467,74.703728 49.544322,77.080497 41.638877,36.136724 36.038068,38.307091 30.437258,40.477458 158.90688,30.272119 154.28794,29.974308 149.66901,29.676497 44.785038,46.155716 46.53167,56.462154 48.278301,66.768591 163.44517,113.71808 155.02859,115.57452 146.612,117.43097 39.490544,122.0186 36.651921,126.95293 33.813298,131.88726 163.52758,32.249212 171.49767,50.372594 179.46776,68.495975 68.76688,32.216722 56.252187,44.786822 43.737494,57.356922 135.14832,117.66104 147.60646,122.27552 160.0646,126.89 127.08376,21.949811 131.16252,29.803365 c 4.07877,7.853553 -66.994765,65.300484 -61.425432,77.710075 5.569334,12.4096 -2.73485,29.57258 -15.803683,23.97986 -13.068833,-5.59272 96.563885,-44.580583 98.146195,-33.558903 1.58231,11.021683 1.11145,-80.386995 -14.12717,-67.889107 -15.23861,12.497889 -11.96018,9.777576 -12.95022,18.797207 -0.99003,9.019632 10.70027,-11.531599 20.38241,-13.392866 9.68213,-1.861268 -47.857332,48.741279 -44.97286,53.463604 2.88448,4.722325 -16.001294,37.519145 -29.896972,29.144745 -13.895677,-8.3744 45.470552,-98.331886 40.374092,-95.180711 -5.09646,3.151175 -25.415906,9.921885 -23.833191,14.120304 1.582715,4.198419 -20.976684,51.645327 -6.176724,59.993832 14.799961,8.348505 -39.834923,34.461335 -47.247432,40.463395 -7.41251,6.00207 86.987707,-10.84238 99.707217,-9.98917 12.7195,0.85321 -2.64146,-22.40374 8.23755,-12.16141 10.87901,10.24232 -78.825438,-0.72058 -69.627759,0.9575 9.19768,1.67807 44.168839,-75.567058 32.183679,-71.251058 -11.985164,4.315999 47.67451,69.490528 66.63806,65.229728 18.96356,-4.26081 -131.844496,3.09953 -131.071188,8.86347 C 40.472401,124.8678 161.04279,66.631485 146.80387,57.42379 132.56495,48.216095 29.295565,94.378811 30.572058,107.51943 31.848551,120.66005 94.545716,75.21167 89.097032,77.373572 83.648349,79.535474 56.140801,49.115284 50.796292,57.61291 45.451783,66.110536 108.63527,116.63321 116.05159,126.18354 123.46791,135.73386 72.547264,43.511673 57.526619,31.183036 42.505973,18.8544 115.06762,28.392414 102.51518,37.136852 89.962727,45.88129 30.28784,113.52411 37.263903,121.42618 c 6.976063,7.90207 138.476777,21.07247 129.625707,20.34019 -8.85107,-0.73228 -25.2364,-118.624141 -44.98654,-117.243364 -19.75015,1.380778 -52.334757,48.94069 -49.650522,61.248754 2.684234,12.308065 -3.605494,17.53499 -11.10113,30.14077 -7.495636,12.60579 -9.338973,-36.242038 -5.500274,-34.50809 3.8387,1.733948 55.908016,-70.793573 49.650516,-61.248761 -6.257493,9.544811 44.70293,1.683131 25.1541,4.501096 -19.54884,2.817965 -70.084351,33.337465 -70.05233,44.329062 0.03202,10.991597 109.08013,26.642623 104.37007,39.072623 -4.71006,12.43 -90.407084,-9.783162 -100.706692,5.31988 -10.299608,15.10303 7.32482,-41.146698 19.109756,-39.14306 11.784935,2.003639 -26.707085,28.18978 -35.690806,21.535433 -8.98372,-6.654345 91.809942,3.421289 107.430632,6.395527 15.6207,2.97423 -23.59174,-43.987622 -12.3632,-28.240364 11.22855,15.747257 -17.02036,-16.03245 -25.19184,-0.245098 -8.17148,15.787352 22.95547,-15.245979 22.39943,-10.321828 -0.55604,4.924151 41.31217,-30.111548 24.70106,-30.874487 C 147.85072,31.721524 72.780499,93.197829 62.446507,110.04348 52.112515,126.88912 42.475486,37.414591 52.673743,50.196978 62.872,62.979365 108.53846,14.663888 96.78075,27.344347 85.02304,40.024806 163.9643,39.206538 143.94706,39.006 123.92981,38.805461 37.297504,122.21321 35.316003,128.90181 33.334502,135.59042 162.70719,57.960686 151.88041,49.189139 141.05364,40.417592 20.96013,48.37216 29.161506,47.348458 37.362881,46.324756 109.71306,95.389517 93.494997,90.971121 77.276933,86.552725 40.612966,30.94173 52.483192,35.716462 64.353418,40.491194 75.388942,92.77979 70.042675,99.409796 64.696409,106.0398 63.396533,74.857435 55.431736,76.419278 47.466939,77.98112 142.93449,24.961963 137.99459,41.610653 133.05468,58.259344 123.63605,70.445457 113.69057,59.157529 103.74508,47.869601 169.91165,62.571128 158.84211,77.008435 147.77258,91.445741 78.771805,18.078085 82.895004,19.765661 87.018203,21.453238 62.195814,58.119368 77.006685,61.370605 91.817555,64.621841 15.668751,47.821505 31.857153,57.376498 48.045555,66.93149 152.25288,122.97514 148.76588,129.1086 145.27888,135.24207 37.64002,77.857616 29.50785,87.503652 21.375681,97.149688 132.16116,55.531367 136.51999,70.787078 140.87882,86.042788 64.073712,104.79566 63.125769,112.40304 62.177827,120.01042 120.60846,38.843551 134.0446,45.71871 147.48075,52.59387 89.212579,67.497595 76.497414,61.445083 63.782248,55.392571 143.76431,148.40698 140.54565,145.95174 137.327,143.4965 66.494725,114.59332 76.371362,131.39585 86.247999,148.19837 115.42415,95.153806 120.1761,95.660694 124.92806,96.167583 60.820156,22.487184 56.129879,25.010837 51.439602,27.53449 71.568166,43.160086 59.189298,35.703604 46.81043,28.247122 147.64946,85.505299 140.65971,82.249921 133.66996,78.994543 78.611892,83.688045 82.987209,98.992301 87.362527,114.29656 76.805899,65.893695 79.798992,77.488353 82.792085,89.083012 77.026941,65.860479 73.039256,68.32899 69.051571,70.797501 120.84674,43.505017 130.71176,51.586603 c 9.86503,8.081586 14.25029,40.345432 23.78408,44.986974 C 164.02963,101.21512 27.294672,85.117671 36.107222,91.876127 44.919773,98.634582 87.602228,47.930651 68.126113,53.462662 48.649999,58.994673 53.59371,53.1613 46.531664,67.119281 c -7.062045,13.957982 37.694815,38.565879 28.814927,33.070239 -8.879887,-5.495643 -33.327024,20.89056 -32.018886,38.41346 1.308137,17.5229 50.582647,-11.93747 48.340824,-8.43444 -2.241822,3.50303 57.345821,-44.901124 46.739691,-29.03442 -10.60613,15.86671 -5.86799,-22.006654 11.39317,-17.046211 C 167.06255,89.048353 40.671001,39.618841 32.654522,34.95991 c -8.016478,-4.658932 77.377128,89.43281 72.728018,101.8253 -4.64911,12.39248 -0.22096,-99.0765 -11.393169,-108.100147 -11.172214,-9.023647 3.835931,4.880237 2.036742,13.117938 -1.79919,8.2377 41.606847,23.055899 38.925237,32.941518 -2.68161,9.88562 -33.46611,-18.374032 -39.178051,-5.668624 C 90.061354,81.781304 116.4216,107.88817 100.48311,113.72089 84.544629,119.55361 63.267147,50.990022 68.648265,57.113597 74.029383,63.237171 109.45358,42.485315 107.69752,51.97104 105.94145,61.456766 150.49,76.580712 132.79727,79.390729 115.10453,82.200746 38.146618,66.026345 32.739219,78.235076 27.33182,90.443808 168.69914,146.75547 163.20279,146.71841 157.70645,146.68135 149.18077,66.163016 144.9784,62.726482 140.77604,59.289947 177.17698,118.2334 159.98966,117.04781 142.80235,115.86222 43.388126,37.331895 29.39729,37.753294 15.406453,38.174693 131.33641,113.13229 122.90433,121.61649 Z M -26.054719,-29.285629 H 185.61046 c 4.2e-4,0 7.5e-4,3.32e-4 7.5e-4,7.44e-4 V 182.38029 c 0,4.2e-4 -3.3e-4,7.5e-4 -7.5e-4,7.5e-4 H -26.054719 c -4.12e-4,0 -7.44e-4,-3.3e-4 -7.44e-4,-7.5e-4 V -29.284885 c 0,-4.12e-4 3.32e-4,-7.44e-4 7.44e-4,-7.44e-4 z" />
    <path
       style="opacity:1;fill:#77f088;fill-opacity:1;stroke:none;stroke-width:0.999999;stroke-linecap:round;stroke-linejoin:round"
       d=""
       id="path1626"
       transform="scale(0.26458333)" />
    <path
       style="opacity:1;fill:#77f088;fill-opacity:1;stroke:none;stroke-width:0.999999;stroke-linecap:round;stroke-linejoin:round"
       d=""
       id="path1628"
       transform="scale(0.26458333)" />
    <path
       style="opacity:1;fill:#f0e577;fill-opacity:1;stroke:none;stroke-width:0.999999;stroke-linecap:round;stroke-linejoin:round"
       d=""
       id="path1636"
       transform="scale(0.26458333)" />
    <path
       style="opacity:1;fill:#f0e577;fill-opacity:1;stroke:none;stroke-width:0.999999;stroke-linecap:round;stroke-linejoin:round"
       d=""
       id="path1638"
       transform="scale(0.26458333)" />
    <path
       style="opacity:1;fill:#f0e577;fill-opacity:1;stroke:none;stroke-width:1;stroke-linecap:round;stroke-linejoin:round"
       d=""
       id="path1642"
       transform="scale(0.26458333)" />
    <path
       style="opacity:1;fill:#f0e577;fill-opacity:1;stroke:none;stroke-width:1;stroke-linecap:round;stroke-linejoin:round"
       d=""
       id="path1644"
       transform="scale(0.26458333)" />
    <path
       style="opacity:1;fill:#f0e577;fill-opacity:1;stroke:none;stroke-width:1;stroke-linecap:round;stroke-linejoin:round"
       d=""
       id="path1646"
       transform="scale(0.26458333)" />
    <path
       style="opacity:1;fill:#ff0000;fill-opacity:1;stroke:none;stroke-width:1;stroke-linecap:round;stroke-linejoin:round"
       d=""
       id="path1656"
       transform="scale(0.26458333)" />
    <path
       sodipodi:type="star"
       style="opacity:1;fill:#8100ff;fill-opacity:1;stroke:none;stroke-width:0.108827;stroke-linecap:round;stroke-linejoin:round"
       id="path1772"
       sodipodi:sides="3"
       sodipodi:cx="-126.26482"
       sodipodi:cy="79.759529"
       sodipodi:r1="14.105596"
       sodipodi:r2="28.211193"
       sodipodi:arg1="0.81341678"
       sodipodi:arg2="1.8606143"
       inkscape:flatsided="false"
       inkscape:rounded="0.52"
       inkscape:randomized="1.336"
       d="m -111.44061,58.626362 c 3.9758,11.343912 -18.00415,57.623518 -32.69233,50.146548 -14.68818,-7.47697 46.666401,-28.875048 30.66652,-37.860217 -15.99989,-8.985169 -68.56759,23.727855 -61.47669,7.121247 7.0909,-16.606609 21.15059,4.802586 22.9312,-7.616584 1.78061,-12.41917 81.328077,2.576405 73.341211,19.954735 -7.986866,17.378329 -36.745721,-43.089642 -32.769911,-31.745729 z"
       inkscape:transform-center-x="99.159997"
       inkscape:transform-center-y="134.48222"
       transform="matrix(1.4212386,2.0332357,1.9528992,-1.3650832,125.16535,477.25976)" />
    <path
       style="opacity:1;fill:#8100ff;fill-opacity:1;stroke:none;stroke-width:1;stroke-linecap:round;stroke-linejoin:round"
       d="M 358.08543,562.63375 C 252.69557,461.38675 173.00459,350.69758 168.99936,299.99701 c -1.03688,-13.12539 0.85424,-18.44423 10.41105,-29.28148 10.4102,-11.80496 14.62625,-20.25391 14.62625,-29.31089 0,-14.20613 -7.65378,-22.83343 -41.7193,-47.02584 -30.6642,-21.77687 -46.69482,-37.3402 -53.738364,-52.1719 -6.650144,-14.00331 -8.509463,-25.55409 -6.337674,-39.37197 4.305966,-27.396458 24.404178,-61.696248 38.967718,-66.502648 10.79868,-3.563889 23.6373,8.069072 35.93624,32.561525 12.70027,25.291672 26.91064,66.968833 53.76469,157.684813 21.52924,72.72818 33.40268,110.76523 44.14533,141.42135 27.46681,78.38157 55.95333,135.32183 84.05399,168.01126 10.08831,11.7357 26.71068,25.23318 37.48488,30.43799 l 8.00262,3.86591 -5.8813,7.30972 c -3.23473,4.02034 -6.19952,7.3359 -6.58843,7.36792 -0.38891,0.032 -11.20764,-10.02953 -24.04163,-22.35902 z"
       id="path1774"
       transform="scale(0.26458333)" />
    <path
       sodipodi:type="star"
       style="opacity:1;fill:url(#radialGradient1799);fill-opacity:1;stroke:none;stroke-width:0.264583;stroke-linecap:round;stroke-linejoin:round"
       id="path1791"
       sodipodi:sides="23"
       sodipodi:cx="59.195297"
       sodipodi:cy="49.928253"
       sodipodi:r1="21.895557"
       sodipodi:r2="10.947777"
       sodipodi:arg1="0.74749825"
       sodipodi:arg2="0.88408923"
       inkscape:flatsided="false"
       inkscape:rounded="3.47"
       inkscape:randomized="3.162"
       d="m 141.33852,60.359224 c -6.78444,-1.242885 -22.61534,27.33049 -14.87444,25.215491 7.74089,-2.114999 -26.15577,16.655795 -9.69555,36.432735 16.46022,19.77694 -74.931188,28.73139 -47.754311,-8.59172 C 96.191096,76.092609 8.9908215,156.22363 20.592108,105.65045 32.193395,55.077266 -8.6444023,92.272892 -1.3106632,78.787717 6.0230758,65.302542 85.842395,115.30225 43.531565,42.907055 1.2207356,-29.488135 38.798887,125.9023 96.483605,70.469088 154.16832,15.035872 127.17278,2.2850028 48.338717,42.363506 -30.495343,82.44201 116.70284,58.68278 112.17811,83.727372 107.65338,108.77196 61.849247,126.6944 52.35784,83.440088 42.866433,40.185779 11.264764,82.00003 5.1562913,80.594412 -0.95218177,79.188794 -5.4570848,-3.2005956 -3.9719301,-3.2072439 -2.4867755,-3.2138922 25.785868,58.576264 5.064073,98.825243 -15.657722,139.07422 -20.585501,110.06133 -4.8577351,62.001253 10.87003,13.941178 -8.7597215,-49.129311 -13.539377,34.799015 -18.319033,118.72734 45.974004,-20.520115 2.7872417,49.489125 -40.399521,119.49837 6.8389982,0.55386625 23.538483,11.065155 40.237968,21.576445 -6.1108365,105.542 -1.8719696,50.135879 2.3668973,-5.270237 38.625829,22.574413 14.075724,2.4390748 -10.47438,-17.696263 43.894952,-17.828417 44.145072,-18.003556 44.395192,-18.178695 -11.995518,8.2463198 -12.57603,9.4315985 -13.156541,10.616877 95.516029,0.95471035 35.698101,-10.96543 -24.119827,-22.88557 46.613672,-13.541432 4.8417368,20.785643 -36.930199,55.112718 119.295,-4.424447 112.69142,-5.5292827 106.08784,-6.6341185 127.13329,7.8303903 90.090599,6.585487 53.04791,5.3405836 40.836818,18.733297 43.259666,20.098554 45.682513,21.463812 -0.26288674,13.085486 -11.483499,3.4622913 -22.704111,-6.1609036 36.407835,49.651398 45.577758,55.321169 54.747681,60.99094 -11.843181,92.464664 -8.8912354,71.520966 -5.9392895,50.577269 61.382292,23.916163 50.796376,23.600571 40.21046,23.28498 73.017601,-57.606403 31.000786,-0.9674355 -11.016028,55.671533 129.04194,-16.671719 122.2862,-1.7339394 115.53045,13.203841 98.108989,-6.1532777 114.90474,-16.729552 131.70049,-27.305827 104.2742,-22.895085 70.764787,67.025371 37.255375,156.94583 -8.6972608,63.619354 35.770828,-5.2507087 80.238918,-74.120772 115.08863,98.900108 133.42693,101.97175 151.76523,105.04339 100.51478,35.23945 9.8439756,31.094804 -80.826824,26.950159 48.853972,47.428481 39.488501,5.0387212 30.123031,-37.351039 3.2648515,2.0439166 2.2902572,13.061016 1.3156628,24.078116 83.163686,63.416064 66.069483,-17.937046 48.975279,-99.290156 95.60697,43.794229 37.16947,23.177402 -21.268029,2.5605752 93.159002,116.64855 89.697893,117.12494 86.236783,117.60133 36.393471,-29.47532 53.509712,-3.2857391 70.625953,22.903842 42.793968,39.046298 47.591708,58.065406 52.389448,77.084515 31.034051,114.59185 53.929599,93.725974 76.825146,72.860093 148.12295,61.602108 141.33852,60.359224 Z"
       inkscape:transform-center-x="3.3293346"
       inkscape:transform-center-y="-4.161028"
       transform="translate(49.406049,48.493093)" />
    <path
       style="opacity:1;fill:#410080;fill-opacity:1;stroke:none;stroke-width:1;stroke-linecap:round;stroke-linejoin:round"
       d="M 356.64919,561.24965 C 251.66844,460.06707 172.99136,350.53008 168.99936,299.99701 c -1.03994,-13.1641 0.72399,-18.02604 10.98439,-30.27649 11.09138,-13.24261 14.05291,-19.28384 14.05291,-28.66655 0,-14.06052 -7.90408,-22.74594 -43.96571,-48.31187 -28.36785,-20.1114 -44.62484,-36.075 -51.51643,-50.58674 -6.474939,-13.63438 -8.4956,-26.05457 -6.417695,-39.44699 4.161218,-26.8197 24.642825,-61.61396 39.072215,-66.376088 10.79868,-3.563889 23.6373,8.069072 35.93624,32.561525 12.75592,25.40249 26.86204,66.803533 54.44899,159.806133 30.40368,102.49849 44.32962,144.72723 62.96008,190.91883 32.27828,80.0295 66.04333,128.55956 102.09994,146.74689 l 7.90941,3.98959 -5.86476,7.28965 c -3.22562,4.00931 -6.19288,7.32278 -6.59391,7.36326 -0.40103,0.0405 -11.85616,-10.65085 -25.45584,-23.75851 z"
       id="path1776"
       transform="scale(0.26458333)" />
    <path
       style="opacity:1;fill:#7d00f7;fill-opacity:1;stroke:none;stroke-width:0.264583;stroke-linecap:round;stroke-linejoin:round"
       d="m 120.0177,123.68153 c 0.13847,-5.71858 -0.34221,-18.44778 -1.28825,-34.114773 -0.81923,-13.566981 -1.09602,-31.828121 -0.56425,-37.227049 0.8146,-8.270428 2.20182,-12.488474 4.91263,-14.937523 1.33311,-1.204384 1.70244,-1.342787 3.58325,-1.342787 3.0645,0 6.40633,1.697598 9.51038,4.831125 2.76175,2.78797 4.42448,5.675228 5.62319,9.764453 1.16263,3.966086 1.43976,13.798375 0.55937,19.844996 -2.32425,15.963029 -9.7199,35.733678 -20.87353,55.800798 l -1.59573,2.87096 z"
       id="path1778" />
    <path
       style="opacity:1;fill:#7b00f2;fill-opacity:1;stroke:none;stroke-width:1;stroke-linecap:round;stroke-linejoin:round"
       d="m 404.04737,571.39987 c -1.55563,-0.34422 -3.65782,-0.89983 -4.67153,-1.23468 -1.21814,-0.40239 0.96538,-4.33045 6.43955,-11.58446 12.48919,-16.54987 22.84536,-31.63528 35.68979,-51.98783 l 11.60258,-18.38477 -0.94252,11.3137 c -2.35427,28.2602 -9.93748,52.58686 -19.5612,62.75165 -7.71703,8.15089 -18.04639,11.45205 -28.55667,9.12639 z"
       id="path1780"
       transform="scale(0.26458333)" />
    <path
       style="opacity:1;fill:#880eff;fill-opacity:1;stroke:none;stroke-width:1;stroke-linecap:round;stroke-linejoin:round"
       d="m 307.88085,645.55923 c 21.35324,-7.77473 35.95472,-18.22019 60.63058,-43.37334 l 13.96153,-14.23158 13.61563,12.36066 c 7.4886,6.79836 21.49718,19.03397 31.13017,27.19025 l 17.51453,14.8296 -5.49371,0.88973 c -3.02155,0.48936 -17.26705,1.31567 -31.65667,1.83626 -14.38963,0.52059 -35.0725,1.51989 -45.96194,2.22067 -10.88945,0.70078 -30.29953,1.64266 -43.13352,2.09307 l -23.33452,0.81892 z"
       id="path1782"
       transform="scale(0.26458333)" />
    <path
       style="opacity:1;fill:#410080;fill-opacity:1;stroke:none;stroke-width:1;stroke-linecap:round;stroke-linejoin:round"
       d="M 647.2921,756.96067 C 603.64755,748.96278 540.67264,714.40456 468.39409,658.78829 l -17.67767,-13.60246 18.38478,-1.11555 c 21.04221,-1.2768 90.43795,-0.14417 116.67262,1.90425 54.09496,4.22377 93.82645,12.8612 114.2695,24.84163 8.09063,4.74142 18.26073,14.03041 20.85597,19.04905 7.89957,15.27608 3.19608,36.46303 -11.60842,52.29023 -14.1625,15.14085 -34.13741,19.91084 -61.99877,14.80523 z"
       id="path1784"
       transform="scale(0.26458333)" />
  </g>
</svg>
