<?xml version="1.0" encoding="UTF-8" standalone="no"?>
<svg
   xmlns:dc="http://purl.org/dc/elements/1.1/"
   xmlns:cc="http://creativecommons.org/ns#"
   xmlns:rdf="http://www.w3.org/1999/02/22-rdf-syntax-ns#"
   xmlns:svg="http://www.w3.org/2000/svg"
   xmlns="http://www.w3.org/2000/svg"
   xmlns:sodipodi="http://sodipodi.sourceforge.net/DTD/sodipodi-0.dtd"
   xmlns:inkscape="http://www.inkscape.org/namespaces/inkscape"
   width="800"
   height="300"
   viewBox="0 0 211.66666 79.375005"
   version="1.1"
   id="svg8"
   inkscape:version="1.0.2 (e86c870879, 2021-01-15)"
   sodipodi:docname="drawing1.svg"
   inkscape:export-filename="/home/vijay/.emacs.d/drawing.png"
   inkscape:export-xdpi="96"
   inkscape:export-ydpi="96">
  <defs
     id="defs2">
    <inkscape:path-effect
       effect="bspline"
       id="path-effect1152"
       is_visible="true"
       lpeversion="1"
       weight="33.333333"
       steps="2"
       helper_size="0"
       apply_no_weight="true"
       apply_with_weight="true"
       only_selected="false" />
    <inkscape:path-effect
       effect="bspline"
       id="path-effect1130"
       is_visible="true"
       lpeversion="1"
       weight="33.333333"
       steps="2"
       helper_size="0"
       apply_no_weight="true"
       apply_with_weight="true"
       only_selected="false" />
    <inkscape:path-effect
       effect="bspline"
       id="path-effect1128"
       is_visible="true"
       lpeversion="1"
       weight="33.333333"
       steps="2"
       helper_size="0"
       apply_no_weight="true"
       apply_with_weight="true"
       only_selected="false" />
    <inkscape:path-effect
       effect="bspline"
       id="path-effect1126"
       is_visible="true"
       lpeversion="1"
       weight="33.333333"
       steps="2"
       helper_size="0"
       apply_no_weight="true"
       apply_with_weight="true"
       only_selected="false" />
    <inkscape:path-effect
       effect="bspline"
       id="path-effect1111"
       is_visible="true"
       lpeversion="1"
       weight="33.333333"
       steps="2"
       helper_size="0"
       apply_no_weight="true"
       apply_with_weight="true"
       only_selected="false" />
    <inkscape:path-effect
       effect="bspline"
       id="path-effect1253"
       is_visible="true"
       lpeversion="1"
       weight="33.333333"
       steps="2"
       helper_size="0"
       apply_no_weight="true"
       apply_with_weight="true"
       only_selected="false" />
    <inkscape:path-effect
       effect="bspline"
       id="path-effect1249"
       is_visible="true"
       lpeversion="1"
       weight="33.333333"
       steps="2"
       helper_size="0"
       apply_no_weight="true"
       apply_with_weight="true"
       only_selected="false" />
    <inkscape:path-effect
       effect="bspline"
       id="path-effect1245"
       is_visible="true"
       lpeversion="1"
       weight="33.333333"
       steps="2"
       helper_size="0"
       apply_no_weight="true"
       apply_with_weight="true"
       only_selected="false" />
    <inkscape:path-effect
       effect="bspline"
       id="path-effect1237"
       is_visible="true"
       lpeversion="1"
       weight="33.333333"
       steps="2"
       helper_size="0"
       apply_no_weight="true"
       apply_with_weight="true"
       only_selected="false" />
    <inkscape:path-effect
       effect="spiro"
       id="path-effect1233"
       is_visible="true"
       lpeversion="1" />
    <inkscape:path-effect
       effect="spiro"
       id="path-effect1229"
       is_visible="true"
       lpeversion="1" />
    <inkscape:path-effect
       effect="spiro"
       id="path-effect1201"
       is_visible="true"
       lpeversion="1" />
    <style
       type="text/css"
       id="style981" />
  </defs>
  <sodipodi:namedview
     id="base"
     pagecolor="#ffffff"
     bordercolor="#666666"
     borderopacity="1.0"
     inkscape:pageopacity="0.0"
     inkscape:pageshadow="2"
     inkscape:zoom="2"
     inkscape:cx="386.15254"
     inkscape:cy="255.53909"
     inkscape:document-units="px"
     inkscape:current-layer="layer1"
     inkscape:document-rotation="0"
     showgrid="false"
     units="px"
     inkscape:object-nodes="false"
     inkscape:snap-smooth-nodes="false"
     inkscape:snap-intersection-paths="true"
     inkscape:object-paths="true"
     inkscape:snap-object-midpoints="true"
     showguides="true"
     inkscape:guide-bbox="true"
     inkscape:snap-others="true"
     inkscape:snap-center="false"
     inkscape:snap-nodes="true"
     inkscape:snap-global="true"
     inkscape:snap-midpoints="true"
     inkscape:window-width="1366"
     inkscape:window-height="768"
     inkscape:window-x="0"
     inkscape:window-y="0"
     inkscape:window-maximized="1" />
  <metadata
     id="metadata5">
    <rdf:RDF>
      <cc:Work
         rdf:about="">
        <dc:format>image/svg+xml</dc:format>
        <dc:type
           rdf:resource="http://purl.org/dc/dcmitype/StillImage" />
        <dc:title />
      </cc:Work>
    </rdf:RDF>
  </metadata>
  <g
     inkscape:label="Layer 1"
     inkscape:groupmode="layer"
     id="layer1">
    <g
       id="g1282"
       transform="translate(3.5011153,11.29376)">
      <path
         style="fill:none;stroke:#ebdbb2;stroke-width:2.38125;stroke-linecap:round;stroke-linejoin:round;stroke-miterlimit:4;stroke-dasharray:none;stroke-opacity:1"
         d="m 131.41056,47.901553 c 28.72975,-0.08338 29.142,0.0011 29.142,0.0011"
         id="path916"
         inkscape:transform-center-x="-20.64303"
         inkscape:transform-center-y="0.1288922" />
      <path
         style="fill:none;stroke:#ebdbb2;stroke-width:2.38125;stroke-linecap:round;stroke-linejoin:round;stroke-miterlimit:4;stroke-dasharray:none;stroke-opacity:1"
         d="m 72.957034,47.878672 c -28.437106,-0.08338 -28.845156,0.0011 -28.845156,0.0011"
         id="path990"
         inkscape:transform-center-x="-20.432761"
         inkscape:transform-center-y="0.1288922" />
      <path
         style="fill:none;stroke:#ebdbb2;stroke-width:2.38125;stroke-linecap:round;stroke-linejoin:round;stroke-miterlimit:4;stroke-dasharray:none;stroke-opacity:1"
         d="m 129.72593,38.818043 c 27.48733,-9.031776 27.88263,-9.005121 27.88263,-9.005121"
         id="path1004"
         inkscape:transform-center-x="-19.558613"
         inkscape:transform-center-y="-6.312468" />
      <path
         style="fill:none;stroke:#ebdbb2;stroke-width:2.38125;stroke-linecap:round;stroke-linejoin:round;stroke-miterlimit:4;stroke-dasharray:none;stroke-opacity:1"
         d="M 118.08189,23.048833 C 133.08601,-1.4262741 132.99146,-1.77783 132.99146,-1.77783"
         id="path1006"
         inkscape:transform-center-x="-10.458522"
         inkscape:transform-center-y="-17.403155" />
      <path
         style="fill:none;stroke:#ebdbb2;stroke-width:2.38125;stroke-linecap:round;stroke-linejoin:round;stroke-miterlimit:4;stroke-dasharray:none;stroke-opacity:1"
         d="M 125.38503,29.670802 C 147.926,12.283908 148.29468,12.084117 148.29468,12.084117"
         id="path1008"
         inkscape:transform-center-x="-16.07026"
         inkscape:transform-center-y="-12.328031" />
      <path
         style="fill:none;stroke:#ebdbb2;stroke-width:2.38125;stroke-linecap:round;stroke-linejoin:round;stroke-miterlimit:4;stroke-dasharray:none;stroke-opacity:1"
         d="m 108.18219,19.057279 c 5.60538,-27.9591239 5.69063,-28.3280198 5.69063,-28.3280198"
         id="path1010"
         inkscape:transform-center-x="-3.9917634"
         inkscape:transform-center-y="-19.857562" />
      <path
         style="fill:none;stroke:#ebdbb2;stroke-width:2.38125;stroke-linecap:round;stroke-linejoin:round;stroke-miterlimit:4;stroke-dasharray:none;stroke-opacity:1"
         d="M 96.950093,18.754404 C 91.799845,-9.2821795 91.779787,-9.7022016 91.779787,-9.7022016"
         id="path1012"
         inkscape:transform-center-x="3.6267794"
         inkscape:transform-center-y="-19.947696" />
      <path
         style="fill:none;stroke:#ebdbb2;stroke-width:2.38125;stroke-linecap:round;stroke-linejoin:round;stroke-miterlimit:4;stroke-dasharray:none;stroke-opacity:1"
         d="M 86.73606,22.94314 C 71.930423,-1.0794381 71.80896,-1.437409 71.80896,-1.437409"
         id="path1014"
         inkscape:transform-center-x="10.47081"
         inkscape:transform-center-y="-17.09044" />
      <path
         style="fill:none;stroke:#ebdbb2;stroke-width:2.38125;stroke-linecap:round;stroke-linejoin:round;stroke-miterlimit:4;stroke-dasharray:none;stroke-opacity:1"
         d="M 79.094068,29.571533 C 57.234922,12.126966 56.969026,11.837215 56.969026,11.837215"
         id="path1016"
         inkscape:transform-center-x="15.519882"
         inkscape:transform-center-y="-12.431519" />
      <path
         style="fill:none;stroke:#ebdbb2;stroke-width:2.38125;stroke-linecap:round;stroke-linejoin:round;stroke-miterlimit:4;stroke-dasharray:none;stroke-opacity:1"
         d="M 74.612687,39.09364 C 47.110584,30.361548 46.736859,30.165758 46.736859,30.165758"
         id="path1018"
         inkscape:transform-center-x="19.553843"
         inkscape:transform-center-y="-6.2583207" />
    </g>
    <g
       aria-label="Risemacs"
       id="text1006"
       style="font-style:normal;font-variant:normal;font-weight:normal;font-stretch:normal;font-size:7.50244px;line-height:1.25;font-family:file-icons;-inkscape-font-specification:'file-icons, Normal';font-variant-ligatures:normal;font-variant-caps:normal;font-variant-numeric:normal;font-variant-east-asian:normal;fill:#000000;fill-opacity:1;stroke:none;stroke-width:0.264583" />
    <path
       style="fill:#fabd2f;fill-opacity:1;stroke:#fabd2f;stroke-width:2.11666;stroke-linecap:round;stroke-linejoin:round;stroke-miterlimit:4;stroke-dasharray:none;stroke-opacity:1"
       id="path1270"
       sodipodi:type="arc"
       sodipodi:cx="105.83334"
       sodipodi:cy="58.86232"
       sodipodi:rx="22.321869"
       sodipodi:ry="22.587286"
       sodipodi:start="3.1415927"
       sodipodi:end="0"
       sodipodi:arc-type="slice"
       d="M 83.511475,58.86232 A 22.321869,22.587286 0 0 1 105.83334,36.275034 22.321869,22.587286 0 0 1 128.15521,58.86232 h -22.32187 z" />
    <path
       id="path1031"
       style="font-style:normal;font-variant:normal;font-weight:normal;font-stretch:normal;font-size:7.50244px;line-height:1.25;font-family:file-icons;-inkscape-font-specification:'file-icons, Normal';font-variant-ligatures:normal;font-variant-caps:normal;font-variant-numeric:normal;font-variant-east-asian:normal;fill:#282828;fill-opacity:1;stroke:none;stroke-width:0.264583"
       d="m 125.38976,59.966367 h 1.61851 c -0.01,-0.116025 8e-4,-0.218366 -0.0212,-0.342615 -0.0537,-0.302834 -0.14666,-0.647144 -0.27854,-1.033012 -0.083,-0.244219 -0.17309,-0.476282 -0.27078,-0.696082 -0.0977,-0.214913 -0.17838,-0.41774 -0.24185,-0.608232 -0.0637,-0.195374 -0.0982,-0.378365 -0.10283,-0.54932 -0.01,-0.170953 0.037,-0.332274 0.13952,-0.48369 0.21492,-0.327255 0.45925,-0.376328 0.73277,-0.146762 0.13921,0.112342 0.19566,0.251148 0.17002,0.415997 -0.0256,0.164848 -0.13352,0.355734 -0.32401,0.57309 l 0.15399,0.102835 c 0.22932,0.02916 0.42496,-0.01701 0.58601,-0.139009 0.16119,-0.117224 0.27579,-0.261578 0.34417,-0.43253 0.0733,-0.170956 0.0926,-0.346893 0.0584,-0.527617 -0.0342,-0.175839 -0.13652,-0.307406 -0.30748,-0.395324 -0.22468,-0.117226 -0.4433,-0.194691 -0.65577,-0.232545 -0.21247,-0.03785 -0.41883,-0.03635 -0.61909,0.0052 -0.40052,0.08303 -0.73257,0.273593 -0.99632,0.571543 -0.13188,0.146531 -0.24262,0.314573 -0.33176,0.503843 -0.0891,0.189272 -0.15669,0.399994 -0.20309,0.632005 -0.044,0.229566 -0.055,0.466659 -0.0331,0.7121 0.022,0.24544 0.0769,0.498845 0.16485,0.760161 0.0733,0.219797 0.14922,0.441944 0.22737,0.666625 0.08,0.21666 0.14187,0.431255 0.19017,0.643372 z" />
    <path
       id="path1103"
       style="font-style:normal;font-variant:normal;font-weight:normal;font-stretch:normal;font-size:7.50244px;line-height:1.25;font-family:file-icons;-inkscape-font-specification:'file-icons, Normal';font-variant-ligatures:normal;font-variant-caps:normal;font-variant-numeric:normal;font-variant-east-asian:normal;fill:#fabd2f;fill-opacity:1;stroke:none;stroke-width:0.264583"
       d="m 123.73664,59.966367 c -0.0796,0.03203 -0.17291,0.04768 -0.24443,0.0894 -0.17584,0.102573 -0.32724,0.227089 -0.45424,0.373621 -0.13188,0.151415 -0.24413,0.317436 -0.33693,0.49816 -0.27353,0.522631 -0.31033,0.955172 -0.11007,1.29708 0.20026,0.341908 0.5182,0.564052 0.95291,0.666626 0.43472,0.102571 0.92522,0.06863 1.47226,-0.10232 0.54706,-0.170955 1.03337,-0.510567 1.45831,-1.018543 0.17096,-0.20026 0.30252,-0.405437 0.39533,-0.615466 0.0928,-0.214913 0.14893,-0.446976 0.16846,-0.696081 0.0115,-0.149781 -0.016,-0.32571 -0.03,-0.492477 h -1.61851 c 0.002,0.0079 0.006,0.01593 0.007,0.02376 0.0489,0.219798 0.0734,0.434375 0.0734,0.644404 0,0.205144 -0.0415,0.40092 -0.12454,0.586528 -0.14653,0.322371 -0.34179,0.573752 -0.58601,0.754475 -0.23933,0.180742 -0.45156,0.273669 -0.63717,0.278538 -0.10013,0.0049 -0.18046,-0.01495 -0.24029,-0.05891 -0.0598,-0.04396 -0.0993,-0.112353 -0.11886,-0.205156 -0.0439,-0.190492 -0.0293,-0.410286 0.0439,-0.659392 0.0733,-0.249105 0.19308,-0.498136 0.35915,-0.747241 0.17095,-0.249103 0.36856,-0.429744 0.59324,-0.542086 0.0391,-0.01953 0.0759,-0.04407 0.11007,-0.07338 2.7e-4,-2.65e-4 -2.6e-4,-0.0013 0,-0.0016 z" />
    <path
       id="path1101"
       style="font-style:normal;font-variant:normal;font-weight:normal;font-stretch:normal;font-size:7.50244px;line-height:1.25;font-family:file-icons;-inkscape-font-specification:'file-icons, Normal';font-variant-ligatures:normal;font-variant-caps:normal;font-variant-numeric:normal;font-variant-east-asian:normal;fill:#282828;fill-opacity:1;stroke:none;stroke-width:0.264583"
       d="m 123.73664,59.966367 h 1.13326 c 0.0331,-0.03419 0.0262,-0.08474 -0.0222,-0.152445 -0.27841,-0.02931 -0.52979,-0.02175 -0.75448,0.02222 -0.13329,0.02609 -0.24046,0.08352 -0.35657,0.130225 z" />
    <path
       id="path1099"
       style="font-style:normal;font-variant:normal;font-weight:normal;font-stretch:normal;font-size:7.50244px;line-height:1.25;font-family:file-icons;-inkscape-font-specification:'file-icons, Normal';font-variant-ligatures:normal;font-variant-caps:normal;font-variant-numeric:normal;font-variant-east-asian:normal;fill:#282828;fill-opacity:1;stroke:none;stroke-width:0.264583"
       d="m 117.44038,59.966367 c 0.0131,0.05724 0.0165,0.126153 0.0331,0.179318 0.0537,0.172175 0.12565,0.322731 0.21601,0.452168 0.0928,0.131879 0.19481,0.240602 0.30593,0.326078 0.11112,0.08548 0.23126,0.147995 0.3607,0.187068 0.26376,0.07327 0.54959,0.05108 0.85731,-0.06615 0.15386,-0.05861 0.30526,-0.144301 0.45423,-0.257865 0.14898,-0.113562 0.29568,-0.254717 0.43977,-0.42323 l -0.0951,-0.08061 c -0.25398,0.268642 -0.50588,0.41483 -0.75499,0.439248 -0.2491,0.01953 -0.47124,-0.03894 -0.66662,-0.175699 -0.19049,-0.136763 -0.34425,-0.329671 -0.46147,-0.578776 -2.4e-4,-5.29e-4 -2.7e-4,-0.0011 -5.3e-4,-0.0016 z" />
    <path
       id="path1097"
       style="font-style:normal;font-variant:normal;font-weight:normal;font-stretch:normal;font-size:7.50244px;line-height:1.25;font-family:file-icons;-inkscape-font-specification:'file-icons, Normal';font-variant-ligatures:normal;font-variant-caps:normal;font-variant-numeric:normal;font-variant-east-asian:normal;fill:#282828;fill-opacity:1;stroke:none;stroke-width:0.264583"
       d="m 117.44038,59.966367 h 0.68833 c -0.11675,-0.253505 -0.17518,-0.514281 -0.17518,-0.782381 0.005,-0.210029 0.0365,-0.415205 0.0951,-0.615466 0.0586,-0.20026 0.12935,-0.361582 0.21239,-0.483693 0.25887,-0.390752 0.5301,-0.569044 0.81339,-0.53485 0.14409,0.01709 0.26306,0.04835 0.35708,0.09353 0.094,0.04518 0.16327,0.104503 0.20722,0.177768 0.10259,0.161185 0.13652,0.37628 0.10232,0.644922 -0.0342,0.263758 -0.19499,0.475986 -0.48317,0.63717 l 0.0584,0.09509 c 0.21003,-0.06838 0.39303,-0.180631 0.54933,-0.336931 0.15141,-0.151416 0.26366,-0.317439 0.33692,-0.49816 0.0781,-0.180724 0.1079,-0.359013 0.0884,-0.534853 -0.0147,-0.175837 -0.0859,-0.314973 -0.21291,-0.417544 -0.21979,-0.170955 -0.48109,-0.227079 -0.78393,-0.168466 -0.30283,0.0635 -0.59572,0.204984 -0.87901,0.424781 -0.27842,0.214913 -0.52039,0.490834 -0.72554,0.827855 -0.20025,0.337026 -0.30779,0.693605 -0.32246,1.069702 0.0118,0.148553 0.0441,0.273394 0.0734,0.401527 z" />
    <path
       id="path1095"
       style="font-style:normal;font-variant:normal;font-weight:normal;font-stretch:normal;font-size:7.50244px;line-height:1.25;font-family:file-icons;-inkscape-font-specification:'file-icons, Normal';font-variant-ligatures:normal;font-variant-caps:normal;font-variant-numeric:normal;font-variant-east-asian:normal;fill:#fabd2f;fill-opacity:1;stroke:none;stroke-width:0.264583"
       d="m 115.66736,59.966367 v 1.107942 l 3.2458,1.875857 3.25303,-1.875857 v -1.107942 h -0.51263 v 0.814938 l -2.7404,1.575096 -2.73265,-1.575096 v -0.814938 z" />
    <path
       id="path1093"
       style="font-style:normal;font-variant:normal;font-weight:normal;font-stretch:normal;font-size:7.50244px;line-height:1.25;font-family:file-icons;-inkscape-font-specification:'file-icons, Normal';font-variant-ligatures:normal;font-variant-caps:normal;font-variant-numeric:normal;font-variant-east-asian:normal;fill:#282828;fill-opacity:1;stroke:none;stroke-width:0.264583"
       d="m 115.66736,59.966367 h 0.51315 v -2.34301 l 2.73265,-1.575096 2.7404,1.575096 v 2.34301 h 0.51263 v -2.643249 l -3.25303,-1.875856 -3.2458,1.875856 z" />
    <path
       id="path1091"
       style="font-style:normal;font-variant:normal;font-weight:normal;font-stretch:normal;font-size:7.50244px;line-height:1.25;font-family:file-icons;-inkscape-font-specification:'file-icons, Normal';font-variant-ligatures:normal;font-variant-caps:normal;font-variant-numeric:normal;font-variant-east-asian:normal;fill:#fabd2f;fill-opacity:1;stroke:none;stroke-width:0.264583"
       d="m 111.11673,59.966367 3.62769,2.822567 c 0.21003,0.195376 0.43452,0.222266 0.67386,0.08062 0.11967,-0.07082 0.19563,-0.155856 0.22738,-0.254765 0.0317,-0.09891 0.0195,-0.212003 -0.0367,-0.338997 l -0.99839,-2.309421 h -0.97617 l 0.5457,1.298628 -1.71152,-1.298628 z" />
    <path
       id="path1089"
       style="font-style:normal;font-variant:normal;font-weight:normal;font-stretch:normal;font-size:7.50244px;line-height:1.25;font-family:file-icons;-inkscape-font-specification:'file-icons, Normal';font-variant-ligatures:normal;font-variant-caps:normal;font-variant-numeric:normal;font-variant-east-asian:normal;fill:#fabd2f;fill-opacity:1;stroke:none;stroke-width:0.264583"
       d="m 110.0615,59.966367 -1.26607,2.924887 h 1.05472 l 1.21904,-2.924887 z" />
    <path
       id="path1087"
       style="font-style:normal;font-variant:normal;font-weight:normal;font-stretch:normal;font-size:7.50244px;line-height:1.25;font-family:file-icons;-inkscape-font-specification:'file-icons, Normal';font-variant-ligatures:normal;font-variant-caps:normal;font-variant-numeric:normal;font-variant-east-asian:normal;fill:#282828;fill-opacity:1;stroke:none;stroke-width:0.264583"
       d="m 110.0615,59.966367 h 1.00769 l 0.0119,-0.02791 0.0357,0.02791 h 1.35185 l -1.05058,-0.796851 0.9307,-2.263945 1.28571,3.060796 h 0.97616 l -1.82986,-4.233334 c -0.0781,-0.190492 -0.22434,-0.285771 -0.43925,-0.285771 -0.21491,0 -0.36397,0.09528 -0.447,0.285771 z" />
    <path
       id="path1085"
       style="font-style:normal;font-variant:normal;font-weight:normal;font-stretch:normal;font-size:7.50244px;line-height:1.25;font-family:file-icons;-inkscape-font-specification:'file-icons, Normal';font-variant-ligatures:normal;font-variant-caps:normal;font-variant-numeric:normal;font-variant-east-asian:normal;fill:#fabd2f;fill-opacity:1;stroke:none;stroke-width:0.264583"
       d="m 107.47406,59.966367 c 5.3e-4,0.02241 0.006,0.03734 0.006,0.06046 v 2.454114 h 0.67748 v -2.476336 c 0,-0.01442 -0.005,-0.024 -0.005,-0.03824 z" />
    <path
       id="path1083"
       style="font-style:normal;font-variant:normal;font-weight:normal;font-stretch:normal;font-size:7.50244px;line-height:1.25;font-family:file-icons;-inkscape-font-specification:'file-icons, Normal';font-variant-ligatures:normal;font-variant-caps:normal;font-variant-numeric:normal;font-variant-east-asian:normal;fill:#fabd2f;fill-opacity:1;stroke:none;stroke-width:0.264583"
       d="m 104.81789,59.966367 c 5.3e-4,0.02249 0.006,0.03727 0.006,0.06046 v 2.454114 h 0.67799 V 60.16222 c 0,-0.07299 0.0212,-0.128461 0.0279,-0.195855 z" />
    <path
       id="path1081"
       style="font-style:normal;font-variant:normal;font-weight:normal;font-stretch:normal;font-size:7.50244px;line-height:1.25;font-family:file-icons;-inkscape-font-specification:'file-icons, Normal';font-variant-ligatures:normal;font-variant-caps:normal;font-variant-numeric:normal;font-variant-east-asian:normal;fill:#fabd2f;fill-opacity:1;stroke:none;stroke-width:0.264583"
       d="m 102.16844,59.966367 v 2.514576 h 0.67748 v -2.318721 c 0,-0.07289 0.0211,-0.128532 0.0279,-0.195855 z" />
    <path
       id="path1079"
       style="font-style:normal;font-variant:normal;font-weight:normal;font-stretch:normal;font-size:7.50244px;line-height:1.25;font-family:file-icons;-inkscape-font-specification:'file-icons, Normal';font-variant-ligatures:normal;font-variant-caps:normal;font-variant-numeric:normal;font-variant-east-asian:normal;fill:#282828;fill-opacity:1;stroke:none;stroke-width:0.264583"
       d="m 102.16844,59.966367 h 0.70539 c 0.0303,-0.30035 0.11036,-0.559779 0.27595,-0.749308 0.20271,-0.234453 0.47627,-0.351917 0.82062,-0.351917 0.14531,0 0.27185,0.02421 0.37931,0.07183 0.10745,0.04762 0.19601,0.118694 0.26561,0.213939 0.13105,0.177025 0.19489,0.454467 0.20257,0.815454 H 105.53 c 0.0117,-0.117512 0.0159,-0.241086 0.0481,-0.34158 0.0507,-0.158134 0.12654,-0.295341 0.22789,-0.411345 0.2027,-0.232011 0.47862,-0.3483 0.82785,-0.3483 0.28574,0 0.49848,0.09528 0.63769,0.285771 0.0696,0.09524 0.12178,0.215813 0.15658,0.361736 0.0307,0.128759 0.0424,0.285498 0.046,0.453718 h 0.67903 c -0.006,-0.531075 -0.11717,-0.946447 -0.34313,-1.236618 -0.23201,-0.300389 -0.5617,-0.450617 -0.98909,-0.450617 -0.31748,0 -0.59392,0.07192 -0.82837,0.216006 -0.23445,0.144092 -0.43558,0.367929 -0.6041,0.670761 -0.10013,-0.288179 -0.25506,-0.507974 -0.46509,-0.659392 -0.20758,-0.151416 -0.46066,-0.227375 -0.75861,-0.227375 -0.2955,0 -0.55041,0.06017 -0.76532,0.179835 -0.21492,0.119665 -0.3996,0.305006 -0.55346,0.556553 v -0.637169 h -0.67748 z" />
    <path
       id="path1077"
       style="font-style:normal;font-variant:normal;font-weight:normal;font-stretch:normal;font-size:7.50244px;line-height:1.25;font-family:file-icons;-inkscape-font-specification:'file-icons, Normal';font-variant-ligatures:normal;font-variant-caps:normal;font-variant-numeric:normal;font-variant-east-asian:normal;fill:#fabd2f;fill-opacity:1;stroke:none;stroke-width:0.264583"
       d="m 97.360467,59.966367 c -0.02809,0.165581 -0.07545,0.316111 -0.07545,0.50333 0,0.32481 0.0479,0.616196 0.143143,0.873847 0.09525,0.257651 0.237905,0.48182 0.428397,0.672309 0.191714,0.190492 0.417478,0.333153 0.676963,0.4284 0.259482,0.09524 0.552794,0.143142 0.880049,0.143142 0.261316,0 0.519091,-0.02689 0.773081,-0.08062 0.254,-0.05373 0.50185,-0.132038 0.74363,-0.234609 v -0.637172 c -0.23934,0.126992 -0.48132,0.222271 -0.72554,0.285771 -0.241782,0.0635 -0.491991,0.09508 -0.750864,0.09508 -0.223462,3e-6 -0.422762,-0.0305 -0.597379,-0.09095 -0.174617,-0.06045 -0.324845,-0.150931 -0.45062,-0.271819 -0.12455,-0.122111 -0.221335,-0.271492 -0.290938,-0.448551 -0.0696,-0.177059 -0.111954,-0.381908 -0.126606,-0.613916 h 3.099037 v -0.329697 c 0,-0.109712 -0.033,-0.193125 -0.0434,-0.294555 h -0.64647 c 0.002,0.03445 0.0156,0.06078 0.016,0.09664 l -2.402958,0.0041 c 0.0034,-0.03779 0.0186,-0.06464 0.02379,-0.10077 z" />
    <path
       id="path1075"
       style="font-style:normal;font-variant:normal;font-weight:normal;font-stretch:normal;font-size:7.50244px;line-height:1.25;font-family:file-icons;-inkscape-font-specification:'file-icons, Normal';font-variant-ligatures:normal;font-variant-caps:normal;font-variant-numeric:normal;font-variant-east-asian:normal;fill:#282828;fill-opacity:1;stroke:none;stroke-width:0.264583"
       d="m 97.360467,59.966367 h 0.673862 c 0.02125,-0.148315 0.04666,-0.293127 0.0987,-0.413412 0.06472,-0.149585 0.153276,-0.277204 0.265618,-0.383439 0.113562,-0.106236 0.246071,-0.186143 0.396875,-0.23926 0.150808,-0.05312 0.319929,-0.07958 0.507979,-0.07958 0.166071,0 0.315968,0.02773 0.44907,0.08268 0.133101,0.05495 0.249719,0.137115 0.349849,0.247015 0.10146,0.109897 0.17806,0.238363 0.22996,0.385506 0.0418,0.118528 0.0555,0.257797 0.0651,0.400492 h 0.64647 c -0.0475,-0.46304 -0.17532,-0.861899 -0.43976,-1.152385 -0.31993,-0.356561 -0.755993,-0.53485 -1.307933,-0.53485 -0.615434,0 -1.105273,0.198125 -1.469162,0.593762 -0.180721,0.196596 -0.316331,0.427815 -0.406694,0.694015 -0.03998,0.117788 -0.03765,0.268042 -0.05994,0.399458 z" />
    <path
       id="path1073"
       style="font-style:normal;font-variant:normal;font-weight:normal;font-stretch:normal;font-size:7.50244px;line-height:1.25;font-family:file-icons;-inkscape-font-specification:'file-icons, Normal';font-variant-ligatures:normal;font-variant-caps:normal;font-variant-numeric:normal;font-variant-east-asian:normal;fill:#282828;fill-opacity:1;stroke:none;stroke-width:0.264583"
       d="m 94.578209,59.966367 h 1.617988 c -0.0097,-0.116025 7.94e-4,-0.218366 -0.02119,-0.342615 -0.05373,-0.302834 -0.146656,-0.647144 -0.278535,-1.033012 -0.08303,-0.244219 -0.173095,-0.476282 -0.270785,-0.696082 -0.09769,-0.214913 -0.178353,-0.41774 -0.241845,-0.608232 -0.06352,-0.195374 -0.09797,-0.378365 -0.102835,-0.54932 -0.0098,-0.170953 0.03695,-0.332274 0.139525,-0.48369 0.107458,-0.163629 0.222054,-0.257731 0.344165,-0.282155 0.12211,-0.02442 0.251843,0.02061 0.388607,0.135393 0.27841,0.224682 0.226988,0.554376 -0.153996,0.989087 l 0.153996,0.102835 c 0.229568,0.02931 0.424825,-0.01691 0.586012,-0.139009 0.161184,-0.117224 0.275783,-0.261578 0.344165,-0.43253 0.07327,-0.170956 0.0931,-0.346893 0.05891,-0.527617 -0.03419,-0.175839 -0.137036,-0.307406 -0.307991,-0.395324 -0.449365,-0.234453 -0.874337,-0.310412 -1.274858,-0.227378 -0.20026,0.04152 -0.383251,0.109911 -0.54932,0.205155 -0.166068,0.09525 -0.315121,0.217411 -0.447,0.366388 -0.263758,0.293063 -0.442047,0.67183 -0.534852,1.135848 -0.08792,0.459134 -0.04406,0.949629 0.131775,1.472261 0.07327,0.219797 0.149225,0.441944 0.227375,0.666625 0.08007,0.21666 0.142407,0.431255 0.190688,0.643372 z" />
    <path
       id="path1071"
       style="font-style:normal;font-variant:normal;font-weight:normal;font-stretch:normal;font-size:7.50244px;line-height:1.25;font-family:file-icons;-inkscape-font-specification:'file-icons, Normal';font-variant-ligatures:normal;font-variant-caps:normal;font-variant-numeric:normal;font-variant-east-asian:normal;fill:#fabd2f;fill-opacity:1;stroke:none;stroke-width:0.264583"
       d="m 92.924564,59.966367 c -0.0796,0.03203 -0.172908,0.04768 -0.24443,0.0894 -0.17584,0.102573 -0.327242,0.227089 -0.454237,0.373621 -0.131879,0.151415 -0.244126,0.317436 -0.336929,0.49816 -0.273528,0.522631 -0.310332,0.955172 -0.110071,1.29708 0.100128,0.170952 0.229864,0.31211 0.388606,0.42323 0.158742,0.11112 0.346951,0.192109 0.564306,0.243396 0.434713,0.102571 0.925209,0.06863 1.472264,-0.10232 0.273526,-0.08548 0.532146,-0.213191 0.775144,-0.382924 0.242999,-0.169733 0.470691,-0.381629 0.683162,-0.635619 0.170956,-0.20026 0.302522,-0.405437 0.395325,-0.615466 0.0928,-0.214913 0.148926,-0.446976 0.168465,-0.696081 0.01151,-0.149781 -0.01601,-0.32571 -0.02997,-0.492477 h -1.617988 c 0.0019,0.0079 0.0055,0.01593 0.0072,0.02376 0.04885,0.219798 0.07286,0.434375 0.07286,0.644404 0,0.205144 -0.04151,0.40092 -0.124539,0.586528 -0.146532,0.322371 -0.341792,0.573752 -0.586013,0.754475 -0.239334,0.180742 -0.451561,0.273669 -0.637169,0.278538 -0.100132,0.0049 -0.180462,-0.01495 -0.240295,-0.05891 -0.05983,-0.04396 -0.09932,-0.112353 -0.118856,-0.205156 -0.04396,-0.190492 -0.02934,-0.410286 0.04393,-0.659392 0.07327,-0.249105 0.19308,-0.498136 0.359151,-0.747241 0.170952,-0.249103 0.368562,-0.429744 0.593243,-0.542086 0.03907,-0.01953 0.07588,-0.04407 0.110072,-0.07338 2.65e-4,-2.65e-4 -2.64e-4,-0.0013 0,-0.0016 z" />
    <path
       id="path1069"
       style="font-style:normal;font-variant:normal;font-weight:normal;font-stretch:normal;font-size:7.50244px;line-height:1.25;font-family:file-icons;-inkscape-font-specification:'file-icons, Normal';font-variant-ligatures:normal;font-variant-caps:normal;font-variant-numeric:normal;font-variant-east-asian:normal;fill:#282828;fill-opacity:1;stroke:none;stroke-width:0.264583"
       d="m 92.924564,59.966367 h 1.133263 c 0.03305,-0.03419 0.02614,-0.08474 -0.02223,-0.152445 -0.278411,-0.02931 -0.529794,-0.02175 -0.754478,0.02222 -0.133292,0.02609 -0.240464,0.08352 -0.356566,0.130225 z" />
    <path
       id="path1067"
       style="font-style:normal;font-variant:normal;font-weight:normal;font-stretch:normal;font-size:7.50244px;line-height:1.25;font-family:file-icons;-inkscape-font-specification:'file-icons, Normal';font-variant-ligatures:normal;font-variant-caps:normal;font-variant-numeric:normal;font-variant-east-asian:normal;fill:#fabd2f;fill-opacity:1;stroke:none;stroke-width:0.264583"
       d="m 89.984175,59.966367 v 2.514576 h 0.673859 v -2.514576 z" />
    <path
       id="path1065"
       style="font-style:normal;font-variant:normal;font-weight:normal;font-stretch:normal;font-size:7.50244px;line-height:1.25;font-family:file-icons;-inkscape-font-specification:'file-icons, Normal';font-variant-ligatures:normal;font-variant-caps:normal;font-variant-numeric:normal;font-variant-east-asian:normal;fill:#282828;fill-opacity:1;stroke:none;stroke-width:0.264583"
       d="m 89.984175,59.966367 h 0.673859 v -1.588016 h -0.673859 z" />
    <path
       id="path1063"
       style="font-style:normal;font-variant:normal;font-weight:normal;font-stretch:normal;font-size:7.50244px;line-height:1.25;font-family:file-icons;-inkscape-font-specification:'file-icons, Normal';font-variant-ligatures:normal;font-variant-caps:normal;font-variant-numeric:normal;font-variant-east-asian:normal;fill:#fabd2f;fill-opacity:1;stroke:none;stroke-width:0.264583"
       d="m 83.371658,59.966367 v 2.976046 h 1.560629 v -2.87166 h 1.179771 l 1.501717,2.879413 h 1.648479 l -1.596803,-2.975015 c 0.0045,-0.0031 0.0058,-0.0057 0.01035,-0.0088 z" />
    <path
       id="path1061"
       style="font-style:normal;font-variant:normal;font-weight:normal;font-stretch:normal;font-size:7.50244px;line-height:1.25;font-family:file-icons;-inkscape-font-specification:'file-icons, Normal';font-variant-ligatures:normal;font-variant-caps:normal;font-variant-numeric:normal;font-variant-east-asian:normal;fill:#282828;fill-opacity:1;stroke:none;stroke-width:0.264583"
       d="m 83.371658,59.966367 h 4.30413 c 0.384117,-0.265205 0.680376,-0.516356 0.88315,-0.752925 0.210029,-0.239337 0.315225,-0.54736 0.315225,-0.923459 v -1.201476 c -0.0049,-0.131879 -0.03934,-0.278064 -0.102836,-0.439251 -0.0635,-0.166068 -0.226652,-0.376462 -0.490407,-0.630452 -0.166071,-0.161186 -0.33496,-0.295103 -0.505913,-0.40256 -0.170955,-0.11234 -0.434607,-0.168982 -0.791168,-0.168982 h -3.612181 z m 6.612517,-3.185335 v 0.853178 h 0.673859 v -0.853178 z m -5.051888,0.124539 h 1.978173 c 0.141647,0.0049 0.251545,0.06336 0.329695,0.1757 0.07815,0.107458 0.117305,0.210304 0.117305,0.307993 v 0.893485 c 0,0.04885 -0.03916,0.117237 -0.117305,0.205155 -0.07327,0.08303 -0.13879,0.12454 -0.197403,0.12454 h -2.110465 z" />
    <path
       id="path1150"
       style="fill:none;stroke:#98971a;stroke-width:1.71979;stroke-linecap:round;stroke-linejoin:round;stroke-miterlimit:4;stroke-dasharray:none;stroke-dashoffset:0;stroke-opacity:1"
       d="m 118.60427,66.302557 7.29044,-0.0039 h -7.29044 z" />
    <path
       id="path1261"
       style="fill:none;stroke:#458588;stroke-width:1.71979;stroke-linecap:round;stroke-linejoin:round;stroke-miterlimit:4;stroke-dasharray:none;stroke-dashoffset:0;stroke-opacity:1"
       d="m 96.929488,66.313989 18.802732,-0.0102 v -0.0042 H 96.929488 Z" />
    <path
       id="path1266"
       style="fill:none;stroke:#458588;stroke-width:1.71979;stroke-linecap:round;stroke-linejoin:round;stroke-miterlimit:4;stroke-dasharray:none;stroke-dashoffset:0;stroke-opacity:1"
       d="m 94.044766,66.300786 h -8.403728 v 0.01824 l 8.403728,-0.0046 z" />
    <path
       id="path1201"
       style="fill:none;stroke:#458588;stroke-width:1.7198;stroke-linecap:round;stroke-linejoin:round;stroke-miterlimit:4;stroke-dasharray:none;stroke-dashoffset:0;stroke-opacity:1"
       d="m 112.68616,71.218249 10.78658,-0.0064 h -10.78658 z" />
    <path
       id="path1256"
       style="fill:none;stroke:#98971a;stroke-width:1.7198;stroke-linecap:round;stroke-linejoin:round;stroke-miterlimit:4;stroke-dasharray:none;stroke-dashoffset:0;stroke-opacity:1"
       d="M 109.69363,71.211163 H 88.410596 v 0.0222 l 21.283034,-0.0129 z" />
    <path
       id="path1233"
       style="fill:none;stroke:#98971a;stroke-width:1.71979;stroke-linecap:round;stroke-linejoin:round;stroke-miterlimit:4;stroke-dasharray:none;stroke-dashoffset:0;stroke-opacity:1"
       d="m 106.77459,76.144634 11.54912,-0.0091 h -11.54912 z" />
    <path
       id="path1251"
       style="fill:none;stroke:#458588;stroke-width:1.7198;stroke-linecap:round;stroke-linejoin:round;stroke-miterlimit:4;stroke-dasharray:none;stroke-dashoffset:0;stroke-opacity:1"
       d="M 103.70756,76.133897 H 93.549886 v 0.02214 l 10.157674,-0.0082 z" />
  </g>
</svg>
