<?xml version="1.0" encoding="UTF-8" standalone="no"?>
<svg
   xmlns:dc="http://purl.org/dc/elements/1.1/"
   xmlns:cc="http://creativecommons.org/ns#"
   xmlns:rdf="http://www.w3.org/1999/02/22-rdf-syntax-ns#"
   xmlns:svg="http://www.w3.org/2000/svg"
   xmlns="http://www.w3.org/2000/svg"
   xmlns:sodipodi="http://sodipodi.sourceforge.net/DTD/sodipodi-0.dtd"
   xmlns:inkscape="http://www.inkscape.org/namespaces/inkscape"
   width="1366"
   height="768"
   viewBox="0 0 361.42082 203.20001"
   version="1.1"
   id="svg8"
   inkscape:version="1.0.2 (e86c870879, 2021-01-15)"
   sodipodi:docname="wallpaper2.svg"
   inkscape:export-filename="/home/vijay/Documents/wallpaper2.png"
   inkscape:export-xdpi="96"
   inkscape:export-ydpi="96">
  <defs
     id="defs2">
    <inkscape:path-effect
       effect="bspline"
       id="path-effect1253"
       is_visible="true"
       lpeversion="1"
       weight="33.333333"
       steps="2"
       helper_size="0"
       apply_no_weight="true"
       apply_with_weight="true"
       only_selected="false" />
    <inkscape:path-effect
       effect="bspline"
       id="path-effect1249"
       is_visible="true"
       lpeversion="1"
       weight="33.333333"
       steps="2"
       helper_size="0"
       apply_no_weight="true"
       apply_with_weight="true"
       only_selected="false" />
    <inkscape:path-effect
       effect="bspline"
       id="path-effect1245"
       is_visible="true"
       lpeversion="1"
       weight="33.333333"
       steps="2"
       helper_size="0"
       apply_no_weight="true"
       apply_with_weight="true"
       only_selected="false" />
    <inkscape:path-effect
       effect="bspline"
       id="path-effect1237"
       is_visible="true"
       lpeversion="1"
       weight="33.333333"
       steps="2"
       helper_size="0"
       apply_no_weight="true"
       apply_with_weight="true"
       only_selected="false" />
    <inkscape:path-effect
       effect="spiro"
       id="path-effect1233"
       is_visible="true"
       lpeversion="1" />
    <inkscape:path-effect
       effect="spiro"
       id="path-effect1229"
       is_visible="true"
       lpeversion="1" />
    <inkscape:path-effect
       effect="spiro"
       id="path-effect1201"
       is_visible="true"
       lpeversion="1" />
    <style
       type="text/css"
       id="style981" />
  </defs>
  <sodipodi:namedview
     id="base"
     pagecolor="#ffffff"
     bordercolor="#666666"
     borderopacity="1.0"
     inkscape:pageopacity="0.0"
     inkscape:pageshadow="2"
     inkscape:zoom="1"
     inkscape:cx="522.66923"
     inkscape:cy="385.90651"
     inkscape:document-units="px"
     inkscape:current-layer="layer1"
     inkscape:document-rotation="0"
     showgrid="false"
     units="px"
     inkscape:object-nodes="false"
     inkscape:snap-smooth-nodes="false"
     inkscape:snap-intersection-paths="true"
     inkscape:object-paths="true"
     inkscape:snap-object-midpoints="false"
     showguides="true"
     inkscape:guide-bbox="true"
     inkscape:snap-others="true"
     inkscape:snap-center="true"
     inkscape:snap-nodes="true"
     inkscape:snap-global="false"
     inkscape:snap-midpoints="true"
     inkscape:window-width="1366"
     inkscape:window-height="768"
     inkscape:window-x="0"
     inkscape:window-y="0"
     inkscape:window-maximized="1" />
  <metadata
     id="metadata5">
    <rdf:RDF>
      <cc:Work
         rdf:about="">
        <dc:format>image/svg+xml</dc:format>
        <dc:type
           rdf:resource="http://purl.org/dc/dcmitype/StillImage" />
        <dc:title />
      </cc:Work>
    </rdf:RDF>
  </metadata>
  <g
     inkscape:label="Layer 1"
     inkscape:groupmode="layer"
     id="layer1">
    <rect
       style="fill:#282828;fill-opacity:1;stroke:#fabd2f;stroke-width:2.11667;stroke-linecap:round;stroke-linejoin:round;stroke-miterlimit:4;stroke-dasharray:none;stroke-opacity:1"
       id="rect1352"
       width="487.70059"
       height="303.46451"
       x="-62.896717"
       y="-43.673744"
       ry="1.41732e-06"
       sodipodi:insensitive="true" />
    <g
       id="g1282"
       transform="translate(78.378199,73.20626)">
      <path
         style="fill:none;stroke:#ebdbb2;stroke-width:2.38125;stroke-linecap:round;stroke-linejoin:round;stroke-miterlimit:4;stroke-dasharray:none;stroke-opacity:1"
         d="m 131.41056,47.901553 c 28.72975,-0.08338 29.142,0.0011 29.142,0.0011"
         id="path916"
         inkscape:transform-center-x="-20.64303"
         inkscape:transform-center-y="0.1288922" />
      <path
         style="fill:none;stroke:#ebdbb2;stroke-width:2.38125;stroke-linecap:round;stroke-linejoin:round;stroke-miterlimit:4;stroke-dasharray:none;stroke-opacity:1"
         d="m 72.957034,47.878672 c -28.437106,-0.08338 -28.845156,0.0011 -28.845156,0.0011"
         id="path990"
         inkscape:transform-center-x="-20.432761"
         inkscape:transform-center-y="0.1288922" />
      <path
         style="fill:none;stroke:#ebdbb2;stroke-width:2.38125;stroke-linecap:round;stroke-linejoin:round;stroke-miterlimit:4;stroke-dasharray:none;stroke-opacity:1"
         d="m 129.72593,38.818043 c 27.48733,-9.031776 27.88263,-9.005121 27.88263,-9.005121"
         id="path1004"
         inkscape:transform-center-x="-19.558613"
         inkscape:transform-center-y="-6.312468" />
      <path
         style="fill:none;stroke:#ebdbb2;stroke-width:2.38125;stroke-linecap:round;stroke-linejoin:round;stroke-miterlimit:4;stroke-dasharray:none;stroke-opacity:1"
         d="M 118.08189,23.048833 C 133.08601,-1.4262741 132.99146,-1.77783 132.99146,-1.77783"
         id="path1006"
         inkscape:transform-center-x="-10.458522"
         inkscape:transform-center-y="-17.403155" />
      <path
         style="fill:none;stroke:#ebdbb2;stroke-width:2.38125;stroke-linecap:round;stroke-linejoin:round;stroke-miterlimit:4;stroke-dasharray:none;stroke-opacity:1"
         d="M 125.38503,29.670802 C 147.926,12.283908 148.29468,12.084117 148.29468,12.084117"
         id="path1008"
         inkscape:transform-center-x="-16.07026"
         inkscape:transform-center-y="-12.328031" />
      <path
         style="fill:none;stroke:#ebdbb2;stroke-width:2.38125;stroke-linecap:round;stroke-linejoin:round;stroke-miterlimit:4;stroke-dasharray:none;stroke-opacity:1"
         d="m 108.18219,19.057279 c 5.60538,-27.9591239 5.69063,-28.3280198 5.69063,-28.3280198"
         id="path1010"
         inkscape:transform-center-x="-3.9917634"
         inkscape:transform-center-y="-19.857562" />
      <path
         style="fill:none;stroke:#ebdbb2;stroke-width:2.38125;stroke-linecap:round;stroke-linejoin:round;stroke-miterlimit:4;stroke-dasharray:none;stroke-opacity:1"
         d="M 96.950093,18.754404 C 91.799845,-9.2821795 91.779787,-9.7022016 91.779787,-9.7022016"
         id="path1012"
         inkscape:transform-center-x="3.6267794"
         inkscape:transform-center-y="-19.947696" />
      <path
         style="fill:none;stroke:#ebdbb2;stroke-width:2.38125;stroke-linecap:round;stroke-linejoin:round;stroke-miterlimit:4;stroke-dasharray:none;stroke-opacity:1"
         d="M 86.73606,22.94314 C 71.930423,-1.0794381 71.80896,-1.437409 71.80896,-1.437409"
         id="path1014"
         inkscape:transform-center-x="10.47081"
         inkscape:transform-center-y="-17.09044" />
      <path
         style="fill:none;stroke:#ebdbb2;stroke-width:2.38125;stroke-linecap:round;stroke-linejoin:round;stroke-miterlimit:4;stroke-dasharray:none;stroke-opacity:1"
         d="M 79.094068,29.571533 C 57.234922,12.126966 56.969026,11.837215 56.969026,11.837215"
         id="path1016"
         inkscape:transform-center-x="15.519882"
         inkscape:transform-center-y="-12.431519" />
      <path
         style="fill:none;stroke:#ebdbb2;stroke-width:2.38125;stroke-linecap:round;stroke-linejoin:round;stroke-miterlimit:4;stroke-dasharray:none;stroke-opacity:1"
         d="M 74.612687,39.09364 C 47.110584,30.361548 46.736859,30.165758 46.736859,30.165758"
         id="path1018"
         inkscape:transform-center-x="19.553843"
         inkscape:transform-center-y="-6.2583207" />
    </g>
    <g
       id="g1294"
       transform="translate(74.403908,73.941591)">
      <path
         style="fill:none;stroke:#458588;stroke-width:2.11667;stroke-linecap:round;stroke-linejoin:round;stroke-miterlimit:4;stroke-dasharray:none;stroke-opacity:1"
         d="m 85.997811,58.829931 c 1.569067,-1.170807 3.138034,-2.341539 4.75432,-2.179872 1.616286,0.161666 3.279607,1.655452 4.94881,1.655332 1.669203,-1.2e-4 3.344412,-1.493917 5.016599,-1.49379 1.67219,1.27e-4 3.34103,1.493903 4.97563,1.493786 1.6346,-1.17e-4 3.23505,-1.493902 4.85974,-1.493776 1.62468,1.25e-4 3.27325,1.493907 4.90647,1.493783 1.63322,-1.25e-4 3.25122,-1.49391 5.10814,-1.562946 1.85692,-0.06904 3.95241,1.286487 6.04769,2.641876"
         id="path1243"
         inkscape:path-effect="#path-effect1245"
         inkscape:original-d="m 85.997811,58.829931 c 1.569289,-1.17051 3.138256,-2.341242 4.706987,-3.51226 1.66361,1.494064 3.326928,2.987853 4.990071,4.481456 1.675474,-1.493633 3.35069,-2.987422 5.025701,-4.481456 1.66915,1.494064 3.33798,2.987853 5.00667,4.481456 1.60074,-1.493633 3.20119,-2.987422 4.80147,-4.481456 1.64888,1.494064 3.29744,2.987853 4.94582,4.481456 1.61828,-1.493633 3.23627,-2.987422 4.85409,-4.481456 2.09578,1.355806 4.19127,2.711328 6.28659,4.066653"
         sodipodi:nodetypes="ccccccccc" />
      <path
         style="fill:none;stroke:#98971a;stroke-width:2.11667;stroke-linecap:round;stroke-linejoin:round;stroke-miterlimit:4;stroke-dasharray:none;stroke-opacity:1"
         d="m 88.874831,61.990155 c 0.741927,-0.722522 1.483846,-1.445036 2.620638,-1.152825 1.136791,0.292211 2.668207,1.598936 4.271441,1.505275 1.603234,-0.09366 3.278443,-1.587458 4.95063,-1.587331 1.67219,1.27e-4 3.34103,1.493903 4.97563,1.493786 1.6346,-1.17e-4 3.23505,-1.493902 4.85974,-1.493776 1.62468,1.25e-4 3.27325,1.493907 4.81945,1.538253 1.5462,0.04435 2.99037,-1.360702 4.29951,-1.64331 1.30914,-0.282608 2.48355,0.556775 3.6579,1.396118"
         id="path1247"
         inkscape:path-effect="#path-effect1249"
         inkscape:original-d="m 88.874831,61.990155 c 0.742142,-0.722302 1.484061,-1.444815 2.225765,-2.16755 1.531651,1.306952 3.063067,2.613676 4.594273,3.920195 1.675474,-1.493633 3.35069,-2.987422 5.025701,-4.481456 1.66915,1.494064 3.33798,2.987853 5.00667,4.481456 1.60074,-1.493633 3.20119,-2.987422 4.80147,-4.481456 1.64888,1.494064 3.29744,2.987853 4.94582,4.481456 1.44425,-1.40469 2.88841,-2.809744 4.33197,-4.214633 1.17447,0.839502 2.34888,1.678887 3.52327,2.518178"
         sodipodi:nodetypes="ccccccccc" />
      <path
         style="fill:none;stroke:#458588;stroke-width:2.11667;stroke-linecap:round;stroke-linejoin:round;stroke-miterlimit:4;stroke-dasharray:none;stroke-opacity:1"
         d="m 92.830098,65.162859 c 0.954998,0.857655 1.90992,1.715242 3.225108,1.396964 1.315187,-0.318278 2.990148,-1.811853 4.662334,-1.811727 1.67219,1.27e-4 3.34103,1.493903 4.97563,1.493786 1.6346,-1.17e-4 3.23505,-1.493902 4.85974,-1.493776 1.62468,1.25e-4 3.27328,1.493936 4.6069,1.770433 1.33362,0.276498 2.35257,-0.664139 3.37144,-1.604694"
         id="path1251"
         inkscape:path-effect="#path-effect1253"
         inkscape:original-d="m 92.830098,65.162859 c 0.954995,0.857659 1.909912,1.715251 2.864771,2.572764 1.675729,-1.493848 3.35069,-2.987423 5.025701,-4.481457 1.66915,1.494064 3.33798,2.987853 5.00667,4.481457 1.60074,-1.493634 3.20119,-2.987423 4.80147,-4.481457 1.64888,1.494064 3.29747,2.987883 4.94582,4.481457 1.01911,-0.940359 2.03794,-1.881131 3.05672,-2.821778"
         sodipodi:nodetypes="ccccccc" />
    </g>
    <path
       style="fill:#fabd2f;fill-opacity:1;stroke:#fabd2f;stroke-width:2.11666;stroke-linecap:round;stroke-linejoin:round;stroke-miterlimit:4;stroke-dasharray:none;stroke-opacity:1"
       id="path1270"
       sodipodi:type="arc"
       sodipodi:cx="180.71043"
       sodipodi:cy="120.77482"
       sodipodi:rx="22.321869"
       sodipodi:ry="22.587286"
       sodipodi:start="3.1415927"
       sodipodi:end="0"
       sodipodi:arc-type="slice"
       d="M 158.38857,120.77482 A 22.321869,22.587286 0 0 1 180.71043,98.187532 22.321869,22.587286 0 0 1 203.0323,120.77482 H 180.71043 Z" />
    <path
       id="path935"
       style="font-style:normal;font-variant:normal;font-weight:normal;font-stretch:normal;font-size:14.0933px;line-height:1.25;font-family:'Standard Symbols PS';-inkscape-font-specification:'Standard Symbols PS, Normal';font-variant-ligatures:normal;font-variant-caps:normal;font-variant-numeric:normal;font-variant-east-asian:normal;fill:#282828;fill-opacity:1;stroke:none;stroke-width:0.999999"
       d="M 692.48047 460.48047 L 692.51367 447.3457 C 690.0634 448.411 686.49388 449.47552 683.19141 450.16797 L 683.19141 451.5 C 684.20345 451.39342 684.84339 451.33984 685.26953 451.33984 C 686.97402 451.33984 687.71959 452.14014 687.82617 453.95117 C 687.82617 454.48382 687.87891 455.28126 687.87891 455.6543 L 687.87891 460.48047 L 692.48047 460.48047 z "
       transform="scale(0.26458333)" />
    <path
       id="path969"
       style="font-style:normal;font-variant:normal;font-weight:normal;font-stretch:normal;font-size:14.0933px;line-height:1.25;font-family:'Standard Symbols PS';-inkscape-font-specification:'Standard Symbols PS, Normal';font-variant-ligatures:normal;font-variant-caps:normal;font-variant-numeric:normal;font-variant-east-asian:normal;fill:#fabd2f;fill-opacity:1;stroke:none;stroke-width:0.999999"
       d="M 692.48047 460.48047 L 687.87891 460.48047 L 687.87891 468.49219 C 687.87891 471.31527 688.14636 472.48688 688.94531 473.60547 C 689.7976 474.72402 691.18183 475.36328 692.72656 475.36328 C 694.75065 475.36328 696.66796 474.35098 697.83984 472.64648 C 698.42575 471.74095 698.79851 470.78174 699.22461 468.9707 L 697.73438 468.91797 L 697.62695 469.29102 C 697.20085 471.52819 696.34814 472.59375 695.12305 472.59375 C 693.36526 472.59375 692.46094 470.94258 692.46094 467.69336 L 692.48047 460.48047 z "
       transform="scale(0.26458333)" />
    <path
       id="path967"
       style="font-style:normal;font-variant:normal;font-weight:normal;font-stretch:normal;font-size:14.0933px;line-height:1.25;font-family:'Standard Symbols PS';-inkscape-font-specification:'Standard Symbols PS, Normal';font-variant-ligatures:normal;font-variant-caps:normal;font-variant-numeric:normal;font-variant-east-asian:normal;fill:#282828;fill-opacity:1;stroke:none;stroke-width:0.999999"
       d="M 727.41211 460.48047 L 731.87695 448.03711 L 727.13672 448.03711 L 723.88672 457.19922 C 722.50179 450.70077 719.25346 447.3457 714.40625 447.3457 C 711.95602 447.3457 709.34583 448.30332 707.375 450.00781 C 704.58499 452.40623 703.20355 455.85497 702.98828 460.48047 L 708.58594 460.48047 C 708.69847 457.01856 709.35817 454.0762 710.67773 451.92578 C 711.63652 450.38109 712.80775 449.63672 714.45898 449.63672 C 718.24089 449.63672 720.69052 452.67184 721.75586 458.74414 L 722.08594 460.48047 L 727.41211 460.48047 z "
       transform="scale(0.26458333)" />
    <path
       id="path965"
       style="font-style:normal;font-variant:normal;font-weight:normal;font-stretch:normal;font-size:14.0933px;line-height:1.25;font-family:'Standard Symbols PS';-inkscape-font-specification:'Standard Symbols PS, Normal';font-variant-ligatures:normal;font-variant-caps:normal;font-variant-numeric:normal;font-variant-east-asian:normal;fill:#fabd2f;fill-opacity:1;stroke:none;stroke-width:0.999999"
       d="M 727.41211 460.48047 L 722.08594 460.48047 L 722.3418 461.83398 L 721.11719 465.29688 C 719.25286 470.78327 717.1223 473.33984 714.45898 473.33984 C 712.80775 473.33984 711.15693 472.3265 710.30469 470.72852 C 709.1861 468.59784 708.49414 465.24193 708.49414 461.35352 C 708.49414 461.03281 708.57582 460.79167 708.58594 460.48047 L 702.98828 460.48047 C 702.96929 460.88858 702.90039 461.24628 702.90039 461.67383 C 702.90039 470.19636 707.10862 475.36328 714.0332 475.36328 C 718.72061 475.36328 722.18326 472.96726 724.36719 468.22656 C 724.63349 469.23861 725.00589 470.24896 725.5918 471.52734 C 726.97673 474.51022 727.88145 475.36328 729.58594 475.36328 C 732.35576 475.36328 733.68778 472.91322 733.84766 467.32031 L 733.84766 466.62695 L 732.46289 466.62695 C 732.35635 469.39678 731.34531 471.36914 730.01367 471.36914 C 728.25589 471.36914 726.49662 468.49177 725.85742 464.81641 L 727.41211 460.48047 z "
       transform="scale(0.26458333)" />
    <path
       id="path963"
       style="font-style:normal;font-variant:normal;font-weight:normal;font-stretch:normal;font-size:14.0933px;line-height:1.25;font-family:'Standard Symbols PS';-inkscape-font-specification:'Standard Symbols PS, Normal';font-variant-ligatures:normal;font-variant-caps:normal;font-variant-numeric:normal;font-variant-east-asian:normal;fill:#282828;fill-opacity:1;stroke:none;stroke-width:0.999999"
       d="M 746.17969 460.48047 L 740.98633 447.3457 C 738.42955 448.19795 736.61748 448.51786 733.84766 448.67773 L 733.84766 450.22266 C 736.77728 450.27591 737.0444 450.43545 738.26953 453.57812 L 740.98633 460.48047 L 746.17969 460.48047 z "
       transform="scale(0.26458333)" />
    <path
       id="path961"
       style="font-style:normal;font-variant:normal;font-weight:normal;font-stretch:normal;font-size:14.0933px;line-height:1.25;font-family:'Standard Symbols PS';-inkscape-font-specification:'Standard Symbols PS, Normal';font-variant-ligatures:normal;font-variant-caps:normal;font-variant-numeric:normal;font-variant-east-asian:normal;fill:#282828;fill-opacity:1;stroke:none;stroke-width:0.999999"
       d="M 755.72266 460.48047 C 756.38806 459.24176 757.67552 456.62483 758.18945 455.49414 C 759.09499 453.41676 759.62891 451.66016 759.62891 450.48828 C 759.62891 448.78379 758.24303 447.3457 756.5918 447.3457 C 755.04707 447.3457 753.7168 448.67741 753.7168 450.27539 C 753.7168 450.54173 753.76897 450.85994 753.82227 451.17969 L 754.08984 452.35156 L 754.19531 452.83203 L 754.24805 453.31055 C 754.51413 454.58893 754.62109 455.38871 754.62109 455.97461 C 754.62109 457.253 754.14131 458.79798 753.28906 460.44922 L 753.27148 460.48047 L 755.72266 460.48047 z "
       transform="scale(0.26458333)" />
    <path
       id="path959"
       style="font-style:normal;font-variant:normal;font-weight:normal;font-stretch:normal;font-size:14.0933px;line-height:1.25;font-family:'Standard Symbols PS';-inkscape-font-specification:'Standard Symbols PS, Normal';font-variant-ligatures:normal;font-variant-caps:normal;font-variant-numeric:normal;font-variant-east-asian:normal;fill:#fabd2f;fill-opacity:1;stroke:none;stroke-width:0.999999"
       d="M 755.72266 460.48047 L 753.27148 460.48047 L 752.91797 461.08789 L 749.24219 468.22656 L 746.17969 460.48047 L 740.98633 460.48047 L 746.84375 475.36328 L 748.44336 475.36328 L 748.70898 474.66992 C 749.29489 473.23174 749.774 472.06159 750.09375 471.36914 L 751.53125 468.43945 L 752.01172 467.42578 L 755.1543 461.56641 L 755.63281 460.66211 C 755.65528 460.62092 755.69842 460.52559 755.72266 460.48047 z "
       transform="scale(0.26458333)" />
    <path
       id="path957"
       style="font-style:normal;font-variant:normal;font-weight:normal;font-stretch:normal;font-size:14.0933px;line-height:1.25;font-family:'Standard Symbols PS';-inkscape-font-specification:'Standard Symbols PS, Normal';font-variant-ligatures:normal;font-variant-caps:normal;font-variant-numeric:normal;font-variant-east-asian:normal;fill:#282828;fill-opacity:1;stroke:none;stroke-width:0.999999"
       d="M 627.4375 460.48047 C 626.53818 459.1148 625.47132 457.81139 624.06641 456.64062 C 623.00107 455.73509 621.98878 455.04294 619.00586 453.28516 C 617.08832 452.11331 616.23665 451.58024 615.22461 450.78125 C 613.14723 449.18327 612.08203 447.79828 612.08203 446.67969 C 612.08203 444.9219 613.78734 443.53711 615.91797 443.53711 C 617.88884 443.53711 619.00764 444.12288 620.97852 446.09375 L 621.50977 446.67969 C 623.10775 448.27767 624.06644 448.81055 625.23828 448.81055 C 626.67647 448.81055 627.74219 447.85065 627.74219 446.57227 C 627.74219 443.6426 623.10909 441.29883 617.46289 441.29883 C 612.50914 441.29883 609.41797 443.32301 609.41797 446.57227 C 609.41797 448.5431 610.27099 449.98157 612.66797 452.21875 L 617.88867 457.06641 C 615.11881 457.91865 613.46657 458.61045 611.92188 459.67578 C 611.57377 459.91312 611.31053 460.21805 610.99219 460.48047 L 615.3418 460.48047 C 616.43317 459.5628 617.70603 458.81884 619.37891 458.45117 C 619.43197 458.45117 619.48689 458.55776 619.80664 458.82422 L 620.39258 459.41016 C 620.70466 459.74453 620.93813 460.12744 621.2168 460.48047 L 627.4375 460.48047 z "
       transform="scale(0.26458333)" />
    <path
       id="path955"
       style="font-style:normal;font-variant:normal;font-weight:normal;font-stretch:normal;font-size:14.0933px;line-height:1.25;font-family:'Standard Symbols PS';-inkscape-font-specification:'Standard Symbols PS, Normal';font-variant-ligatures:normal;font-variant-caps:normal;font-variant-numeric:normal;font-variant-east-asian:normal;fill:#fabd2f;fill-opacity:1;stroke:none;stroke-width:0.999999"
       d="M 627.4375 460.48047 L 621.2168 460.48047 C 621.60402 460.97101 622.02257 461.44022 622.36328 461.9668 C 623.85472 464.31048 624.65234 467.13431 624.65234 470.11719 C 624.65234 475.39054 622.14854 478.90625 618.41992 478.90625 C 614.6913 478.90625 612.13477 474.75059 612.13477 468.625 C 612.13477 464.85767 613.27087 462.22177 615.3418 460.48047 L 610.99219 460.48047 C 608.09554 462.86829 606.38281 466.19752 606.38281 469.79688 C 606.38281 476.13556 611.44277 481.4082 617.56836 481.4082 C 620.76429 481.4082 623.64049 480.13008 626.19727 477.4668 C 628.70079 474.85677 629.87305 471.98145 629.87305 468.35938 C 629.87305 465.45658 628.99315 462.84282 627.4375 460.48047 z "
       transform="scale(0.26458333)" />
    <path
       id="path953"
       style="font-style:normal;font-variant:normal;font-weight:normal;font-stretch:normal;font-size:14.0933px;line-height:1.25;font-family:'Standard Symbols PS';-inkscape-font-specification:'Standard Symbols PS, Normal';font-variant-ligatures:normal;font-variant-caps:normal;font-variant-numeric:normal;font-variant-east-asian:normal;fill:#282828;fill-opacity:1;stroke:none;stroke-width:0.999999"
       d="M 648.1875 460.48047 C 648.10786 459.73885 647.5326 459.33008 646.43945 459.33008 C 645.96006 459.33008 645.37321 459.38421 644.57422 459.4375 L 644.25391 459.49023 L 643.93555 459.49023 L 643.13672 459.5957 C 642.65732 459.64899 642.2299 459.65039 641.91016 459.65039 C 639.24684 459.65039 637.4375 457.78457 637.4375 454.9082 C 637.4375 451.71223 639.67301 449.20898 642.49609 449.20898 C 644.14733 449.20898 645.58701 450.06094 646.06641 451.39258 L 646.17188 451.76562 L 646.2793 452.08594 L 646.49219 452.61914 C 646.97158 454.00407 647.98385 454.91016 649.20898 454.91016 C 650.59388 454.91016 651.76562 453.73753 651.76562 452.24609 C 651.76563 449.36972 648.19646 447.3457 643.18945 447.3457 C 639.78039 447.3457 637.38402 448.09091 635.30664 449.74219 C 633.38906 451.23363 632.48242 452.83138 632.48242 454.85547 C 632.48242 456.61325 633.28164 458.26582 634.61328 459.22461 C 635.21973 459.61446 635.92551 459.97138 636.95312 460.48047 L 648.1875 460.48047 z "
       transform="scale(0.26458333)" />
    <path
       id="path951"
       style="font-style:normal;font-variant:normal;font-weight:normal;font-stretch:normal;font-size:14.0933px;line-height:1.25;font-family:'Standard Symbols PS';-inkscape-font-specification:'Standard Symbols PS, Normal';font-variant-ligatures:normal;font-variant-caps:normal;font-variant-numeric:normal;font-variant-east-asian:normal;fill:#fabd2f;fill-opacity:1;stroke:none;stroke-width:0.999999"
       d="M 648.1875 460.48047 L 636.95312 460.48047 C 637.18813 460.59689 637.18154 460.61915 637.48828 460.76758 C 635.35909 461.51297 634.34715 462.09908 633.38867 463.16406 C 632.37663 464.28265 631.73828 465.93574 631.73828 467.48047 C 631.73828 472.06133 636.42431 475.36328 643.0293 475.36328 C 648.9418 475.36328 652.24525 473.1796 653.31055 468.49219 L 652.03125 468.01172 C 650.91266 471.36749 648.94203 472.69922 645.16016 472.69922 C 642.55013 472.69922 640.42061 472.05964 638.98242 470.78125 C 637.91712 469.87571 637.4375 468.81195 637.4375 467.10742 C 637.4375 463.96474 639.30045 461.93945 642.07031 461.93945 C 642.60296 461.93945 643.08259 461.99303 643.61523 462.09961 C 644.30768 462.25948 645.00107 462.3125 645.48047 462.3125 C 647.07845 462.3125 648.25 461.56817 648.25 460.60938 C 648.25 460.55214 648.19323 460.53386 648.1875 460.48047 z "
       transform="scale(0.26458333)" />
    <path
       id="path949"
       style="font-style:normal;font-variant:normal;font-weight:normal;font-stretch:normal;font-size:14.0933px;line-height:1.25;font-family:'Standard Symbols PS';-inkscape-font-specification:'Standard Symbols PS, Normal';font-variant-ligatures:normal;font-variant-caps:normal;font-variant-numeric:normal;font-variant-east-asian:normal;fill:#fabd2f;fill-opacity:1;stroke:none;stroke-width:0.999999"
       d="M 680.86914 460.48047 L 675.30859 460.48047 C 675.62187 461.84016 675.8418 463.26147 675.8418 464.76367 C 675.8418 467.58675 675.25638 469.82405 674.03125 471.20898 C 673.01921 472.38083 671.20736 473.17969 669.60938 473.17969 C 666.8928 473.17969 664.22904 471.95433 662.41797 469.87695 L 662.41797 460.48047 L 658.1582 460.48047 L 658.1582 478.45312 C 658.1582 479.19883 657.99776 481.96842 657.83789 483.56641 C 657.73135 484.73829 657.57226 485.64297 657.19922 486.97461 L 661.56641 486.97461 C 662.1522 485.90931 662.41797 484.25918 662.41797 481.38281 L 662.41797 480.21094 L 662.41797 472.91211 C 665.24109 475.04274 667.5844 475.8418 670.67383 475.8418 C 677.01247 475.8418 681.38086 471.15593 681.38086 464.33789 C 681.38086 462.94493 681.19708 461.66862 680.86914 460.48047 z "
       transform="scale(0.26458333)" />
    <path
       id="path947"
       style="font-style:normal;font-variant:normal;font-weight:normal;font-stretch:normal;font-size:14.0933px;line-height:1.25;font-family:'Standard Symbols PS';-inkscape-font-specification:'Standard Symbols PS, Normal';font-variant-ligatures:normal;font-variant-caps:normal;font-variant-numeric:normal;font-variant-east-asian:normal;fill:#282828;fill-opacity:1;stroke:none;stroke-width:0.999999"
       d="M 668.22461 435.73242 C 662.4719 435.73242 658.1582 439.51588 658.1582 444.57617 L 658.1582 460.48047 L 662.41797 460.48047 L 662.41797 444.04297 C 662.41797 440.31435 664.60286 437.70508 667.79883 437.70508 C 671.1546 437.70508 673.55078 440.74069 673.55078 445.00195 C 673.55078 447.87832 672.11397 450.91406 670.67578 450.91406 C 670.56924 450.91406 670.35574 450.91462 670.14258 450.86133 L 669.50391 450.70117 C 669.39732 450.70117 669.28962 450.64844 669.23633 450.64844 C 668.75693 450.54185 668.33044 450.48828 667.9043 450.48828 C 666.57266 450.48828 665.56055 451.28818 665.56055 452.35352 C 665.56055 453.36556 666.46615 454.00391 667.9043 454.00391 C 668.22389 454.00391 668.49079 453.95033 669.02344 453.84375 C 669.60938 453.73717 670.24843 453.68359 670.62109 453.68359 C 671.31358 453.68359 671.68611 453.79018 672.00586 454.05664 C 673.58839 455.53367 674.69988 457.83849 675.30859 460.48047 L 680.86914 460.48047 C 679.83019 456.71629 677.15273 453.94831 672.69922 452.08594 C 676.80072 449.90205 678.66406 447.45219 678.66406 444.41602 C 678.66406 439.67532 673.9241 435.73242 668.22461 435.73242 z "
       transform="scale(0.26458333)" />
  </g>
</svg>
