<?xml version="1.0" encoding="UTF-8" standalone="no"?>
<svg
   xmlns:dc="http://purl.org/dc/elements/1.1/"
   xmlns:cc="http://creativecommons.org/ns#"
   xmlns:rdf="http://www.w3.org/1999/02/22-rdf-syntax-ns#"
   xmlns:svg="http://www.w3.org/2000/svg"
   xmlns="http://www.w3.org/2000/svg"
   xmlns:sodipodi="http://sodipodi.sourceforge.net/DTD/sodipodi-0.dtd"
   xmlns:inkscape="http://www.inkscape.org/namespaces/inkscape"
   width="800"
   height="300"
   viewBox="0 0 211.66666 79.375005"
   version="1.1"
   id="svg8"
   inkscape:version="1.0.2 (e86c870879, 2021-01-15)"
   sodipodi:docname="wallpaper.svg"
   inkscape:export-filename="/home/vijay/Documents/wallpaper.png"
   inkscape:export-xdpi="96"
   inkscape:export-ydpi="96">
  <defs
     id="defs2">
    <inkscape:path-effect
       effect="bspline"
       id="path-effect1130"
       is_visible="true"
       lpeversion="1"
       weight="33.333333"
       steps="2"
       helper_size="0"
       apply_no_weight="true"
       apply_with_weight="true"
       only_selected="false" />
    <inkscape:path-effect
       effect="bspline"
       id="path-effect1128"
       is_visible="true"
       lpeversion="1"
       weight="33.333333"
       steps="2"
       helper_size="0"
       apply_no_weight="true"
       apply_with_weight="true"
       only_selected="false" />
    <inkscape:path-effect
       effect="bspline"
       id="path-effect1126"
       is_visible="true"
       lpeversion="1"
       weight="33.333333"
       steps="2"
       helper_size="0"
       apply_no_weight="true"
       apply_with_weight="true"
       only_selected="false" />
    <inkscape:path-effect
       effect="bspline"
       id="path-effect1111"
       is_visible="true"
       lpeversion="1"
       weight="33.333333"
       steps="2"
       helper_size="0"
       apply_no_weight="true"
       apply_with_weight="true"
       only_selected="false" />
    <inkscape:path-effect
       effect="bspline"
       id="path-effect1253"
       is_visible="true"
       lpeversion="1"
       weight="33.333333"
       steps="2"
       helper_size="0"
       apply_no_weight="true"
       apply_with_weight="true"
       only_selected="false" />
    <inkscape:path-effect
       effect="bspline"
       id="path-effect1249"
       is_visible="true"
       lpeversion="1"
       weight="33.333333"
       steps="2"
       helper_size="0"
       apply_no_weight="true"
       apply_with_weight="true"
       only_selected="false" />
    <inkscape:path-effect
       effect="bspline"
       id="path-effect1245"
       is_visible="true"
       lpeversion="1"
       weight="33.333333"
       steps="2"
       helper_size="0"
       apply_no_weight="true"
       apply_with_weight="true"
       only_selected="false" />
    <inkscape:path-effect
       effect="bspline"
       id="path-effect1237"
       is_visible="true"
       lpeversion="1"
       weight="33.333333"
       steps="2"
       helper_size="0"
       apply_no_weight="true"
       apply_with_weight="true"
       only_selected="false" />
    <inkscape:path-effect
       effect="spiro"
       id="path-effect1233"
       is_visible="true"
       lpeversion="1" />
    <inkscape:path-effect
       effect="spiro"
       id="path-effect1229"
       is_visible="true"
       lpeversion="1" />
    <inkscape:path-effect
       effect="spiro"
       id="path-effect1201"
       is_visible="true"
       lpeversion="1" />
    <style
       type="text/css"
       id="style981" />
  </defs>
  <sodipodi:namedview
     id="base"
     pagecolor="#ffffff"
     bordercolor="#666666"
     borderopacity="1.0"
     inkscape:pageopacity="0.0"
     inkscape:pageshadow="2"
     inkscape:zoom="1"
     inkscape:cx="320.35933"
     inkscape:cy="148.53967"
     inkscape:document-units="px"
     inkscape:current-layer="layer1"
     inkscape:document-rotation="0"
     showgrid="false"
     units="px"
     inkscape:object-nodes="false"
     inkscape:snap-smooth-nodes="false"
     inkscape:snap-intersection-paths="true"
     inkscape:object-paths="true"
     inkscape:snap-object-midpoints="false"
     showguides="true"
     inkscape:guide-bbox="true"
     inkscape:snap-others="true"
     inkscape:snap-center="true"
     inkscape:snap-nodes="true"
     inkscape:snap-global="false"
     inkscape:snap-midpoints="true"
     inkscape:window-width="1366"
     inkscape:window-height="768"
     inkscape:window-x="0"
     inkscape:window-y="0"
     inkscape:window-maximized="1" />
  <metadata
     id="metadata5">
    <rdf:RDF>
      <cc:Work
         rdf:about="">
        <dc:format>image/svg+xml</dc:format>
        <dc:type
           rdf:resource="http://purl.org/dc/dcmitype/StillImage" />
        <dc:title></dc:title>
      </cc:Work>
    </rdf:RDF>
  </metadata>
  <g
     inkscape:label="Layer 1"
     inkscape:groupmode="layer"
     id="layer1">
    <g
       id="g1282"
       transform="translate(3.5011153,11.29376)">
      <path
         style="fill:none;stroke:#ebdbb2;stroke-width:2.38125;stroke-linecap:round;stroke-linejoin:round;stroke-miterlimit:4;stroke-dasharray:none;stroke-opacity:1"
         d="m 131.41056,47.901553 c 28.72975,-0.08338 29.142,0.0011 29.142,0.0011"
         id="path916"
         inkscape:transform-center-x="-20.64303"
         inkscape:transform-center-y="0.1288922" />
      <path
         style="fill:none;stroke:#ebdbb2;stroke-width:2.38125;stroke-linecap:round;stroke-linejoin:round;stroke-miterlimit:4;stroke-dasharray:none;stroke-opacity:1"
         d="m 72.957034,47.878672 c -28.437106,-0.08338 -28.845156,0.0011 -28.845156,0.0011"
         id="path990"
         inkscape:transform-center-x="-20.432761"
         inkscape:transform-center-y="0.1288922" />
      <path
         style="fill:none;stroke:#ebdbb2;stroke-width:2.38125;stroke-linecap:round;stroke-linejoin:round;stroke-miterlimit:4;stroke-dasharray:none;stroke-opacity:1"
         d="m 129.72593,38.818043 c 27.48733,-9.031776 27.88263,-9.005121 27.88263,-9.005121"
         id="path1004"
         inkscape:transform-center-x="-19.558613"
         inkscape:transform-center-y="-6.312468" />
      <path
         style="fill:none;stroke:#ebdbb2;stroke-width:2.38125;stroke-linecap:round;stroke-linejoin:round;stroke-miterlimit:4;stroke-dasharray:none;stroke-opacity:1"
         d="M 118.08189,23.048833 C 133.08601,-1.4262741 132.99146,-1.77783 132.99146,-1.77783"
         id="path1006"
         inkscape:transform-center-x="-10.458522"
         inkscape:transform-center-y="-17.403155" />
      <path
         style="fill:none;stroke:#ebdbb2;stroke-width:2.38125;stroke-linecap:round;stroke-linejoin:round;stroke-miterlimit:4;stroke-dasharray:none;stroke-opacity:1"
         d="M 125.38503,29.670802 C 147.926,12.283908 148.29468,12.084117 148.29468,12.084117"
         id="path1008"
         inkscape:transform-center-x="-16.07026"
         inkscape:transform-center-y="-12.328031" />
      <path
         style="fill:none;stroke:#ebdbb2;stroke-width:2.38125;stroke-linecap:round;stroke-linejoin:round;stroke-miterlimit:4;stroke-dasharray:none;stroke-opacity:1"
         d="m 108.18219,19.057279 c 5.60538,-27.9591239 5.69063,-28.3280198 5.69063,-28.3280198"
         id="path1010"
         inkscape:transform-center-x="-3.9917634"
         inkscape:transform-center-y="-19.857562" />
      <path
         style="fill:none;stroke:#ebdbb2;stroke-width:2.38125;stroke-linecap:round;stroke-linejoin:round;stroke-miterlimit:4;stroke-dasharray:none;stroke-opacity:1"
         d="M 96.950093,18.754404 C 91.799845,-9.2821795 91.779787,-9.7022016 91.779787,-9.7022016"
         id="path1012"
         inkscape:transform-center-x="3.6267794"
         inkscape:transform-center-y="-19.947696" />
      <path
         style="fill:none;stroke:#ebdbb2;stroke-width:2.38125;stroke-linecap:round;stroke-linejoin:round;stroke-miterlimit:4;stroke-dasharray:none;stroke-opacity:1"
         d="M 86.73606,22.94314 C 71.930423,-1.0794381 71.80896,-1.437409 71.80896,-1.437409"
         id="path1014"
         inkscape:transform-center-x="10.47081"
         inkscape:transform-center-y="-17.09044" />
      <path
         style="fill:none;stroke:#ebdbb2;stroke-width:2.38125;stroke-linecap:round;stroke-linejoin:round;stroke-miterlimit:4;stroke-dasharray:none;stroke-opacity:1"
         d="M 79.094068,29.571533 C 57.234922,12.126966 56.969026,11.837215 56.969026,11.837215"
         id="path1016"
         inkscape:transform-center-x="15.519882"
         inkscape:transform-center-y="-12.431519" />
      <path
         style="fill:none;stroke:#ebdbb2;stroke-width:2.38125;stroke-linecap:round;stroke-linejoin:round;stroke-miterlimit:4;stroke-dasharray:none;stroke-opacity:1"
         d="M 74.612687,39.09364 C 47.110584,30.361548 46.736859,30.165758 46.736859,30.165758"
         id="path1018"
         inkscape:transform-center-x="19.553843"
         inkscape:transform-center-y="-6.2583207" />
    </g>
    <g
       id="g1116">
      <path
         style="fill:none;stroke:#458588;stroke-width:2.11667;stroke-linecap:round;stroke-linejoin:round;stroke-miterlimit:4;stroke-dasharray:none;stroke-opacity:1"
         d="m 85.524635,66.988037 c 1.569067,-1.170807 3.138034,-2.341539 4.75432,-2.179872 1.616286,0.161666 3.279607,1.655452 4.94881,1.655332 1.669203,-1.2e-4 3.344411,-1.493918 5.016595,-1.49379 1.67219,1.27e-4 3.34103,1.493903 4.97563,1.493786 1.6346,-1.17e-4 3.23505,-1.493902 4.85974,-1.493776 1.62468,1.25e-4 3.27325,1.493907 4.90647,1.493783 1.63322,-1.25e-4 3.25122,-1.49391 5.10814,-1.562946 1.85692,-0.06904 3.95241,1.286487 6.04769,2.641876"
         id="path1243"
         inkscape:path-effect="#path-effect1245"
         inkscape:original-d="m 85.524635,66.988037 c 1.569289,-1.17051 3.138256,-2.341242 4.706987,-3.51226 1.66361,1.494064 3.326928,2.987853 4.990071,4.481456 1.675474,-1.493633 3.35069,-2.987422 5.025697,-4.481456 1.66915,1.494064 3.33798,2.987853 5.00667,4.481456 1.60074,-1.493633 3.20119,-2.987422 4.80147,-4.481456 1.64888,1.494064 3.29744,2.987853 4.94582,4.481456 1.61828,-1.493633 3.23627,-2.987422 4.85409,-4.481456 2.09578,1.355806 4.19127,2.711328 6.28659,4.066653"
         sodipodi:nodetypes="ccccccccc" />
      <path
         style="fill:none;stroke:#98971a;stroke-width:2.11667;stroke-linecap:round;stroke-linejoin:round;stroke-miterlimit:4;stroke-dasharray:none;stroke-opacity:1"
         d="m 88.401655,70.148261 c 0.741927,-0.722522 1.483846,-1.445036 2.620638,-1.152825 1.136791,0.292211 2.668207,1.598936 4.271441,1.505275 1.603234,-0.09366 3.278442,-1.587459 4.950626,-1.587331 1.67219,1.27e-4 3.34103,1.493903 4.97563,1.493786 1.6346,-1.17e-4 3.23505,-1.493902 4.85974,-1.493776 1.62468,1.25e-4 3.27325,1.493907 4.81945,1.538253 1.5462,0.04435 2.99037,-1.360702 4.29951,-1.64331 1.30914,-0.282608 2.48355,0.556775 3.6579,1.396118"
         id="path1247"
         inkscape:path-effect="#path-effect1249"
         inkscape:original-d="m 88.401655,70.148261 c 0.742142,-0.722302 1.484061,-1.444815 2.225765,-2.16755 1.531651,1.306952 3.063067,2.613676 4.594273,3.920195 1.675474,-1.493633 3.35069,-2.987422 5.025697,-4.481456 1.66915,1.494064 3.33798,2.987853 5.00667,4.481456 1.60074,-1.493633 3.20119,-2.987422 4.80147,-4.481456 1.64888,1.494064 3.29744,2.987853 4.94582,4.481456 1.44425,-1.40469 2.88841,-2.809744 4.33197,-4.214633 1.17447,0.839502 2.34888,1.678887 3.52327,2.518178"
         sodipodi:nodetypes="ccccccccc" />
      <path
         style="fill:none;stroke:#458588;stroke-width:2.11667;stroke-linecap:round;stroke-linejoin:round;stroke-miterlimit:4;stroke-dasharray:none;stroke-opacity:1"
         d="m 92.356922,73.320965 c 0.954998,0.857655 1.90992,1.715242 3.225107,1.396964 1.315187,-0.318279 2.990147,-1.811855 4.662331,-1.811727 1.67219,1.27e-4 3.34103,1.493903 4.97563,1.493786 1.6346,-1.17e-4 3.23505,-1.493902 4.85974,-1.493776 1.62468,1.25e-4 3.27328,1.493936 4.6069,1.770433 1.33362,0.276498 2.35257,-0.664139 3.37144,-1.604694"
         id="path1251"
         inkscape:path-effect="#path-effect1253"
         inkscape:original-d="m 92.356922,73.320965 c 0.954995,0.857659 1.909912,1.715251 2.864771,2.572764 1.675729,-1.493848 3.35069,-2.987423 5.025697,-4.481457 1.66915,1.494064 3.33798,2.987853 5.00667,4.481457 1.60074,-1.493634 3.20119,-2.987423 4.80147,-4.481457 1.64888,1.494064 3.29747,2.987883 4.94582,4.481457 1.01911,-0.940359 2.03794,-1.881131 3.05672,-2.821778"
         sodipodi:nodetypes="ccccccc" />
    </g>
    <path
       style="fill:#fabd2f;fill-opacity:1;stroke:#fabd2f;stroke-width:2.11666;stroke-linecap:round;stroke-linejoin:round;stroke-miterlimit:4;stroke-dasharray:none;stroke-opacity:1"
       id="path1270"
       sodipodi:type="arc"
       sodipodi:cx="105.83334"
       sodipodi:cy="58.86232"
       sodipodi:rx="22.321869"
       sodipodi:ry="22.587286"
       sodipodi:start="3.1415927"
       sodipodi:end="0"
       sodipodi:arc-type="slice"
       d="M 83.511475,58.86232 A 22.321869,22.587286 0 0 1 105.83334,36.275034 22.321869,22.587286 0 0 1 128.15521,58.86232 h -22.32187 z" />
    <g
       aria-label="Risemacs"
       id="text1006"
       style="font-style:normal;font-variant:normal;font-weight:normal;font-stretch:normal;font-size:7.50244px;line-height:1.25;font-family:file-icons;-inkscape-font-specification:'file-icons, Normal';font-variant-ligatures:normal;font-variant-caps:normal;font-variant-numeric:normal;font-variant-east-asian:normal;fill:#000000;fill-opacity:1;stroke:none;stroke-width:0.264583" />
    <path
       id="path1031"
       style="font-style:normal;font-variant:normal;font-weight:normal;font-stretch:normal;font-size:7.50244px;line-height:1.25;font-family:file-icons;-inkscape-font-specification:'file-icons, Normal';font-variant-ligatures:normal;font-variant-caps:normal;font-variant-numeric:normal;font-variant-east-asian:normal;fill:#ffffff;fill-opacity:1;stroke:none;stroke-width:0.999999"
       d="m 473.91406,226.64453 h 6.11719 c -0.0367,-0.43852 0.003,-0.82532 -0.0801,-1.29492 -0.20306,-1.14457 -0.55429,-2.4459 -1.05273,-3.9043 -0.31383,-0.92303 -0.65423,-1.80012 -1.02344,-2.63086 -0.36934,-0.81227 -0.67419,-1.57886 -0.91406,-2.29883 -0.24081,-0.73842 -0.37104,-1.43004 -0.38867,-2.07617 -0.0369,-0.64612 0.13966,-1.25584 0.52734,-1.82812 0.81227,-1.23687 1.73573,-1.42234 2.76953,-0.55469 0.52614,0.4246 0.7395,0.94922 0.64258,1.57227 -0.0969,0.62305 -0.50464,1.34451 -1.22461,2.16601 l 0.58203,0.38867 c 0.86671,0.1102 1.60614,-0.0643 2.21484,-0.52539 0.60921,-0.44305 1.04234,-0.98864 1.30079,-1.63476 0.27691,-0.64613 0.34996,-1.31109 0.2207,-1.99414 -0.12921,-0.66459 -0.51596,-1.16185 -1.16211,-1.49414 -0.84918,-0.44306 -1.67548,-0.73584 -2.47852,-0.87891 -0.80303,-0.14307 -1.58295,-0.13738 -2.33984,0.0195 -1.5138,0.31383 -2.76876,1.03405 -3.76562,2.16016 -0.49845,0.55382 -0.917,1.18894 -1.25391,1.90429 -0.33691,0.71536 -0.59221,1.51179 -0.76758,2.38868 -0.16615,0.86765 -0.20807,1.76375 -0.125,2.6914 0.0831,0.92765 0.29075,1.8854 0.62305,2.87305 0.27689,0.83073 0.56399,1.67034 0.85937,2.51953 0.30255,0.81887 0.53621,1.62994 0.71875,2.43164 z"
       transform="scale(0.26458334)" />
    <path
       id="path1103"
       style="font-style:normal;font-variant:normal;font-weight:normal;font-stretch:normal;font-size:7.50244px;line-height:1.25;font-family:file-icons;-inkscape-font-specification:'file-icons, Normal';font-variant-ligatures:normal;font-variant-caps:normal;font-variant-numeric:normal;font-variant-east-asian:normal;fill:#fabd2f;fill-opacity:1;stroke:none;stroke-width:0.999999"
       d="m 467.66602,226.64453 c -0.30087,0.12104 -0.65351,0.18021 -0.92383,0.33789 -0.66459,0.38768 -1.23682,0.85829 -1.7168,1.41211 -0.49844,0.57228 -0.9227,1.19976 -1.27344,1.88281 -1.0338,1.9753 -1.1729,3.6101 -0.41601,4.90235 0.75689,1.29225 1.95855,2.13185 3.60156,2.51953 1.64301,0.38767 3.49688,0.25941 5.56445,-0.38672 2.06761,-0.64613 3.90562,-1.9297 5.51172,-3.84961 0.64612,-0.75689 1.14338,-1.53236 1.49414,-2.32617 0.35077,-0.81227 0.56289,-1.68936 0.63672,-2.63086 0.0435,-0.5661 -0.0605,-1.23103 -0.11328,-1.86133 h -6.11719 c 0.007,0.0297 0.0208,0.0602 0.0274,0.0898 0.18469,0.83073 0.27734,1.64173 0.27734,2.43554 0,0.77535 -0.15688,1.51529 -0.4707,2.2168 -0.55383,1.21841 -1.29181,2.16851 -2.21485,2.85156 -0.90456,0.68312 -1.70669,1.03434 -2.4082,1.05274 -0.37846,0.0185 -0.68206,-0.0565 -0.9082,-0.22266 -0.22614,-0.16615 -0.3754,-0.42464 -0.44922,-0.77539 -0.16605,-0.71997 -0.1109,-1.55069 0.16601,-2.49219 0.27689,-0.9415 0.72975,-1.88272 1.35743,-2.82422 0.64612,-0.94149 1.393,-1.62423 2.24218,-2.04883 0.14766,-0.0738 0.28676,-0.16657 0.41602,-0.27734 10e-4,-0.001 -0.001,-0.005 0,-0.006 z"
       transform="scale(0.26458334)" />
    <path
       id="path1101"
       style="font-style:normal;font-variant:normal;font-weight:normal;font-stretch:normal;font-size:7.50244px;line-height:1.25;font-family:file-icons;-inkscape-font-specification:'file-icons, Normal';font-variant-ligatures:normal;font-variant-caps:normal;font-variant-numeric:normal;font-variant-east-asian:normal;fill:#fabd2f;fill-opacity:1;stroke:none;stroke-width:0.999999"
       d="m 467.66602,226.64453 h 4.2832 c 0.12492,-0.12921 0.0989,-0.32027 -0.084,-0.57617 -1.05224,-0.11077 -2.00235,-0.0822 -2.85156,0.084 -0.50378,0.0986 -0.90884,0.31566 -1.34765,0.49219 z"
       transform="scale(0.26458334)" />
    <path
       id="path1099"
       style="font-style:normal;font-variant:normal;font-weight:normal;font-stretch:normal;font-size:7.50244px;line-height:1.25;font-family:file-icons;-inkscape-font-specification:'file-icons, Normal';font-variant-ligatures:normal;font-variant-caps:normal;font-variant-numeric:normal;font-variant-east-asian:normal;fill:#fabd2f;fill-opacity:1;stroke:none;stroke-width:0.999999"
       d="m 443.86914,226.64453 c 0.0495,0.21634 0.0623,0.4768 0.125,0.67774 0.20307,0.65074 0.47489,1.21977 0.81641,1.70898 0.35075,0.49844 0.73627,0.90936 1.15625,1.23242 0.41998,0.32306 0.87407,0.55935 1.36328,0.70703 0.99689,0.27691 2.0772,0.19306 3.24023,-0.25 0.58151,-0.22153 1.15375,-0.54539 1.7168,-0.97461 0.56305,-0.42921 1.11752,-0.96271 1.66211,-1.59961 l -0.35938,-0.30468 c -0.95995,1.01534 -1.91201,1.56786 -2.85351,1.66015 -0.94148,0.0738 -1.78109,-0.14716 -2.51953,-0.66406 -0.71995,-0.5169 -1.30108,-1.246 -1.74414,-2.1875 -9e-4,-0.002 -0.001,-0.004 -0.002,-0.006 z"
       transform="scale(0.26458334)" />
    <path
       id="path1097"
       style="font-style:normal;font-variant:normal;font-weight:normal;font-stretch:normal;font-size:7.50244px;line-height:1.25;font-family:file-icons;-inkscape-font-specification:'file-icons, Normal';font-variant-ligatures:normal;font-variant-caps:normal;font-variant-numeric:normal;font-variant-east-asian:normal;fill:#ffffff;fill-opacity:1;stroke:none;stroke-width:0.999999"
       d="m 443.86914,226.64453 h 2.60156 c -0.44127,-0.95813 -0.66211,-1.94374 -0.66211,-2.95703 0.0187,-0.79381 0.1379,-1.56928 0.35938,-2.32617 0.2215,-0.75689 0.48888,-1.36661 0.80273,-1.82813 0.97842,-1.47686 2.00351,-2.15072 3.07422,-2.02148 0.54459,0.0646 0.99424,0.18275 1.34961,0.35351 0.35537,0.17077 0.61706,0.39497 0.7832,0.67188 0.38771,0.6092 0.51598,1.42216 0.38672,2.4375 -0.12923,0.99688 -0.73698,1.799 -1.82617,2.4082 l 0.2207,0.35938 c 0.79381,-0.25845 1.48544,-0.6827 2.07618,-1.27344 0.57229,-0.57228 0.99652,-1.19977 1.27343,-1.88281 0.29531,-0.68305 0.40781,-1.3569 0.33399,-2.02149 -0.0554,-0.66458 -0.32469,-1.19045 -0.80469,-1.57812 -0.83071,-0.64613 -1.81832,-0.85825 -2.96289,-0.63672 -1.14457,0.23999 -2.25155,0.77474 -3.32227,1.60547 -1.05227,0.81227 -1.96683,1.85512 -2.74218,3.1289 -0.75684,1.2738 -1.16332,2.6215 -1.21875,4.04297 0.0447,0.56146 0.16653,1.0333 0.27734,1.51758 z"
       transform="scale(0.26458334)" />
    <path
       id="path1095"
       style="font-style:normal;font-variant:normal;font-weight:normal;font-stretch:normal;font-size:7.50244px;line-height:1.25;font-family:file-icons;-inkscape-font-specification:'file-icons, Normal';font-variant-ligatures:normal;font-variant-caps:normal;font-variant-numeric:normal;font-variant-east-asian:normal;fill:#fabd2f;fill-opacity:1;stroke:none;stroke-width:0.999999"
       d="m 437.16797,226.64453 v 4.1875 l 12.26758,7.08985 12.29492,-7.08985 v -4.1875 h -1.9375 v 3.08008 l -10.35742,5.95312 -10.32813,-5.95312 v -3.08008 z"
       transform="scale(0.26458334)" />
    <path
       id="path1093"
       style="font-style:normal;font-variant:normal;font-weight:normal;font-stretch:normal;font-size:7.50244px;line-height:1.25;font-family:file-icons;-inkscape-font-specification:'file-icons, Normal';font-variant-ligatures:normal;font-variant-caps:normal;font-variant-numeric:normal;font-variant-east-asian:normal;fill:#ffffff;fill-opacity:1;stroke:none;stroke-width:0.999999"
       d="m 437.16797,226.64453 h 1.93945 v -8.85547 l 10.32813,-5.95312 10.35742,5.95312 v 8.85547 h 1.9375 v -9.99023 l -12.29492,-7.08985 -12.26758,7.08985 z"
       transform="scale(0.26458334)" />
    <path
       id="path1091"
       style="font-style:normal;font-variant:normal;font-weight:normal;font-stretch:normal;font-size:7.50244px;line-height:1.25;font-family:file-icons;-inkscape-font-specification:'file-icons, Normal';font-variant-ligatures:normal;font-variant-caps:normal;font-variant-numeric:normal;font-variant-east-asian:normal;fill:#fabd2f;fill-opacity:1;stroke:none;stroke-width:0.999999"
       d="m 419.96875,226.64453 13.71094,10.66797 c 0.7938,0.73843 1.64228,0.84006 2.54687,0.30469 0.45229,-0.26768 0.73938,-0.58906 0.85938,-0.96289 0.11999,-0.37383 0.0736,-0.80127 -0.13867,-1.28125 l -3.77344,-8.72852 h -3.68945 l 2.0625,4.9082 -6.46876,-4.9082 z"
       transform="scale(0.26458334)" />
    <path
       id="path1089"
       style="font-style:normal;font-variant:normal;font-weight:normal;font-stretch:normal;font-size:7.50244px;line-height:1.25;font-family:file-icons;-inkscape-font-specification:'file-icons, Normal';font-variant-ligatures:normal;font-variant-caps:normal;font-variant-numeric:normal;font-variant-east-asian:normal;fill:#fabd2f;fill-opacity:1;stroke:none;stroke-width:0.999999"
       d="m 415.98047,226.64453 -4.78516,11.05469 h 3.98633 l 4.60742,-11.05469 z"
       transform="scale(0.26458334)" />
    <path
       id="path1087"
       style="font-style:normal;font-variant:normal;font-weight:normal;font-stretch:normal;font-size:7.50244px;line-height:1.25;font-family:file-icons;-inkscape-font-specification:'file-icons, Normal';font-variant-ligatures:normal;font-variant-caps:normal;font-variant-numeric:normal;font-variant-east-asian:normal;fill:#ffffff;fill-opacity:1;stroke:none;stroke-width:0.999999"
       d="m 415.98047,226.64453 h 3.80859 l 0.0449,-0.10547 0.13477,0.10547 h 5.10937 l -3.9707,-3.01172 3.51758,-8.55664 4.85938,11.56836 h 3.68945 l -6.91602,-16 c -0.29538,-0.71997 -0.84788,-1.08008 -1.66015,-1.08008 -0.81227,0 -1.37563,0.36011 -1.68946,1.08008 z"
       transform="scale(0.26458334)" />
    <path
       id="path1085"
       style="font-style:normal;font-variant:normal;font-weight:normal;font-stretch:normal;font-size:7.50244px;line-height:1.25;font-family:file-icons;-inkscape-font-specification:'file-icons, Normal';font-variant-ligatures:normal;font-variant-caps:normal;font-variant-numeric:normal;font-variant-east-asian:normal;fill:#fabd2f;fill-opacity:1;stroke:none;stroke-width:0.999999"
       d="m 406.20117,226.64453 c 0.002,0.0847 0.0234,0.14113 0.0234,0.22852 v 9.27539 h 2.56055 v -9.35938 c 0,-0.0545 -0.017,-0.0907 -0.0176,-0.14453 z"
       transform="scale(0.26458334)" />
    <path
       id="path1083"
       style="font-style:normal;font-variant:normal;font-weight:normal;font-stretch:normal;font-size:7.50244px;line-height:1.25;font-family:file-icons;-inkscape-font-specification:'file-icons, Normal';font-variant-ligatures:normal;font-variant-caps:normal;font-variant-numeric:normal;font-variant-east-asian:normal;fill:#fabd2f;fill-opacity:1;stroke:none;stroke-width:0.999999"
       d="m 396.16211,226.64453 c 0.002,0.085 0.0234,0.14085 0.0234,0.22852 v 9.27539 h 2.5625 v -8.76367 c 0,-0.27588 0.08,-0.48552 0.10547,-0.74024 z"
       transform="scale(0.26458334)" />
    <path
       id="path1081"
       style="font-style:normal;font-variant:normal;font-weight:normal;font-stretch:normal;font-size:7.50244px;line-height:1.25;font-family:file-icons;-inkscape-font-specification:'file-icons, Normal';font-variant-ligatures:normal;font-variant-caps:normal;font-variant-numeric:normal;font-variant-east-asian:normal;fill:#fabd2f;fill-opacity:1;stroke:none;stroke-width:0.999999"
       d="m 386.14844,226.64453 v 9.50391 h 2.56054 v -8.76367 c 0,-0.27549 0.0798,-0.48579 0.10547,-0.74024 z"
       transform="scale(0.26458334)" />
    <path
       id="path1079"
       style="font-style:normal;font-variant:normal;font-weight:normal;font-stretch:normal;font-size:7.50244px;line-height:1.25;font-family:file-icons;-inkscape-font-specification:'file-icons, Normal';font-variant-ligatures:normal;font-variant-caps:normal;font-variant-numeric:normal;font-variant-east-asian:normal;fill:#ffffff;fill-opacity:1;stroke:none;stroke-width:0.999999"
       d="m 386.14844,226.64453 h 2.66601 c 0.1146,-1.13518 0.41714,-2.1157 1.04297,-2.83203 0.76614,-0.88612 1.8001,-1.33008 3.10156,-1.33008 0.54922,0 1.02746,0.0915 1.4336,0.27149 0.40613,0.17999 0.74085,0.44861 1.0039,0.80859 0.49529,0.66907 0.73659,1.71767 0.76563,3.08203 h 2.69141 c 0.0444,-0.44414 0.0599,-0.91119 0.18164,-1.29101 0.19153,-0.59767 0.47826,-1.11625 0.86132,-1.55469 0.76611,-0.87689 1.80897,-1.31641 3.12891,-1.31641 1.07996,0 1.88402,0.36011 2.41016,1.08008 0.26305,0.35998 0.46027,0.81567 0.59179,1.36719 0.11606,0.48665 0.16018,1.07905 0.17383,1.71484 h 2.56641 c -0.0223,-2.00721 -0.44287,-3.57712 -1.29688,-4.67383 -0.87687,-1.13533 -2.12296,-1.70312 -3.73828,-1.70312 -1.19995,0 -2.24473,0.27181 -3.13086,0.8164 -0.8861,0.5446 -1.6463,1.3906 -2.2832,2.53516 -0.37846,-1.08918 -0.96401,-1.9199 -1.75781,-2.49219 -0.78458,-0.57228 -1.74109,-0.85937 -2.86719,-0.85937 -1.11688,0 -2.08031,0.2274 -2.89258,0.67969 -0.81227,0.45228 -1.51028,1.15278 -2.0918,2.10351 v -2.4082 h -2.56054 z"
       transform="scale(0.26458334)" />
    <path
       id="path1077"
       style="font-style:normal;font-variant:normal;font-weight:normal;font-stretch:normal;font-size:7.50244px;line-height:1.25;font-family:file-icons;-inkscape-font-specification:'file-icons, Normal';font-variant-ligatures:normal;font-variant-caps:normal;font-variant-numeric:normal;font-variant-east-asian:normal;fill:#fabd2f;fill-opacity:1;stroke:none;stroke-width:0.999999"
       d="m 367.97656,226.64453 c -0.10615,0.62582 -0.28515,1.19475 -0.28515,1.90235 0,1.22763 0.18103,2.32893 0.54101,3.30273 0.35999,0.9738 0.89917,1.82105 1.61914,2.54101 0.72459,0.71997 1.57787,1.25916 2.5586,1.61915 0.98072,0.35998 2.0893,0.54101 3.32617,0.54101 0.98765,0 1.96192,-0.10162 2.92187,-0.30469 0.95998,-0.20306 1.89676,-0.49904 2.81055,-0.88671 v -2.40821 c -0.90457,0.47997 -1.81915,0.84008 -2.74219,1.08008 -0.9138,0.24 -1.85947,0.35937 -2.83789,0.35937 -0.84458,10e-6 -1.59784,-0.11529 -2.25781,-0.34374 -0.65997,-0.22846 -1.22776,-0.57045 -1.70313,-1.02735 -0.47074,-0.46152 -0.83654,-1.02611 -1.09961,-1.69531 -0.26306,-0.6692 -0.42313,-1.44343 -0.47851,-2.32031 h 11.71289 v -1.2461 c 0,-0.41466 -0.12472,-0.72992 -0.16406,-1.11328 h -2.44336 c 0.009,0.1302 0.0588,0.22971 0.0605,0.36524 l -9.08203,0.0156 c 0.0127,-0.14283 0.0703,-0.24431 0.0899,-0.38086 z"
       transform="scale(0.26458334)" />
    <path
       id="path1075"
       style="font-style:normal;font-variant:normal;font-weight:normal;font-stretch:normal;font-size:7.50244px;line-height:1.25;font-family:file-icons;-inkscape-font-specification:'file-icons, Normal';font-variant-ligatures:normal;font-variant-caps:normal;font-variant-numeric:normal;font-variant-east-asian:normal;fill:#ffffff;fill-opacity:1;stroke:none;stroke-width:0.999999"
       d="m 367.97656,226.64453 h 2.54688 c 0.0803,-0.56056 0.17635,-1.10788 0.37304,-1.5625 0.24461,-0.56536 0.57931,-1.0477 1.00391,-1.44922 0.42921,-0.40152 0.93003,-0.70353 1.5,-0.90429 0.56998,-0.20076 1.20918,-0.30079 1.91992,-0.30079 0.62767,0 1.19421,0.10482 1.69727,0.3125 0.50306,0.20769 0.94381,0.51823 1.32226,0.9336 0.38347,0.41536 0.673,0.9009 0.86914,1.45703 0.15801,0.44798 0.20965,0.97435 0.2461,1.51367 h 2.44336 c -0.1796,-1.75007 -0.66265,-3.25757 -1.66211,-4.35547 -1.20917,-1.34763 -2.85729,-2.02148 -4.94336,-2.02148 -2.32605,0 -4.17741,0.74882 -5.55274,2.24414 -0.68304,0.74304 -1.19558,1.61694 -1.53711,2.62305 -0.15111,0.44518 -0.14231,1.01307 -0.22656,1.50976 z"
       transform="scale(0.26458334)" />
    <path
       id="path1073"
       style="font-style:normal;font-variant:normal;font-weight:normal;font-stretch:normal;font-size:7.50244px;line-height:1.25;font-family:file-icons;-inkscape-font-specification:'file-icons, Normal';font-variant-ligatures:normal;font-variant-caps:normal;font-variant-numeric:normal;font-variant-east-asian:normal;fill:#ffffff;fill-opacity:1;stroke:none;stroke-width:0.999999"
       d="m 357.46094,226.64453 h 6.11523 c -0.0367,-0.43852 0.003,-0.82532 -0.0801,-1.29492 -0.20306,-1.14457 -0.55429,-2.4459 -1.05273,-3.9043 -0.31383,-0.92303 -0.65422,-1.80012 -1.02344,-2.63086 -0.36923,-0.81227 -0.67409,-1.57886 -0.91406,-2.29883 -0.24006,-0.73842 -0.37028,-1.43004 -0.38867,-2.07617 -0.0369,-0.64612 0.13967,-1.25584 0.52734,-1.82812 0.40614,-0.61844 0.83926,-0.9741 1.30078,-1.06641 0.46152,-0.0923 0.95185,0.0779 1.46875,0.51172 1.05226,0.84919 0.85791,2.09528 -0.58203,3.73828 l 0.58203,0.38867 c 0.86766,0.11077 1.60564,-0.0639 2.21485,-0.52539 0.6092,-0.44305 1.04233,-0.98864 1.30078,-1.63476 0.27691,-0.64613 0.35189,-1.31109 0.22265,-1.99414 -0.12922,-0.66459 -0.51793,-1.16185 -1.16406,-1.49414 -1.69839,-0.88612 -3.30458,-1.17321 -4.81836,-0.85938 -0.75689,0.15692 -1.44851,0.41541 -2.07617,0.77539 -0.62766,0.35999 -1.19101,0.82171 -1.68945,1.38477 -0.99688,1.10764 -1.67073,2.5392 -2.02149,4.29297 -0.33229,1.73531 -0.16654,3.58915 0.49805,5.56445 0.27691,0.83073 0.564,1.67034 0.85937,2.51953 0.30262,0.81887 0.53823,1.62994 0.72071,2.43164 z"
       transform="scale(0.26458334)" />
    <path
       id="path1071"
       style="font-style:normal;font-variant:normal;font-weight:normal;font-stretch:normal;font-size:7.50244px;line-height:1.25;font-family:file-icons;-inkscape-font-specification:'file-icons, Normal';font-variant-ligatures:normal;font-variant-caps:normal;font-variant-numeric:normal;font-variant-east-asian:normal;fill:#fabd2f;fill-opacity:1;stroke:none;stroke-width:0.999999"
       d="m 351.21094,226.64453 c -0.30086,0.12104 -0.65351,0.18021 -0.92383,0.33789 -0.66459,0.38768 -1.23682,0.85829 -1.7168,1.41211 -0.49844,0.57228 -0.92268,1.19976 -1.27343,1.88281 -1.03381,1.9753 -1.17291,3.6101 -0.41602,4.90235 0.37844,0.64612 0.86878,1.17963 1.46875,1.59961 0.59997,0.41998 1.31131,0.72608 2.13281,0.91992 1.64301,0.38767 3.49685,0.25941 5.56446,-0.38672 1.0338,-0.32306 2.01126,-0.80576 2.92968,-1.44727 0.91842,-0.64151 1.77899,-1.44238 2.58203,-2.40234 0.64613,-0.75689 1.14339,-1.53236 1.49414,-2.32617 0.35075,-0.81227 0.56287,-1.68936 0.63672,-2.63086 0.0435,-0.5661 -0.0605,-1.23103 -0.11328,-1.86133 h -6.11523 c 0.007,0.0297 0.0208,0.0602 0.0273,0.0898 0.18462,0.83073 0.27539,1.64173 0.27539,2.43554 0,0.77535 -0.15687,1.51529 -0.4707,2.2168 -0.55382,1.21841 -1.29181,2.16851 -2.21485,2.85156 -0.90457,0.68312 -1.70669,1.03434 -2.4082,1.05274 -0.37845,0.0185 -0.68206,-0.0565 -0.9082,-0.22266 -0.22614,-0.16615 -0.37538,-0.42464 -0.44922,-0.77539 -0.16615,-0.71997 -0.1109,-1.55069 0.16602,-2.49219 0.27691,-0.9415 0.72975,-1.88272 1.35742,-2.82422 0.64612,-0.94149 1.39299,-1.62423 2.24218,-2.04883 0.14768,-0.0738 0.28679,-0.16657 0.41602,-0.27734 10e-4,-0.001 -10e-4,-0.005 0,-0.006 z"
       transform="scale(0.26458334)" />
    <path
       id="path1069"
       style="font-style:normal;font-variant:normal;font-weight:normal;font-stretch:normal;font-size:7.50244px;line-height:1.25;font-family:file-icons;-inkscape-font-specification:'file-icons, Normal';font-variant-ligatures:normal;font-variant-caps:normal;font-variant-numeric:normal;font-variant-east-asian:normal;fill:#fabd2f;fill-opacity:1;stroke:none;stroke-width:0.999999"
       d="m 351.21094,226.64453 h 4.2832 c 0.1249,-0.12921 0.0988,-0.32027 -0.084,-0.57617 -1.05226,-0.11077 -2.00237,-0.0822 -2.85157,0.084 -0.50378,0.0986 -0.90884,0.31566 -1.34765,0.49219 z"
       transform="scale(0.26458334)" />
    <path
       id="path1067"
       style="font-style:normal;font-variant:normal;font-weight:normal;font-stretch:normal;font-size:7.50244px;line-height:1.25;font-family:file-icons;-inkscape-font-specification:'file-icons, Normal';font-variant-ligatures:normal;font-variant-caps:normal;font-variant-numeric:normal;font-variant-east-asian:normal;fill:#fabd2f;fill-opacity:1;stroke:none;stroke-width:0.999999"
       d="m 340.09766,226.64453 v 9.50391 h 2.54687 v -9.50391 z"
       transform="scale(0.26458334)" />
    <path
       id="path1065"
       style="font-style:normal;font-variant:normal;font-weight:normal;font-stretch:normal;font-size:7.50244px;line-height:1.25;font-family:file-icons;-inkscape-font-specification:'file-icons, Normal';font-variant-ligatures:normal;font-variant-caps:normal;font-variant-numeric:normal;font-variant-east-asian:normal;fill:#ffffff;fill-opacity:1;stroke:none;stroke-width:0.999999"
       d="m 340.09766,226.64453 h 2.54687 v -6.00195 h -2.54687 z"
       transform="scale(0.26458334)" />
    <path
       id="path1063"
       style="font-style:normal;font-variant:normal;font-weight:normal;font-stretch:normal;font-size:7.50244px;line-height:1.25;font-family:file-icons;-inkscape-font-specification:'file-icons, Normal';font-variant-ligatures:normal;font-variant-caps:normal;font-variant-numeric:normal;font-variant-east-asian:normal;fill:#fabd2f;fill-opacity:1;stroke:none;stroke-width:0.999999"
       d="m 315.10547,226.64453 v 11.24805 h 5.89844 v -10.85352 h 4.45898 l 5.67578,10.88282 h 6.23047 l -6.03516,-11.24415 c 0.0171,-0.0117 0.0221,-0.0215 0.0391,-0.0332 z"
       transform="scale(0.26458334)" />
    <path
       id="path1061"
       style="font-style:normal;font-variant:normal;font-weight:normal;font-stretch:normal;font-size:7.50244px;line-height:1.25;font-family:file-icons;-inkscape-font-specification:'file-icons, Normal';font-variant-ligatures:normal;font-variant-caps:normal;font-variant-numeric:normal;font-variant-east-asian:normal;fill:#ffffff;fill-opacity:1;stroke:none;stroke-width:0.999999"
       d="m 315.10547,226.64453 h 16.26758 c 1.45178,-1.00235 2.5715,-1.95158 3.33789,-2.8457 0.79381,-0.90458 1.1914,-2.06876 1.1914,-3.49024 v -4.54101 c -0.0184,-0.49844 -0.14867,-1.05095 -0.38867,-1.66016 -0.23999,-0.62766 -0.85664,-1.42285 -1.85351,-2.38281 -0.62767,-0.60921 -1.26599,-1.11535 -1.91211,-1.52149 -0.64613,-0.42459 -1.64261,-0.63867 -2.99024,-0.63867 h -13.65234 z m 24.99219,-12.03906 v 3.22461 h 2.54687 v -3.22461 z m -19.09375,0.4707 h 7.47656 c 0.53536,0.0185 0.95072,0.23947 1.24609,0.66406 0.29537,0.40614 0.44336,0.79485 0.44336,1.16407 v 3.37695 c 0,0.18461 -0.14799,0.4431 -0.44336,0.77539 -0.27691,0.31383 -0.52456,0.4707 -0.74609,0.4707 h -7.97656 z"
       transform="scale(0.26458334)" />
    <g
       id="g1124"
       transform="translate(-21.310578,-140.67292)">
      <path
         style="fill:none;stroke:#458588;stroke-width:2.11667;stroke-linecap:round;stroke-linejoin:round;stroke-miterlimit:4;stroke-dasharray:none;stroke-opacity:1"
         d="m 85.524635,66.988037 c 1.569067,-1.170807 3.138034,-2.341539 4.75432,-2.179872 1.616286,0.161666 3.279607,1.655452 4.94881,1.655332 1.669203,-1.2e-4 3.344411,-1.493918 5.016595,-1.49379 1.67219,1.27e-4 3.34103,1.493903 4.97563,1.493786 1.6346,-1.17e-4 3.23505,-1.493902 4.85974,-1.493776 1.62468,1.25e-4 3.27325,1.493907 4.90647,1.493783 1.63322,-1.25e-4 3.25122,-1.49391 5.10814,-1.562946 1.85692,-0.06904 3.95241,1.286487 6.04769,2.641876"
         id="path1118"
         inkscape:path-effect="#path-effect1126"
         inkscape:original-d="m 85.524635,66.988037 c 1.569289,-1.17051 3.138256,-2.341242 4.706987,-3.51226 1.66361,1.494064 3.326928,2.987853 4.990071,4.481456 1.675474,-1.493633 3.35069,-2.987422 5.025697,-4.481456 1.66915,1.494064 3.33798,2.987853 5.00667,4.481456 1.60074,-1.493633 3.20119,-2.987422 4.80147,-4.481456 1.64888,1.494064 3.29744,2.987853 4.94582,4.481456 1.61828,-1.493633 3.23627,-2.987422 4.85409,-4.481456 2.09578,1.355806 4.19127,2.711328 6.28659,4.066653"
         sodipodi:nodetypes="ccccccccc" />
      <path
         style="fill:none;stroke:#98971a;stroke-width:2.11667;stroke-linecap:round;stroke-linejoin:round;stroke-miterlimit:4;stroke-dasharray:none;stroke-opacity:1"
         d="m 88.401655,70.148261 c 0.741927,-0.722522 1.483846,-1.445036 2.620638,-1.152825 1.136791,0.292211 2.668207,1.598936 4.271441,1.505275 1.603234,-0.09366 3.278442,-1.587459 4.950626,-1.587331 1.67219,1.27e-4 3.34103,1.493903 4.97563,1.493786 1.6346,-1.17e-4 3.23505,-1.493902 4.85974,-1.493776 1.62468,1.25e-4 3.27325,1.493907 4.81945,1.538253 1.5462,0.04435 2.99037,-1.360702 4.29951,-1.64331 1.30914,-0.282608 2.48355,0.556775 3.6579,1.396118"
         id="path1120"
         inkscape:path-effect="#path-effect1128"
         inkscape:original-d="m 88.401655,70.148261 c 0.742142,-0.722302 1.484061,-1.444815 2.225765,-2.16755 1.531651,1.306952 3.063067,2.613676 4.594273,3.920195 1.675474,-1.493633 3.35069,-2.987422 5.025697,-4.481456 1.66915,1.494064 3.33798,2.987853 5.00667,4.481456 1.60074,-1.493633 3.20119,-2.987422 4.80147,-4.481456 1.64888,1.494064 3.29744,2.987853 4.94582,4.481456 1.44425,-1.40469 2.88841,-2.809744 4.33197,-4.214633 1.17447,0.839502 2.34888,1.678887 3.52327,2.518178"
         sodipodi:nodetypes="ccccccccc" />
      <path
         style="fill:none;stroke:#458588;stroke-width:2.11667;stroke-linecap:round;stroke-linejoin:round;stroke-miterlimit:4;stroke-dasharray:none;stroke-opacity:1"
         d="m 92.356922,73.320965 c 0.954998,0.857655 1.90992,1.715242 3.225107,1.396964 1.315187,-0.318279 2.990147,-1.811855 4.662331,-1.811727 1.67219,1.27e-4 3.34103,1.493903 4.97563,1.493786 1.6346,-1.17e-4 3.23505,-1.493902 4.85974,-1.493776 1.62468,1.25e-4 3.27328,1.493936 4.6069,1.770433 1.33362,0.276498 2.35257,-0.664139 3.37144,-1.604694"
         id="path1122"
         inkscape:path-effect="#path-effect1130"
         inkscape:original-d="m 92.356922,73.320965 c 0.954995,0.857659 1.909912,1.715251 2.864771,2.572764 1.675729,-1.493848 3.35069,-2.987423 5.025697,-4.481457 1.66915,1.494064 3.33798,2.987853 5.00667,4.481457 1.60074,-1.493634 3.20119,-2.987423 4.80147,-4.481457 1.64888,1.494064 3.29747,2.987883 4.94582,4.481457 1.01911,-0.940359 2.03794,-1.881131 3.05672,-2.821778"
         sodipodi:nodetypes="ccccccc" />
    </g>
  </g>
</svg>
