<?xml version="1.0" encoding="UTF-8" standalone="no"?>
<svg
   xmlns:dc="http://purl.org/dc/elements/1.1/"
   xmlns:cc="http://creativecommons.org/ns#"
   xmlns:rdf="http://www.w3.org/1999/02/22-rdf-syntax-ns#"
   xmlns:svg="http://www.w3.org/2000/svg"
   xmlns="http://www.w3.org/2000/svg"
   xmlns:sodipodi="http://sodipodi.sourceforge.net/DTD/sodipodi-0.dtd"
   xmlns:inkscape="http://www.inkscape.org/namespaces/inkscape"
   version="1.1"
   width="252.07201"
   height="176.45039"
   viewBox="0 0 252.07201 176.45039"
   xml:space="preserve"
   id="svg14"
   sodipodi:docname="youtube-logo-2431.svg"
   inkscape:version="1.0.2 (e86c870879, 2021-01-15)"><metadata
   id="metadata18"><rdf:RDF><cc:Work
       rdf:about=""><dc:format>image/svg+xml</dc:format><dc:type
         rdf:resource="http://purl.org/dc/dcmitype/StillImage" /></cc:Work></rdf:RDF></metadata><sodipodi:namedview
   pagecolor="#ffffff"
   bordercolor="#666666"
   borderopacity="1"
   objecttolerance="10"
   gridtolerance="10"
   guidetolerance="10"
   inkscape:pageopacity="0"
   inkscape:pageshadow="2"
   inkscape:window-width="1366"
   inkscape:window-height="766"
   id="namedview16"
   showgrid="false"
   inkscape:zoom="2.234375"
   inkscape:cx="126.036"
   inkscape:cy="88.2252"
   inkscape:window-x="0"
   inkscape:window-y="0"
   inkscape:window-maximized="1"
   inkscape:current-layer="svg14"
   inkscape:document-rotation="0"
   showguides="true"
   inkscape:guide-bbox="true" />
<desc
   id="desc2">Created with Fabric.js 1.7.22</desc>
<defs
   id="defs4">
</defs>
<g
   transform="matrix(0.49098961,0,0,0.4877597,128.41586,89.880138)"
   id="g12"
   style="stroke-width:1.47127">
	<g
   style="opacity:1;fill:none;fill-rule:nonzero;stroke:none;stroke-width:0;stroke-linecap:butt;stroke-linejoin:miter;stroke-miterlimit:10;stroke-dasharray:none"
   transform="matrix(3.89,0,0,3.89,-175.05,-175.05)"
   id="g10">
	<path
   d="M 85.679022,23.06559 C 84.672681,19.300804 81.707134,16.335257 77.942348,15.328916 71.118673,13.5 43.753969,13.5 43.753969,13.5 c 0,0 -27.364705,0 -34.1883791,1.828916 C 5.800804,16.335257 2.8352572,19.300804 1.8289159,23.06559 0,29.889264 0,44.127778 0,44.127778 c 0,0 0,14.238514 1.8289159,21.062189 1.0063413,3.764785 3.9718881,6.730332 7.736674,7.736674 6.8236741,1.828915 34.1883791,1.828915 34.1883791,1.828915 0,0 27.364704,0 34.188379,-1.828915 3.764786,-1.006342 6.730333,-3.971889 7.736674,-7.736674 1.828916,-6.823675 1.828916,-21.062189 1.828916,-21.062189 0,0 0,-14.238514 -1.828916,-21.062188 z"
   style="opacity:1;fill:#ff0000;fill-rule:nonzero;stroke:none;stroke-width:1.47127;stroke-linecap:butt;stroke-linejoin:miter;stroke-miterlimit:10;stroke-dasharray:none"
   stroke-linecap="round"
   id="path6" />
	<polygon
   points="36,31.5 36,58.5 59.38,45 "
   style="opacity:1;fill:#ffffff;fill-rule:nonzero;stroke:none;stroke-width:1.47127;stroke-linecap:butt;stroke-linejoin:miter;stroke-miterlimit:10;stroke-dasharray:none"
   id="polygon8" />
</g>
</g>
</svg>
